<?xml version="1.0" encoding="UTF-8"?>
<svg version="1.1" xmlns="http://www.w3.org/2000/svg" width="91" height="84">
<path d="M0 0 C3.82949634 0.57442445 5.71020515 2.26189215 8.5 4.875 C9.37785156 5.69097656 10.25570312 6.50695312 11.16015625 7.34765625 C12.09730469 8.22292969 13.03445312 9.09820312 14 10 C15.47626589 11.31900721 16.95254007 12.63800536 18.42944336 13.95629883 C37.17529836 30.81451876 37.17529836 30.81451876 42 41 C41.6875 43.5 41.6875 43.5 40 46 C39.6596875 46.52464844 39.319375 47.04929688 38.96875 47.58984375 C35.50303252 52.58766194 31.35330661 57.0264787 27.25 61.5 C26.67080811 62.13607178 26.09161621 62.77214355 25.49487305 63.42749023 C24.03894721 64.99217866 22.52386179 66.50139559 21 68 C20.34 68 19.68 68 19 68 C19 68.66 19 69.32 19 70 C17.53125 71.48046875 17.53125 71.48046875 15.5 73.1875 C13.22733308 75.10153686 10.98893688 77.0104463 8.828125 79.05078125 C8.14234375 79.69402344 7.4565625 80.33726563 6.75 81 C6.12609375 81.598125 5.5021875 82.19625 4.859375 82.8125 C3 84 3 84 0.84375 83.7890625 C-1 83 -1 83 -2.25 81.375 C-3.25295915 78.1989627 -3.12721966 75.30771122 -3 72 C-4.00466309 72.16008545 -5.00932617 72.3201709 -6.04443359 72.48510742 C-11.85511099 73.24147816 -17.64832436 73.26195976 -23.49804688 73.29516602 C-24.91969706 73.30675201 -26.34130157 73.32730706 -27.76269531 73.35668945 C-29.8342798 73.39939024 -31.90459263 73.41552708 -33.9765625 73.42578125 C-35.81855225 73.44765503 -35.81855225 73.44765503 -37.69775391 73.4699707 C-41.68104963 72.90307404 -43.25513574 71.91233182 -46 69 C-49.79917534 60.64410982 -49.45669467 50.98641389 -49.375 42 C-49.38660156 40.72382812 -49.39820313 39.44765625 -49.41015625 38.1328125 C-49.35389409 19.79134976 -49.35389409 19.79134976 -44.38623047 12.69458008 C-41.05114941 10.32617435 -38.03092544 10.4800988 -34.09375 10.57421875 C-32.95117737 10.57915092 -32.95117737 10.57915092 -31.78552246 10.58418274 C-29.35643423 10.59990655 -26.9287313 10.64394934 -24.5 10.6875 C-22.86589666 10.69899409 -21.23178034 10.70877844 -19.59765625 10.71679688 C-18.03384012 10.73022384 -16.47003597 10.74514761 -14.90625 10.76171875 C-14.17386108 10.76910568 -13.44147217 10.77649261 -12.68688965 10.78410339 C-9.32854556 10.84680055 -6.21286236 10.96498743 -3 12 C-3.061875 10.948125 -3.12375 9.89625 -3.1875 8.8125 C-2.9922214 4.84183507 -2.29674932 3.15803031 0 0 Z " fill="#FDC40D" transform="translate(49,0)"/>
<path d="M0 0 C3.82949634 0.57442445 5.71020515 2.26189215 8.5 4.875 C9.37785156 5.69097656 10.25570312 6.50695312 11.16015625 7.34765625 C12.09730469 8.22292969 13.03445312 9.09820312 14 10 C15.47626589 11.31900721 16.95254007 12.63800536 18.42944336 13.95629883 C37.17529836 30.81451876 37.17529836 30.81451876 42 41 C41.6875 43.5 41.6875 43.5 40 46 C39.6596875 46.52464844 39.319375 47.04929688 38.96875 47.58984375 C35.50303252 52.58766194 31.35330661 57.0264787 27.25 61.5 C26.67080811 62.13607178 26.09161621 62.77214355 25.49487305 63.42749023 C24.03894721 64.99217866 22.52386179 66.50139559 21 68 C20.34 68 19.68 68 19 68 C19 68.66 19 69.32 19 70 C17.53125 71.48046875 17.53125 71.48046875 15.5 73.1875 C13.22733308 75.10153686 10.98893688 77.0104463 8.828125 79.05078125 C8.14234375 79.69402344 7.4565625 80.33726563 6.75 81 C6.12609375 81.598125 5.5021875 82.19625 4.859375 82.8125 C3 84 3 84 0.84375 83.7890625 C-1 83 -1 83 -2.25 81.375 C-3.25295915 78.1989627 -3.12721966 75.30771122 -3 72 C-4.00466309 72.16008545 -5.00932617 72.3201709 -6.04443359 72.48510742 C-11.85511099 73.24147816 -17.64832436 73.26195976 -23.49804688 73.29516602 C-24.91969706 73.30675201 -26.34130157 73.32730706 -27.76269531 73.35668945 C-29.8342798 73.39939024 -31.90459263 73.41552708 -33.9765625 73.42578125 C-35.81855225 73.44765503 -35.81855225 73.44765503 -37.69775391 73.4699707 C-41.68104963 72.90307404 -43.25513574 71.91233182 -46 69 C-49.79917534 60.64410982 -49.45669467 50.98641389 -49.375 42 C-49.38660156 40.72382812 -49.39820313 39.44765625 -49.41015625 38.1328125 C-49.35389409 19.79134976 -49.35389409 19.79134976 -44.38623047 12.69458008 C-41.05114941 10.32617435 -38.03092544 10.4800988 -34.09375 10.57421875 C-32.95117737 10.57915092 -32.95117737 10.57915092 -31.78552246 10.58418274 C-29.35643423 10.59990655 -26.9287313 10.64394934 -24.5 10.6875 C-22.86589666 10.69899409 -21.23178034 10.70877844 -19.59765625 10.71679688 C-18.03384012 10.73022384 -16.47003597 10.74514761 -14.90625 10.76171875 C-14.17386108 10.76910568 -13.44147217 10.77649261 -12.68688965 10.78410339 C-9.32854556 10.84680055 -6.21286236 10.96498743 -3 12 C-3.061875 10.948125 -3.12375 9.89625 -3.1875 8.8125 C-2.9922214 4.84183507 -2.29674932 3.15803031 0 0 Z M5 21 C4.34 21.99 3.68 22.98 3 24 C0.52682109 24.05859152 -1.68098866 23.94702318 -4.125 23.6875 C-5.57128634 23.56632868 -7.01792137 23.44926132 -8.46484375 23.3359375 C-9.58415283 23.24650879 -9.58415283 23.24650879 -10.72607422 23.15527344 C-14.37978747 22.90578217 -18.02618089 22.83518528 -21.6875 22.8125 C-22.97011719 22.79832031 -24.25273437 22.78414062 -25.57421875 22.76953125 C-29.81723294 23.05497918 -32.76260911 23.71841658 -35.75 26.8125 C-39.91030577 34.09303509 -38.75167737 45.24929986 -37.1875 53.1875 C-36.07339525 56.76436263 -35.70272942 57.74322093 -33 60 C-30.89667109 60.71447643 -30.89667109 60.71447643 -29 61 C-30.3303125 60.814375 -30.3303125 60.814375 -31.6875 60.625 C-35.35581339 61.04028076 -35.67040465 61.30900395 -37.875 64 C-38.57625 64.99 -39.2775 65.98 -40 67 C-36.16327717 69.55781522 -33.05464013 69.25306456 -28.61328125 69.1953125 C-27.79627243 69.1924826 -26.97926361 69.18965271 -26.13749695 69.18673706 C-23.52901541 69.17554541 -20.9208777 69.1504429 -18.3125 69.125 C-16.54362475 69.11496888 -14.77474412 69.10584326 -13.00585938 69.09765625 C-8.67044051 69.07560942 -4.33527855 69.0410867 0 69 C0.495 71.97 0.495 71.97 1 75 C3.02350324 71.96474514 3.32124018 70.80573798 3.625 67.3125 C3.69976562 66.50425781 3.77453125 65.69601563 3.8515625 64.86328125 C3.90054688 64.24839844 3.94953125 63.63351563 4 63 C4.66 63 5.32 63 6 63 C5.77183594 63.90363281 5.54367188 64.80726562 5.30859375 65.73828125 C5.02113281 66.91777344 4.73367187 68.09726563 4.4375 69.3125 C4.14746094 70.48425781 3.85742188 71.65601563 3.55859375 72.86328125 C2.73967567 76.01512112 2.73967567 76.01512112 4 79 C4.6290625 78.35933594 5.258125 77.71867187 5.90625 77.05859375 C13.74115406 69.14109281 13.74115406 69.14109281 17.875 65.6875 C21.5963578 62.49124177 24.96161175 59.01322269 28.3125 55.4375 C28.8286084 54.89504639 29.3447168 54.35259277 29.87646484 53.79370117 C32.97940442 50.43345708 35.13475934 47.23339605 37 43 C33.04 43 29.08 43 25 43 C24.505 41.02 24.505 41.02 24 39 C18.88361573 32.28474565 12.58860595 26.26500207 6 21 C5.67 21 5.34 21 5 21 Z " fill="#985A0D" transform="translate(49,0)"/>
<path d="M0 0 C3.82949634 0.57442445 5.71020515 2.26189215 8.5 4.875 C9.37785156 5.69097656 10.25570312 6.50695312 11.16015625 7.34765625 C12.09730469 8.22292969 13.03445312 9.09820312 14 10 C15.47626589 11.31900721 16.95254007 12.63800536 18.42944336 13.95629883 C37.17529836 30.81451876 37.17529836 30.81451876 42 41 C41.6875 43.5 41.6875 43.5 40 46 C39.6596875 46.52464844 39.319375 47.04929688 38.96875 47.58984375 C35.50303252 52.58766194 31.35330661 57.0264787 27.25 61.5 C26.67080811 62.13607178 26.09161621 62.77214355 25.49487305 63.42749023 C24.03894721 64.99217866 22.52386179 66.50139559 21 68 C20.34 68 19.68 68 19 68 C19 68.66 19 69.32 19 70 C17.53125 71.48046875 17.53125 71.48046875 15.5 73.1875 C13.22733308 75.10153686 10.98893688 77.0104463 8.828125 79.05078125 C8.14234375 79.69402344 7.4565625 80.33726563 6.75 81 C6.12609375 81.598125 5.5021875 82.19625 4.859375 82.8125 C3 84 3 84 0.84375 83.7890625 C-1 83 -1 83 -2.25 81.375 C-3.25295915 78.1989627 -3.12721966 75.30771122 -3 72 C-4.00466309 72.16008545 -5.00932617 72.3201709 -6.04443359 72.48510742 C-11.85511099 73.24147816 -17.64832436 73.26195976 -23.49804688 73.29516602 C-24.91969706 73.30675201 -26.34130157 73.32730706 -27.76269531 73.35668945 C-29.8342798 73.39939024 -31.90459263 73.41552708 -33.9765625 73.42578125 C-35.81855225 73.44765503 -35.81855225 73.44765503 -37.69775391 73.4699707 C-41.68104963 72.90307404 -43.25513574 71.91233182 -46 69 C-49.79917534 60.64410982 -49.45669467 50.98641389 -49.375 42 C-49.38660156 40.72382812 -49.39820313 39.44765625 -49.41015625 38.1328125 C-49.35389409 19.79134976 -49.35389409 19.79134976 -44.38623047 12.69458008 C-41.05114941 10.32617435 -38.03092544 10.4800988 -34.09375 10.57421875 C-32.95117737 10.57915092 -32.95117737 10.57915092 -31.78552246 10.58418274 C-29.35643423 10.59990655 -26.9287313 10.64394934 -24.5 10.6875 C-22.86589666 10.69899409 -21.23178034 10.70877844 -19.59765625 10.71679688 C-18.03384012 10.73022384 -16.47003597 10.74514761 -14.90625 10.76171875 C-14.17386108 10.76910568 -13.44147217 10.77649261 -12.68688965 10.78410339 C-9.32854556 10.84680055 -6.21286236 10.96498743 -3 12 C-3.061875 10.948125 -3.12375 9.89625 -3.1875 8.8125 C-2.9922214 4.84183507 -2.29674932 3.15803031 0 0 Z M0 5 C0 8.3 0 11.6 0 15 C-13.86 15 -27.72 15 -42 15 C-45.39228205 24.04608546 -46.19478183 31.22111732 -46.1875 40.6875 C-46.18741943 41.65977539 -46.18733887 42.63205078 -46.18725586 43.63378906 C-46.23692021 55.13025819 -46.23692021 55.13025819 -43 66 C-39.83884224 64.63016497 -39.0072908 64.0109362 -37 61 C-37.31506627 57.85778033 -37.31506627 57.85778033 -38 55 C-37.34 55 -36.68 55 -36 55 C-35.773125 55.61875 -35.54625 56.2375 -35.3125 56.875 C-33.62070165 59.61410209 -32.00755839 60.05024472 -29 61 C-30.3303125 60.814375 -30.3303125 60.814375 -31.6875 60.625 C-35.35581339 61.04028076 -35.67040465 61.30900395 -37.875 64 C-38.57625 64.99 -39.2775 65.98 -40 67 C-36.16327717 69.55781522 -33.05464013 69.25306456 -28.61328125 69.1953125 C-27.79627243 69.1924826 -26.97926361 69.18965271 -26.13749695 69.18673706 C-23.52901541 69.17554541 -20.9208777 69.1504429 -18.3125 69.125 C-16.54362475 69.11496888 -14.77474412 69.10584326 -13.00585938 69.09765625 C-8.67044051 69.07560942 -4.33527855 69.0410867 0 69 C0.33 70.98 0.66 72.96 1 75 C3.02350324 71.96474514 3.32124018 70.80573798 3.625 67.3125 C3.69976562 66.50425781 3.77453125 65.69601563 3.8515625 64.86328125 C3.90054688 64.24839844 3.94953125 63.63351563 4 63 C4.66 63 5.32 63 6 63 C5.77183594 63.90363281 5.54367188 64.80726562 5.30859375 65.73828125 C5.02113281 66.91777344 4.73367187 68.09726563 4.4375 69.3125 C4.14746094 70.48425781 3.85742188 71.65601562 3.55859375 72.86328125 C2.73967567 76.01512112 2.73967567 76.01512112 4 79 C4.6290625 78.35933594 5.258125 77.71867187 5.90625 77.05859375 C13.74115406 69.14109281 13.74115406 69.14109281 17.875 65.6875 C21.5963578 62.49124177 24.96161175 59.01322269 28.3125 55.4375 C28.8286084 54.89504639 29.3447168 54.35259277 29.87646484 53.79370117 C32.97940442 50.43345708 35.13475934 47.23339605 37 43 C33.04 43 29.08 43 25 43 C25.33 42.01 25.66 41.02 26 40 C26.33 40.33 26.66 40.66 27 41 C28.68608966 41.07205511 30.37500659 41.08386068 32.0625 41.0625 C32.98160156 41.05347656 33.90070313 41.04445312 34.84765625 41.03515625 C35.55792969 41.02355469 36.26820312 41.01195312 37 41 C35.49131333 35.71453395 32.02889226 32.47674474 28.3125 28.625 C27.71244141 27.99078125 27.11238281 27.3565625 26.49414062 26.703125 C18.37215524 18.15346006 18.37215524 18.15346006 9.6875 10.1875 C7.72202244 8.50004677 5.83268657 6.83268657 4 5 C2.68 5 1.36 5 0 5 Z " fill="#6F3003" transform="translate(49,0)"/>
<path d="M0 0 C3.30479354 -0.01421417 6.53062081 0.11843345 9.8203125 0.421875 C6.85047094 6.15366921 3.27974898 10.52785544 -1.1796875 15.171875 C-1.83743164 15.86490723 -2.49517578 16.55793945 -3.17285156 17.27197266 C-16.81982224 31.51529816 -16.81982224 31.51529816 -24.1796875 36.421875 C-23.87044536 34.31722707 -23.5571819 32.2131697 -23.2421875 30.109375 C-23.06816406 28.93761719 -22.89414062 27.76585937 -22.71484375 26.55859375 C-22.1796875 23.421875 -22.1796875 23.421875 -21.1796875 20.421875 C-21.8396875 20.421875 -22.4996875 20.421875 -23.1796875 20.421875 C-23.8396875 24.381875 -24.4996875 28.341875 -25.1796875 32.421875 C-25.5096875 32.421875 -25.8396875 32.421875 -26.1796875 32.421875 C-26.6746875 29.451875 -26.6746875 29.451875 -27.1796875 26.421875 C-28.83738159 26.43758545 -28.83738159 26.43758545 -30.52856445 26.45361328 C-34.62667606 26.48979907 -38.72477353 26.51277029 -42.82299805 26.53173828 C-44.59711074 26.54179911 -46.37120685 26.55544922 -48.14526367 26.57275391 C-50.69454034 26.59699878 -53.24359787 26.60835718 -55.79296875 26.6171875 C-56.98373772 26.63267136 -56.98373772 26.63267136 -58.19856262 26.64846802 C-62.06191793 26.6492561 -63.88808196 26.61627869 -67.1796875 24.421875 C-64.18486885 20.19389573 -64.18486885 20.19389573 -62.1796875 18.421875 C-58.8671875 18.046875 -58.8671875 18.046875 -56.1796875 18.421875 C-56.1796875 18.091875 -56.1796875 17.761875 -56.1796875 17.421875 C-51.696083 17.22915466 -47.212203 17.0505074 -42.72753906 16.88476562 C-41.2026474 16.82643998 -39.67789656 16.76430062 -38.15332031 16.69824219 C-35.95924526 16.60384261 -33.76502601 16.52326269 -31.5703125 16.4453125 C-30.55133881 16.39701797 -30.55133881 16.39701797 -29.51177979 16.3477478 C-25.85594958 16.23258679 -23.28313113 16.40118837 -20.1796875 18.421875 C-18.27584251 16.74272623 -16.38086296 15.05546884 -14.4921875 13.359375 C-13.93200928 12.86074951 -13.37183105 12.36212402 -12.79467773 11.84838867 C-9.84149322 9.16071744 -7.59945939 6.81625651 -5.7421875 3.234375 C-3.1796875 0.421875 -3.1796875 0.421875 0 0 Z " fill="#9A5D0F" transform="translate(76.1796875,42.578125)"/>
<path d="M0 0 C5.14237576 4.24804954 9.82845214 8.79964875 14.51171875 13.546875 C16.69199526 15.69634698 18.91734512 17.70719643 21.25 19.6875 C24.92751279 22.82684019 27.9440509 26.25646236 31 30 C27.60985184 31.13004939 25.00618687 31.12941627 21.43359375 31.1328125 C20.14388672 31.13410156 18.85417969 31.13539062 17.52539062 31.13671875 C16.51955933 31.13357666 16.51955933 31.13357666 15.4934082 31.13037109 C13.4414941 31.12501043 11.38979801 31.13032881 9.33789062 31.13671875 C7.40526367 31.13478516 7.40526367 31.13478516 5.43359375 31.1328125 C4.24822021 31.13168457 3.06284668 31.13055664 1.84155273 31.12939453 C-1 31 -1 31 -3 30 C-5.35339609 24.80601354 -5.26861125 19.89210009 -5.1875 14.3125 C-5.18685547 13.45849609 -5.18621094 12.60449219 -5.18554688 11.72460938 C-5.16037787 8.16459314 -5.13548452 5.40645355 -4 2 C-1.9375 0.8125 -1.9375 0.8125 0 0 Z " fill="#FC9B0E" transform="translate(20,26)"/>
<path d="M0 0 C25.87019641 21.75448335 25.87019641 21.75448335 34 34 C34 34.66 34 35.32 34 36 C30.52092806 36.56701172 27.46227038 36.74118985 24 36 C21.76506783 34.0124121 20.30295603 31.92325095 18.640625 29.44140625 C17.09917595 27.14758326 15.52249667 25.31292463 13.5625 23.375 C12.99273437 22.8078125 12.42296875 22.240625 11.8359375 21.65625 C10.00909849 19.94464732 10.00909849 19.94464732 7.8515625 18.46875 C2.8947832 14.81826993 1.44207215 12.2293978 0.5 6.0625 C0.29981354 4.04471148 0.12174654 2.02403629 0 0 Z " fill="#F6BF0A" transform="translate(52,5)"/>
<path d="M0 0 C3.39497827 1.49596074 5.87137203 3.4647605 8.625 5.9375 C9.78902344 6.97197266 9.78902344 6.97197266 10.9765625 8.02734375 C13.14354523 10.13994274 14.82426956 11.86802208 15.30078125 14.9375 C15.33195144 20.42345277 15.33195144 20.42345277 13.8125 23.0625 C12 24 12 24 9.72265625 23.875 C6.04080283 22.69173577 4.29374615 20.71712529 1.625 17.9375 C0.90981201 17.19802124 0.90981201 17.19802124 0.18017578 16.44360352 C-10.16819108 5.66361784 -10.16819108 5.66361784 -12 2 C-4.57142857 1.85714286 -4.57142857 1.85714286 -1 3 C-0.67 2.01 -0.34 1.02 0 0 Z " fill="#FC9E11" transform="translate(55,25)"/>
<path d="M0 0 C1.30517578 0.12181641 1.30517578 0.12181641 2.63671875 0.24609375 C3.51972656 0.30925781 4.40273437 0.37242188 5.3125 0.4375 C5.97636719 0.51871094 6.64023438 0.59992187 7.32421875 0.68359375 C4.35436996 6.41540191 0.78364474 10.78953823 -3.67578125 15.43359375 C-4.3320752 16.12517578 -4.98836914 16.81675781 -5.66455078 17.52929688 C-11.40354569 23.51950293 -17.31948155 29.34520681 -23.67578125 34.68359375 C-24.00578125 34.68359375 -24.33578125 34.68359375 -24.67578125 34.68359375 C-23.84831623 25.25049253 -21.51969838 19.76439332 -14.30078125 13.68359375 C-10.71399876 10.62090733 -7.65831826 7.82487333 -5.09375 3.8359375 C-2.67578125 0.68359375 -2.67578125 0.68359375 0 0 Z " fill="#F6960E" transform="translate(78.67578125,42.31640625)"/>
<path d="M0 0 C0.74507812 0.00451172 1.49015625 0.00902344 2.2578125 0.01367188 C4.0885764 0.02540754 5.91929873 0.0433415 7.75 0.0625 C7.75 0.3925 7.75 0.7225 7.75 1.0625 C6.55761719 1.14886719 5.36523438 1.23523438 4.13671875 1.32421875 C2.57020226 1.46492382 1.00380121 1.60691832 -0.5625 1.75 C-1.74102539 1.83024414 -1.74102539 1.83024414 -2.94335938 1.91210938 C-7.59986228 2.35195873 -7.59986228 2.35195873 -11.27734375 5.0546875 C-12.63793659 9.26214327 -12.60819958 13.10777317 -12.5 17.5 C-12.49484375 18.33337891 -12.4896875 19.16675781 -12.484375 20.02539062 C-12.42797415 24.48458295 -12.03976998 28.66297477 -11.25 33.0625 C-10.20545654 33.04678955 -9.16091309 33.0310791 -8.0847168 33.01489258 C-4.21028348 32.96060303 -0.33588381 32.9261537 3.53881836 32.89770508 C5.2159592 32.88261616 6.89306057 32.86214252 8.57006836 32.83618164 C10.98040504 32.79980189 13.39022019 32.78277514 15.80078125 32.76953125 C16.55087967 32.75404739 17.30097809 32.73856354 18.07380676 32.72261047 C23.30076615 32.72091969 23.30076615 32.72091969 25.74682617 34.58081055 C26.07787354 35.06976807 26.4089209 35.55872559 26.75 36.0625 C26.42 37.0525 26.09 38.0425 25.75 39.0625 C25.09 38.4025 24.43 37.7425 23.75 37.0625 C21.07053783 36.94838803 18.49426226 36.95201269 15.8203125 37.04296875 C14.20444311 37.07313664 12.58855673 37.10240542 10.97265625 37.13085938 C8.42219661 37.18662458 5.87258166 37.25007565 3.32275391 37.32983398 C0.86351786 37.40244454 -1.5946913 37.4436054 -4.0546875 37.48046875 C-4.8152243 37.51254929 -5.57576111 37.54462982 -6.35934448 37.5776825 C-10.22449025 37.6146728 -11.86481373 37.42849943 -14.71533203 34.7199707 C-18.99053892 27.31691201 -18.50263588 14.94623941 -16.4375 6.875 C-15.30140036 4.1842377 -14.63531125 2.71386933 -12.25 1.0625 C-8.19181605 -0.16956294 -4.20233658 -0.04826005 0 0 Z " fill="#FBC111" transform="translate(28.25,22.9375)"/>
<path d="M0 0 C5.35679728 -0.09882689 10.71306485 -0.17144782 16.07055664 -0.21972656 C17.8932418 -0.23985059 19.71586234 -0.26715296 21.53833008 -0.30175781 C24.15722588 -0.35024268 26.77526879 -0.37296009 29.39453125 -0.390625 C30.61811089 -0.42159271 30.61811089 -0.42159271 31.8664093 -0.45318604 C37.49476262 -0.45542183 37.49476262 -0.45542183 40.0378418 1.83691406 C41 4 41 4 41 7 C36.12709039 7.34190501 31.25508178 7.62899922 26.37597656 7.86669922 C24.71854281 7.9550396 23.06182164 8.05806119 21.40625 8.17626953 C7.58002781 9.14842578 7.58002781 9.14842578 3.54394531 6.21484375 C2.02334029 4.18737039 0.92056758 2.35497088 0 0 Z " fill="#F5960E" transform="translate(8,15)"/>
<path d="M0 0 C0.99 0 1.98 0 3 0 C3.0309375 0.76441406 3.061875 1.52882813 3.09375 2.31640625 C4.44846008 13.14106085 10.22423542 17.78615208 18.21484375 24.58984375 C21.54372548 27.44490951 23.7909421 30.22210725 26 34 C23 34 23 34 21.01953125 32.05859375 C20.29121094 31.19363281 19.56289062 30.32867187 18.8125 29.4375 C14.84102892 24.86054234 10.67438304 20.84649504 6 17 C5.47986328 17.75216797 5.47986328 17.75216797 4.94921875 18.51953125 C1.93348655 20.81003727 -0.4869343 20.0491545 -4.1875 19.6875 C-5.62466868 19.56631691 -7.06218941 19.44925063 -8.5 19.3359375 C-9.23992188 19.27631836 -9.97984375 19.21669922 -10.7421875 19.15527344 C-14.39044321 18.90437696 -18.0315513 18.8351282 -21.6875 18.8125 C-22.97011719 18.79832031 -24.25273437 18.78414062 -25.57421875 18.76953125 C-30.49159045 19.10034645 -33.0418016 19.91231533 -36.3125 23.625 C-36.869375 24.40875 -37.42625 25.1925 -38 26 C-37.896875 24.824375 -37.79375 23.64875 -37.6875 22.4375 C-37.64188809 17.31984416 -39.7948786 14.84614568 -43 11 C-42.01 11 -41.02 11 -40 11 C-39.28110596 11.97791504 -38.56221191 12.95583008 -37.8215332 13.96337891 C-35.53654858 16.85910092 -35.15534934 16.97201003 -31.21948242 17.68115234 C-29.76446531 17.68021082 -28.309213 17.6467926 -26.85546875 17.5859375 C-26.08568192 17.57744781 -25.31589508 17.56895813 -24.52278137 17.56021118 C-22.0762329 17.52675703 -19.63304309 17.45150592 -17.1875 17.375 C-15.52413632 17.34488948 -13.86072071 17.31751555 -12.19726562 17.29296875 C-8.13022629 17.22699369 -4.06568149 17.12353843 0 17 C-0.99 14.69 -1.98 12.38 -3 10 C-2.01 10 -1.02 10 0 10 C0 6.7 0 3.4 0 0 Z " fill="#844505" transform="translate(49,5)"/>
<path d="M0 0 C0.74507812 0.00451172 1.49015625 0.00902344 2.2578125 0.01367188 C4.0885764 0.02540754 5.91929873 0.0433415 7.75 0.0625 C7.75 0.3925 7.75 0.7225 7.75 1.0625 C5.99623047 1.17464844 5.99623047 1.17464844 4.20703125 1.2890625 C2.65873117 1.42043342 1.11055972 1.55332639 -0.4375 1.6875 C-1.20642578 1.73261719 -1.97535156 1.77773438 -2.76757812 1.82421875 C-7.05198927 2.22875542 -8.86473009 2.72995124 -12.21875 5.625 C-14.62454889 9.69635198 -15.21422977 12.7966943 -15.5625 17.4375 C-15.63533203 18.17355469 -15.70816406 18.90960938 -15.78320312 19.66796875 C-15.95817669 21.46436406 -16.1068325 23.26329047 -16.25 25.0625 C-16.58 25.0625 -16.91 25.0625 -17.25 25.0625 C-17.69116571 7.39136233 -17.69116571 7.39136233 -13.875 2.1875 C-9.77287776 -0.65243078 -4.78673487 -0.05497134 0 0 Z " fill="#E5D6C1" transform="translate(28.25,22.9375)"/>
<path d="M0 0 C5.875 4.75 5.875 4.75 7 7 C15.58 7 24.16 7 33 7 C33 7.33 33 7.66 33 8 C32.13048706 8.029729 32.13048706 8.029729 31.2434082 8.06005859 C28.59934063 8.15572601 25.9560183 8.26523453 23.3125 8.375 C22.40048828 8.4059375 21.48847656 8.436875 20.54882812 8.46875 C14.0317932 8.70153086 14.0317932 8.70153086 8 11 C5.70422757 13.51406311 5.70422757 13.51406311 4 16 C4.103125 14.824375 4.20625 13.64875 4.3125 12.4375 C4.35811191 7.31984416 2.2051214 4.84614568 -1 1 C-0.67 0.67 -0.34 0.34 0 0 Z " fill="#80420B" transform="translate(7,15)"/>
<path d="M0 0 C0.66 0 1.32 0 2 0 C2.45375 0.639375 2.9075 1.27875 3.375 1.9375 C5.34171489 4.43371505 5.93139228 4.46987508 9 5 C11.4138176 5.22117559 13.83114597 5.40572242 16.25 5.5625 C17.51328125 5.64628906 18.7765625 5.73007812 20.078125 5.81640625 C21.04234375 5.87699219 22.0065625 5.93757813 23 6 C23 6.33 23 6.66 23 7 C22.41508789 6.97381592 21.83017578 6.94763184 21.22753906 6.9206543 C18.56863434 6.81650244 15.91015856 6.75162228 13.25 6.6875 C12.32960938 6.64560547 11.40921875 6.60371094 10.4609375 6.56054688 C4.82787201 6.34875438 4.82787201 6.34875438 0.359375 9.51953125 C-0.08921875 10.33808594 -0.5378125 11.15664062 -1 12 C-0.34 12.66 0.32 13.32 1 14 C-1.4375 13.625 -1.4375 13.625 -4 13 C-4.33 12.34 -4.66 11.68 -5 11 C-3.7625 9.948125 -3.7625 9.948125 -2.5 8.875 C0.30423396 6.21372773 0.30423396 6.21372773 0.3125 2.6875 C0.209375 1.800625 0.10625 0.91375 0 0 Z " fill="#7E3D05" transform="translate(11,55)"/>
<path d="M0 0 C1.27310312 0.93441535 2.543388 1.87267111 3.8125 2.8125 C4.52019531 3.33457031 5.22789063 3.85664063 5.95703125 4.39453125 C7.78531393 5.83128877 9.39896688 7.31815763 11 9 C10.67 9.99 10.34 10.98 10 12 C9.51789062 11.4946875 9.03578125 10.989375 8.5390625 10.46875 C7.90742187 9.8190625 7.27578125 9.169375 6.625 8.5 C5.99851562 7.8503125 5.37203125 7.200625 4.7265625 6.53125 C3.13524093 4.77882569 3.13524093 4.77882569 1 5 C0.67 5.66 0.34 6.32 0 7 C-2.97 6.67 -5.94 6.34 -9 6 C-8.67 5.01 -8.34 4.02 -8 3 C-6.576875 3.0928125 -6.576875 3.0928125 -5.125 3.1875 C-3.578125 3.0946875 -3.578125 3.0946875 -2 3 C-1.34 2.01 -0.68 1.02 0 0 Z " fill="#F6BD0C" transform="translate(54,21)"/>
<path d="M0 0 C7.33695652 5.86956522 7.33695652 5.86956522 9 9 C8.65576552 13.45259811 6.94627409 15.61269263 3.9375 18.8125 C2.83728516 19.99779297 2.83728516 19.99779297 1.71484375 21.20703125 C1.14894531 21.79871094 0.58304687 22.39039062 0 23 C-0.66 22.67 -1.32 22.34 -2 22 C-1.566875 21.5875 -1.13375 21.175 -0.6875 20.75 C2.29889254 17.65300033 4.43982466 15.30237399 4.625 10.875 C3.94391675 6.65228384 2.87985049 5.05984114 0 2 C0 1.34 0 0.68 0 0 Z " fill="#FAF3E2" transform="translate(65,31)"/>
<path d="M0 0 C3.35864456 0.57454686 4.87315287 1.54240383 7.13671875 4.0625 C7.99692627 5.0050061 7.99692627 5.0050061 8.87451172 5.96655273 C9.47279785 6.63759033 10.07108398 7.30862793 10.6875 8 C11.93233119 9.36703618 13.17842542 10.73292329 14.42578125 12.09765625 C15.03244629 12.7642627 15.63911133 13.43086914 16.26416016 14.11767578 C19.72098935 17.86622052 23.35163537 21.43850119 27 25 C23.3342585 25 22.50979632 23.85965858 20.00093079 21.36647034 C19.49144394 20.84463669 18.98195709 20.32280304 18.45703125 19.78515625 C17.92857101 19.25482285 17.40011078 18.72448944 16.8556366 18.17808533 C15.74016214 17.05588736 14.62829202 15.93009687 13.51977539 14.80102539 C11.81583242 13.06589341 10.101416 11.34169268 8.38476562 9.61914062 C7.30406049 8.52926721 6.22396116 7.43879268 5.14453125 6.34765625 C4.62897171 5.82784683 4.11341217 5.30803741 3.58222961 4.7724762 C0 1.11714689 0 1.11714689 0 0 Z " fill="#FC9F0E" transform="translate(35,26)"/>
<path d="M0 0 C0.99 0.33 1.98 0.66 3 1 C-2.14561528 8.27059634 -8.02619183 14.4602751 -15 20 C-15.66 20 -16.32 20 -17 20 C-15.59896549 16.71900591 -14.00653684 14.92585065 -11.25 12.6875 C-6.95396345 9.05660572 -2.54785537 5.09571074 0 0 Z " fill="#884708" transform="translate(73,43)"/>
<path d="M0 0 C2.12632393 3.54387321 2.70187643 6.90080096 3 11 C2.01 12.485 2.01 12.485 1 14 C-1.609621 14.38411275 -4.0058074 14.60293197 -6.625 14.6875 C-7.68460938 14.73874023 -7.68460938 14.73874023 -8.765625 14.79101562 C-10.50985688 14.87351308 -12.25490395 14.93843335 -14 15 C-10.93753253 13.21590198 -8.77920727 12.77119979 -5.25 12.875 C-4.45078125 12.89304687 -3.6515625 12.91109375 -2.828125 12.9296875 C-2.22484375 12.95289063 -1.6215625 12.97609375 -1 13 C-1.99 10.69 -2.98 8.38 -4 6 C-2.68 6 -1.36 6 0 6 C0 4.02 0 2.04 0 0 Z " fill="#9D5E0E" transform="translate(50,9)"/>
<path d="M0 0 C2.00720923 0.28674418 4.0085944 0.61866701 6 1 C6.33 2.65 6.66 4.3 7 6 C6.01 5.34 5.02 4.68 4 4 C1.67733918 3.72487581 1.67733918 3.72487581 -0.88671875 3.8046875 C-1.82451172 3.81113281 -2.76230469 3.81757812 -3.72851562 3.82421875 C-4.70498047 3.84097656 -5.68144531 3.85773437 -6.6875 3.875 C-8.16959961 3.88853516 -8.16959961 3.88853516 -9.68164062 3.90234375 C-12.12133765 3.9259157 -14.56054697 3.95881978 -17 4 C-17 3.67 -17 3.34 -17 3 C-15.85660156 2.86722656 -14.71320312 2.73445313 -13.53515625 2.59765625 C-12.0442438 2.4194969 -10.55335982 2.24109918 -9.0625 2.0625 C-7.93038086 1.93198242 -7.93038086 1.93198242 -6.77539062 1.79882812 C-3.07812542 1.65675901 -3.07812542 1.65675901 0 0 Z " fill="#F9E9B5" transform="translate(48,56)"/>
<path d="M0 0 C0.66 0 1.32 0 2 0 C1.68985608 2.08368538 1.3767948 4.16693668 1.0625 6.25 C0.88847656 7.41015625 0.71445312 8.5703125 0.53515625 9.765625 C0.1272264 12.23106961 -0.33901303 14.59424562 -1 17 C-1.66 17 -2.32 17 -3 17 C-4.20272819 14.59454362 -4.10071472 13.05003047 -4.0625 10.375 C-4.05347656 9.55773437 -4.04445312 8.74046875 -4.03515625 7.8984375 C-4.02355469 7.27195312 -4.01195312 6.64546875 -4 6 C-3.01 7.485 -3.01 7.485 -2 9 C-1.34 6.03 -0.68 3.06 0 0 Z " fill="#7C3D05" transform="translate(53,63)"/>
<path d="M0 0 C4.00281475 0.53919194 5.85442573 2.48169585 8.625 5.3125 C9.40101562 6.09238281 10.17703125 6.87226563 10.9765625 7.67578125 C12.77877889 9.74589467 13.93283572 11.49273768 15 14 C12 14 12 14 9.84375 11.953125 C9.0703125 11.06109375 8.296875 10.1690625 7.5 9.25 C6.7265625 8.36828125 5.953125 7.4865625 5.15625 6.578125 C3.3600899 4.43054227 1.64860458 2.2615473 0 0 Z " fill="#905921" transform="translate(60,25)"/>
<path d="M0 0 C2.97 0.495 2.97 0.495 6 1 C6.33 2.65 6.66 4.3 7 6 C6.01 5.34 5.02 4.68 4 4 C2.0103005 3.60986284 0.00980131 3.26797351 -2 3 C-1.34 2.01 -0.68 1.02 0 0 Z " fill="#F9ECCC" transform="translate(48,56)"/>
<path d="M0 0 C0.99 0.33 1.98 0.66 3 1 C0.03 4.96 0.03 4.96 -3 9 C-3.99 8.67 -4.98 8.34 -6 8 C-4.02 5.36 -2.04 2.72 0 0 Z " fill="#91531B" transform="translate(73,43)"/>
<path d="M0 0 C0.66 0.66 1.32 1.32 2 2 C0.02 3.98 -1.96 5.96 -4 8 C-4.66 7.67 -5.32 7.34 -6 7 C-4.02 4.69 -2.04 2.38 0 0 Z " fill="#F8EDD0" transform="translate(69,46)"/>
</svg>
