<svg xmlns="http://www.w3.org/2000/svg" xmlns:xlink="http://www.w3.org/1999/xlink" width="40" zoomAndPan="magnify" viewBox="0 0 30 30.000001" height="40" preserveAspectRatio="xMidYMid meet" version="1.2"><defs><clipPath id="4ec46e30d7"><path d="M 1 0 L 29.515625 0 L 29.515625 29 L 1 29 Z M 1 0 "/></clipPath><clipPath id="04657556b2"><path d="M 14 5.804688 L 16 5.804688 L 16 7 L 14 7 Z M 14 5.804688 "/></clipPath><clipPath id="9b4eb04d88"><path d="M 7.019531 5.804688 L 23.714844 5.804688 L 23.714844 23.226562 L 7.019531 23.226562 Z M 7.019531 5.804688 "/></clipPath><clipPath id="631976f4d0"><path d="M 15 5 L 21 5 L 21 11 L 15 11 Z M 15 5 "/></clipPath><clipPath id="eafd2a10e3"><path d="M 15.996094 3.820312 L 23.625 8.019531 L 15.226562 23.28125 L 7.59375 19.078125 Z M 15.996094 3.820312 "/></clipPath><clipPath id="658e34a9f4"><path d="M 15.996094 3.820312 L 23.625 8.019531 L 15.226562 23.28125 L 7.59375 19.078125 Z M 15.996094 3.820312 "/></clipPath><clipPath id="e93b68f05c"><path d="M 13 8 L 21 8 L 21 14 L 13 14 Z M 13 8 "/></clipPath><clipPath id="dd2240db06"><path d="M 15.996094 3.820312 L 23.625 8.019531 L 15.226562 23.28125 L 7.59375 19.078125 Z M 15.996094 3.820312 "/></clipPath><clipPath id="b8fd3b37c0"><path d="M 15.996094 3.820312 L 23.625 8.019531 L 15.226562 23.28125 L 7.59375 19.078125 Z M 15.996094 3.820312 "/></clipPath><clipPath id="af58ceb61c"><path d="M 8 10 L 20 10 L 20 23 L 8 23 Z M 8 10 "/></clipPath><clipPath id="c401385a0b"><path d="M 15.996094 3.820312 L 23.625 8.019531 L 15.226562 23.28125 L 7.59375 19.078125 Z M 15.996094 3.820312 "/></clipPath><clipPath id="00a5c51006"><path d="M 15.996094 3.820312 L 23.625 8.019531 L 15.226562 23.28125 L 7.59375 19.078125 Z M 15.996094 3.820312 "/></clipPath></defs><g id="44db8cba2d"><g clip-rule="nonzero" clip-path="url(#4ec46e30d7)"><path style=" stroke:none;fill-rule:evenodd;fill:#0f3a67;fill-opacity:1;" d="M 29.375 14.65625 C 28.527344 32.535156 2.199219 32.535156 1.355469 14.65625 C 0.484375 -3.734375 30.242188 -3.734375 29.375 14.65625 Z M 29.375 14.65625 "/></g><path style=" stroke:none;fill-rule:evenodd;fill:#1e87c9;fill-opacity:1;" d="M 27.539062 14.039062 C 26.785156 29.972656 3.324219 29.972656 2.570312 14.039062 C 1.792969 -2.351562 28.316406 -2.351562 27.539062 14.039062 Z M 27.539062 14.039062 "/><path style=" stroke:none;fill-rule:evenodd;fill:#38b7fa;fill-opacity:1;" d="M 4.183594 19.945312 C 3.261719 18.308594 2.679688 16.339844 2.570312 14.039062 C 1.832031 -1.546875 25.773438 -2.3125 27.460938 11.742188 C 25.367188 23.347656 11.722656 26.082031 4.183594 19.945312 Z M 4.183594 19.945312 "/><path style=" stroke:none;fill-rule:evenodd;fill:#fcf8f9;fill-opacity:1;" d="M 7.601562 8.371094 C 9.027344 5.964844 7.667969 3.9375 5.402344 7.15625 C 3.109375 10.40625 5.511719 11.898438 7.601562 8.371094 Z M 9.6875 4.152344 C 10.183594 4.292969 10.453125 4.632812 10.308594 5.125 C 10.164062 5.613281 9.644531 5.894531 9.144531 5.753906 C 8.648438 5.613281 8.464844 5.148438 8.609375 4.660156 C 8.75 4.171875 9.1875 4.007812 9.6875 4.152344 Z M 9.6875 4.152344 "/><path style=" stroke:none;fill-rule:evenodd;fill:#16273d;fill-opacity:1;" d="M 15.054688 18.75 C 15.054688 18.75 12.179688 21.007812 10.65625 20.355469 C 9.132812 19.703125 10.765625 15.644531 10.765625 15.644531 C 10.765625 15.644531 8.09375 14.273438 7.894531 12.582031 C 7.695312 10.886719 12.488281 10.972656 12.488281 10.972656 C 12.488281 10.972656 12.84375 7.433594 15.054688 7.257812 C 17.265625 7.433594 17.621094 10.972656 17.621094 10.972656 C 17.621094 10.972656 22.414062 10.886719 22.214844 12.582031 C 22.015625 14.273438 19.34375 15.644531 19.34375 15.644531 C 19.34375 15.644531 20.976562 19.703125 19.453125 20.355469 C 17.929688 21.007812 15.054688 18.75 15.054688 18.75 Z M 15.054688 18.75 "/><path style=" stroke:none;fill-rule:evenodd;fill:#0f3a67;fill-opacity:1;" d="M 15.054688 18.75 C 15.054688 18.75 12.179688 21.007812 10.65625 20.355469 C 10.269531 20.191406 10.085938 19.808594 10.027344 19.328125 C 10.152344 17.996094 10.765625 16.472656 10.765625 16.472656 L 10.765625 15.644531 C 10.765625 15.644531 8.472656 14.46875 7.976562 12.949219 C 8.613281 11.730469 12.488281 11.800781 12.488281 11.800781 C 12.488281 11.800781 12.84375 8.261719 15.054688 8.089844 C 17.265625 8.261719 17.621094 11.800781 17.621094 11.800781 C 17.621094 11.800781 21.496094 11.730469 22.132812 12.949219 C 21.636719 14.46875 19.34375 15.644531 19.34375 15.644531 L 19.34375 16.472656 C 19.34375 16.472656 19.957031 17.996094 20.082031 19.328125 C 20.023438 19.808594 19.839844 20.191406 19.453125 20.355469 C 17.929688 21.007812 15.054688 18.75 15.054688 18.75 Z M 15.054688 18.75 "/><g clip-rule="nonzero" clip-path="url(#04657556b2)"><path style=" stroke:none;fill-rule:nonzero;fill:#38b7fa;fill-opacity:1;" d="M 14.894531 6.011719 L 15.59375 5.941406 C 15.359375 5.957031 15.125 5.980469 14.894531 6.011719 Z M 14.894531 6.011719 "/></g><g clip-rule="nonzero" clip-path="url(#9b4eb04d88)"><path style=" stroke:none;fill-rule:nonzero;fill:#38b7fa;fill-opacity:1;" d="M 23.296875 14.988281 C 23.238281 13.351562 22.917969 11.8125 22.324219 10.285156 C 21.734375 8.761719 20.636719 7.480469 19.214844 6.664062 C 18.796875 6.421875 17.992188 6.160156 17.488281 6.082031 C 15.785156 5.8125 15.828125 5.957031 14.890625 6.015625 C 13.90625 6.15625 12.9375 6.421875 12.023438 6.816406 C 11.023438 7.238281 10.078125 7.820312 9.308594 8.601562 C 8.019531 9.917969 7.3125 11.742188 7.164062 13.578125 C 7.019531 15.417969 7.222656 17.257812 7.898438 18.972656 C 8.527344 20.570312 9.359375 21.347656 10.820312 22.28125 C 11.308594 22.59375 12.472656 23.054688 13.050781 23.105469 C 13.847656 23.179688 14.65625 23.222656 15.453125 23.148438 C 17.164062 22.992188 18.621094 22.367188 20.101562 21.492188 C 20.738281 21.117188 21.800781 20.011719 22.195312 19.378906 C 23.164062 17.835938 23.363281 16.722656 23.296875 14.988281 Z M 23.296875 14.988281 "/></g><g clip-rule="nonzero" clip-path="url(#631976f4d0)"><g clip-rule="nonzero" clip-path="url(#eafd2a10e3)"><g clip-rule="nonzero" clip-path="url(#658e34a9f4)"><path style=" stroke:none;fill-rule:nonzero;fill:#16273d;fill-opacity:1;" d="M 19.535156 8.246094 L 20.117188 7.191406 C 20.371094 6.726562 20.164062 6.113281 19.65625 5.835938 C 19.144531 5.554688 18.515625 5.707031 18.261719 6.171875 L 17.679688 7.226562 C 16.820312 7.203125 15.925781 7.644531 15.277344 8.417969 L 19.8125 10.914062 C 20.121094 9.953125 20.015625 8.964844 19.535156 8.246094 "/></g></g></g><g clip-rule="nonzero" clip-path="url(#e93b68f05c)"><g clip-rule="nonzero" clip-path="url(#dd2240db06)"><g clip-rule="nonzero" clip-path="url(#b8fd3b37c0)"><path style=" stroke:none;fill-rule:nonzero;fill:#16273d;fill-opacity:1;" d="M 13.539062 10.21875 C 13.535156 10.21875 13.535156 10.21875 13.53125 10.21875 L 19.222656 13.351562 C 19.222656 13.351562 19.222656 13.351562 19.222656 13.347656 C 19.546875 13.476562 19.925781 13.347656 20.097656 13.035156 L 20.5 12.308594 C 20.6875 11.96875 20.5625 11.535156 20.222656 11.347656 C 17.683594 9.953125 17.207031 9.691406 14.691406 8.304688 C 14.351562 8.117188 13.921875 8.242188 13.734375 8.582031 L 13.332031 9.308594 C 13.160156 9.625 13.257812 10.015625 13.539062 10.21875 "/></g></g></g><g clip-rule="nonzero" clip-path="url(#af58ceb61c)"><g clip-rule="nonzero" clip-path="url(#c401385a0b)"><g clip-rule="nonzero" clip-path="url(#00a5c51006)"><path style=" stroke:none;fill-rule:nonzero;fill:#16273d;fill-opacity:1;" d="M 9.226562 17.65625 C 10.152344 15.640625 11.257812 13.660156 12.34375 11.851562 C 12.625 11.378906 13.144531 11.277344 13.414062 11.335938 C 12.265625 11.257812 12.375 12.796875 9.226562 17.65625 Z M 19.332031 13.617188 L 13.25 10.273438 C 12.707031 10.40625 12.214844 10.757812 11.925781 11.285156 L 8.632812 17.269531 C 8.078125 18.273438 8.449219 19.550781 9.453125 20.101562 L 13.054688 22.085938 C 14.0625 22.640625 15.335938 22.269531 15.890625 21.265625 L 19.183594 15.28125 C 19.472656 14.753906 19.507812 14.152344 19.332031 13.617188 "/></g></g></g></g></svg>