<?xml version="1.0" encoding="UTF-8" standalone="no"?>
<!DOCTYPE svg PUBLIC "-//W3C//DTD SVG 1.1//EN" "http://www.w3.org/Graphics/SVG/1.1/DTD/svg11.dtd">
<svg width="76.00" height="74.00" viewBox="0.00 0.00 76.00 74.00" xmlns="http://www.w3.org/2000/svg" xmlns:xlink="http://www.w3.org/1999/xlink">
<g stroke-linecap="round" transform="translate(-827.00, -249.00)" id="Layer_5">
<path d="M892.98,260.74 L836.36,261.16" fill="none" stroke="rgb(255, 185, 0)" stroke-width="15.00" stroke-opacity="1.00" stroke-linejoin="round"/>
<path d="M836.36,261.16 L836.36,261.16" fill="none" stroke="rgb(255, 185, 0)" stroke-width="15.00" stroke-opacity="1.00" stroke-linejoin="round"/>
<path d="M839.67,258.26 L888.02,259.50" fill="none" stroke="rgb(255, 185, 0)" stroke-width="15.00" stroke-opacity="1.00" stroke-linejoin="round"/>
<path d="M888.02,259.50 L888.02,259.50" fill="none" stroke="rgb(255, 185, 0)" stroke-width="15.00" stroke-opacity="1.00" stroke-linejoin="round"/>
<path d="M890.91,261.98 L891.74,313.22" fill="none" stroke="rgb(255, 185, 0)" stroke-width="15.00" stroke-opacity="1.00" stroke-linejoin="round"/>
<path d="M894.21,264.46 L894.21,309.09" fill="none" stroke="rgb(255, 185, 0)" stroke-width="15.00" stroke-opacity="1.00" stroke-linejoin="round"/>
<path d="M894.21,309.09 L894.21,309.09" fill="none" stroke="rgb(255, 185, 0)" stroke-width="15.00" stroke-opacity="1.00" stroke-linejoin="round"/>
<path d="M836.36,264.46 L837.19,311.16" fill="none" stroke="rgb(255, 185, 0)" stroke-width="15.00" stroke-opacity="1.00" stroke-linejoin="round"/>
<path d="M837.19,311.16 L837.19,311.16" fill="none" stroke="rgb(255, 185, 0)" stroke-width="15.00" stroke-opacity="1.00" stroke-linejoin="round"/>
<path d="M842.15,313.64 L886.36,312.81" fill="none" stroke="rgb(255, 185, 0)" stroke-width="15.00" stroke-opacity="1.00" stroke-linejoin="round"/>
<path d="M886.36,312.81 L886.36,312.81" fill="none" stroke="rgb(255, 185, 0)" stroke-width="15.00" stroke-opacity="1.00" stroke-linejoin="round"/>
<path d="M888.02,302.89 L841.32,304.55" fill="none" stroke="rgb(255, 185, 0)" stroke-width="15.00" stroke-opacity="1.00" stroke-linejoin="round"/>
<path d="M841.32,304.55 L841.32,304.55" fill="none" stroke="rgb(255, 185, 0)" stroke-width="15.00" stroke-opacity="1.00" stroke-linejoin="round"/>
<path d="M840.91,297.11 L884.30,297.52" fill="none" stroke="rgb(255, 185, 0)" stroke-width="15.00" stroke-opacity="1.00" stroke-linejoin="round"/>
<path d="M884.30,297.52 L884.30,297.52" fill="none" stroke="rgb(255, 185, 0)" stroke-width="15.00" stroke-opacity="1.00" stroke-linejoin="round"/>
<path d="M840.91,284.71 L883.47,286.78" fill="none" stroke="rgb(255, 185, 0)" stroke-width="15.00" stroke-opacity="1.00" stroke-linejoin="round"/>
<path d="M883.47,286.78 L883.47,286.78" fill="none" stroke="rgb(255, 185, 0)" stroke-width="15.00" stroke-opacity="1.00" stroke-linejoin="round"/>
<path d="M840.08,275.62 L885.54,278.93" fill="none" stroke="rgb(255, 185, 0)" stroke-width="15.00" stroke-opacity="1.00" stroke-linejoin="round"/>
<path d="M885.54,278.93 L885.54,278.93" fill="none" stroke="rgb(255, 185, 0)" stroke-width="15.00" stroke-opacity="1.00" stroke-linejoin="round"/>
<path d="M841.32,270.25 L884.30,272.31" fill="none" stroke="rgb(255, 185, 0)" stroke-width="15.00" stroke-opacity="1.00" stroke-linejoin="round"/>
<path d="M884.30,272.31 L884.30,272.31" fill="none" stroke="rgb(255, 185, 0)" stroke-width="15.00" stroke-opacity="1.00" stroke-linejoin="round"/>
<path d="M849.65,255.31 Q864.97,255.31 880.29,255.31 Q896.80,255.31 896.80,271.50 Q896.80,286.53 896.80,301.56 Q896.80,317.75 880.29,317.75 Q864.97,317.75 849.65,317.75 Q833.15,317.75 833.15,301.56 Q833.15,286.53 833.15,271.50 Q833.15,255.31 849.65,255.31 Z" fill="none" stroke="rgb(253, 143, 1)" stroke-width="3.00" stroke-opacity="0.99" stroke-linejoin="round"/>
<path d="M848.51,251.24 Q864.88,251.24 881.24,251.24 Q901.24,251.24 901.24,271.24 Q901.24,286.36 901.24,301.49 Q901.24,321.49 881.24,321.49 Q864.88,321.49 848.51,321.49 Q828.51,321.49 828.51,301.49 Q828.51,286.36 828.51,271.24 Q828.51,251.24 848.51,251.24 Z" fill="none" stroke="rgb(255, 143, 0)" stroke-width="4.00" stroke-opacity="0.99" stroke-linejoin="round"/>
<path d="M883.33,254.44 Q843.33,250.83 834.17,259.44" fill="none" stroke="rgb(255, 185, 0)" stroke-width="3.00" stroke-opacity="1.00" stroke-linejoin="round"/>
<path d="M832.50,310.00 Q832.22,322.22 873.61,318.89" fill="none" stroke="rgb(255, 185, 0)" stroke-width="3.00" stroke-opacity="1.00" stroke-linejoin="round"/>
<path d="M831.00,292.50 Q831.75,265.25 831.75,265.25" fill="none" stroke="rgb(254, 238, 90)" stroke-width="3.00" stroke-opacity="1.00" stroke-linejoin="round"/>
<path d="M859.00,253.50 Q840.00,252.75 836.25,257.50" fill="none" stroke="rgb(254, 238, 90)" stroke-width="3.00" stroke-opacity="1.00" stroke-linejoin="round"/>
<path d="M831.50,267.00 Q832.25,259.00 838.25,256.25" fill="none" stroke="rgb(254, 238, 90)" stroke-width="3.00" stroke-opacity="1.00" stroke-linejoin="round"/>
<path d="M834.50,300.00 Q835.25,317.00 852.75,315.75" fill="none" stroke="rgb(254, 238, 90)" stroke-width="3.00" stroke-opacity="1.00" stroke-linejoin="round"/>
<path d="M835.00,288.50 Q834.25,302.50 834.25,302.50" fill="none" stroke="rgb(254, 238, 90)" stroke-width="2.00" stroke-opacity="1.00" stroke-linejoin="round"/>
<path d="M851.00,316.00 Q871.50,316.00 871.50,316.00" fill="none" stroke="rgb(254, 238, 90)" stroke-width="2.00" stroke-opacity="1.00" stroke-linejoin="round"/>
<path d="M835.25,293.00 Q838.25,316.00 867.50,315.75" fill="none" stroke="rgb(254, 238, 90)" stroke-width="3.00" stroke-opacity="1.00" stroke-linejoin="round"/>
<path d="M836.00,296.75 Q836.50,315.25 860.75,316.00" fill="none" stroke="rgb(254, 238, 90)" stroke-width="4.00" stroke-opacity="1.00" stroke-linejoin="round"/>
<path d="M836.50,306.00 Q841.75,314.50 852.50,314.75" fill="none" stroke="rgb(254, 238, 90)" stroke-width="4.00" stroke-opacity="1.00" stroke-linejoin="round"/>
<path d="M831.25,290.75 Q829.75,300.50 830.50,302.75" fill="none" stroke="rgb(254, 238, 90)" stroke-width="2.00" stroke-opacity="1.00" stroke-linejoin="round"/>
<path d="M855.75,253.75 Q863.00,251.75 878.00,253.00" fill="none" stroke="rgb(254, 238, 90)" stroke-width="2.00" stroke-opacity="1.00" stroke-linejoin="round"/>
<path d="M832.50,261.75 Q835.75,257.50 837.75,256.25" fill="none" stroke="rgb(255, 255, 255)" stroke-width="3.00" stroke-opacity="1.00" stroke-linejoin="round"/>
<path d="M841.00,254.75 Q840.75,254.75 840.75,254.75" fill="none" stroke="rgb(255, 255, 255)" stroke-width="3.00" stroke-opacity="1.00" stroke-linejoin="round"/>
<path d="M835.00,293.75 Q834.25,274.00 834.25,266.75" fill="none" stroke="rgb(254, 237, 89)" stroke-width="2.00" stroke-opacity="1.00" stroke-linejoin="round"/>
<path d="M890.00,313.75 Q882.00,317.25 864.50,315.50" fill="none" stroke="rgb(254, 237, 89)" stroke-width="2.00" stroke-opacity="1.00" stroke-linejoin="round"/>
<path d="M833.75,271.00 Q834.25,262.25 837.50,260.25" fill="none" stroke="rgb(253, 150, 1)" stroke-width="2.00" stroke-opacity="1.00" stroke-linejoin="round"/>
<path d="M883.25,254.50 Q898.25,255.25 897.50,273.00" fill="none" stroke="rgb(253, 124, 1)" stroke-width="2.50" stroke-opacity="1.00" stroke-linejoin="round"/>
<path d="M883.75,254.25 Q857.25,255.25 857.25,255.25" fill="none" stroke="rgb(253, 124, 1)" stroke-width="2.00" stroke-opacity="1.00" stroke-linejoin="round"/>
<path d="M897.50,272.00 Q897.25,292.25 897.25,292.25" fill="none" stroke="rgb(253, 124, 1)" stroke-width="2.00" stroke-opacity="1.00" stroke-linejoin="round"/>
<path d="M832.50,303.25 Q833.75,320.25 850.00,318.25" fill="none" stroke="rgb(253, 124, 1)" stroke-width="2.00" stroke-opacity="1.00" stroke-linejoin="round"/>
<path d="M850.00,318.50 Q884.50,318.75 884.50,318.75" fill="none" stroke="rgb(253, 124, 1)" stroke-width="2.00" stroke-opacity="1.00" stroke-linejoin="round"/>
<path d="M880.25,253.50 Q847.25,254.75 847.25,254.75" fill="none" stroke="rgb(255, 185, 0)" stroke-width="2.00" stroke-opacity="1.00" stroke-linejoin="round"/>
<path d="M881.50,251.25 Q843.25,252.25 843.25,252.25" fill="none" stroke="rgb(252, 144, 2)" stroke-width="2.00" stroke-opacity="1.00" stroke-linejoin="round"/>
<path d="M869.70,256.57 Q893.43,256.06 895.20,281.57" fill="none" stroke="rgb(254, 234, 84)" stroke-width="2.50" stroke-opacity="1.00" stroke-linejoin="round"/>
<path d="M883.33,256.57 Q845.45,255.05 840.15,258.33" fill="none" stroke="rgb(254, 234, 84)" stroke-width="1.50" stroke-opacity="1.00" stroke-linejoin="round"/>
<path d="M893.69,266.16 Q897.73,296.21 894.70,306.31" fill="none" stroke="rgb(254, 234, 84)" stroke-width="1.50" stroke-opacity="1.00" stroke-linejoin="round"/>
<path d="M880.30,256.57 Q893.43,262.12 895.45,275.25" fill="none" stroke="rgb(254, 234, 84)" stroke-width="3.00" stroke-opacity="1.00" stroke-linejoin="round"/>
<path d="M895.20,268.94 Q893.18,255.05 882.32,257.83" fill="none" stroke="rgb(254, 234, 84)" stroke-width="3.00" stroke-opacity="1.00" stroke-linejoin="round"/>
<path d="M894.44,268.69 Q890.40,258.08 886.11,258.59" fill="none" stroke="rgb(254, 234, 84)" stroke-width="3.00" stroke-opacity="1.00" stroke-linejoin="round"/>
<path d="M892.42,263.64 Q886.36,258.84 886.36,258.84" fill="none" stroke="rgb(254, 234, 84)" stroke-width="3.00" stroke-opacity="1.00" stroke-linejoin="round"/>
<path d="M894.70,267.68 Q894.95,289.65 894.95,289.65" fill="none" stroke="rgb(254, 234, 84)" stroke-width="2.00" stroke-opacity="1.00" stroke-linejoin="round"/>
<path d="M885.10,258.59 Q870.20,254.04 843.69,256.82" fill="none" stroke="rgb(254, 234, 84)" stroke-width="2.00" stroke-opacity="1.00" stroke-linejoin="round"/>
<path d="M844.70,257.32 Q839.14,257.83 836.11,264.39" fill="none" stroke="rgb(254, 234, 84)" stroke-width="1.00" stroke-opacity="1.00" stroke-linejoin="round"/>
</g>
</svg>
