<svg xmlns="http://www.w3.org/2000/svg" xmlns:xlink="http://www.w3.org/1999/xlink" width="300" zoomAndPan="magnify" viewBox="0 0 224.87999 44.999999" height="60" preserveAspectRatio="xMidYMid meet" version="1.2"><defs><clipPath id="a4ac8bb6f7"><path d="M 14.246094 6.167969 L 218 6.167969 L 218 39 L 14.246094 39 Z M 14.246094 6.167969 "/></clipPath><clipPath id="1b84f12a6d"><path d="M 14.246094 6.167969 L 218.449219 6.167969 L 218.449219 39 L 14.246094 39 Z M 14.246094 6.167969 "/></clipPath><clipPath id="c171fb13cf"><path d="M 157.667969 7.179688 L 197.398438 7.179688 L 197.398438 19.429688 L 157.667969 19.429688 Z M 157.667969 7.179688 "/></clipPath><clipPath id="ece5733be4"><path d="M 161.09375 7.179688 L 197.375 7.179688 L 193.945312 19.429688 L 157.667969 19.429688 Z M 161.09375 7.179688 "/></clipPath><clipPath id="61fc94e902"><path d="M 188.011719 7.179688 L 202.160156 7.179688 L 202.160156 19.429688 L 188.011719 19.429688 Z M 188.011719 7.179688 "/></clipPath><clipPath id="d6962bdb9e"><path d="M 25.621094 10.628906 L 207.042969 10.628906 L 207.042969 33.414062 L 25.621094 33.414062 Z M 25.621094 10.628906 "/></clipPath><filter x="0%" y="0%" width="100%" filterUnits="objectBoundingBox" id="5361ca7fea" height="100%"><feColorMatrix values="0 0 0 0 1 0 0 0 0 1 0 0 0 0 1 0 0 0 1 0" type="matrix" in="SourceGraphic"/></filter><clipPath id="12cbc0cabb"><path d="M 0.667969 0.628906 L 182 0.628906 L 182 23.355469 L 0.667969 23.355469 Z M 0.667969 0.628906 "/></clipPath><clipPath id="4c1a36126e"><rect x="0" width="183" y="0" height="24"/></clipPath><clipPath id="459bccaae6"><path d="M 0.667969 0.628906 L 182 0.628906 L 182 23.355469 L 0.667969 23.355469 Z M 0.667969 0.628906 "/></clipPath><clipPath id="dc650e1a43"><rect x="0" width="183" y="0" height="24"/></clipPath><clipPath id="d684e8ab45"><path d="M 0.667969 0.628906 L 182 0.628906 L 182 23.355469 L 0.667969 23.355469 Z M 0.667969 0.628906 "/></clipPath><clipPath id="e7c753ff42"><rect x="0" width="183" y="0" height="24"/></clipPath><clipPath id="0499e05729"><path d="M 95 7.179688 L 104.277344 7.179688 L 104.277344 10.554688 L 95 10.554688 Z M 95 7.179688 "/></clipPath><clipPath id="0a39aa5415"><path d="M 89 7 L 94 7 L 94 11 L 89 11 Z M 89 7 "/></clipPath><clipPath id="2b126ea5a5"><path d="M 92.242188 6.53125 L 93.371094 9.710938 L 90.191406 10.84375 L 89.0625 7.660156 Z M 92.242188 6.53125 "/></clipPath><clipPath id="dc4a319ea6"><path d="M 92.242188 6.53125 L 93.371094 9.710938 L 90.191406 10.84375 L 89.0625 7.660156 Z M 92.242188 6.53125 "/></clipPath><clipPath id="2eb8604f1e"><path d="M 13 8 L 41 8 L 41 41 L 13 41 Z M 13 8 "/></clipPath><clipPath id="7f4e2586c1"><path d="M 0.957031 4.527344 L 38.800781 -0.902344 L 44.335938 37.683594 L 6.492188 43.113281 Z M 0.957031 4.527344 "/></clipPath><clipPath id="7beeeb8b76"><path d="M 0.957031 4.527344 L 38.800781 -0.902344 L 44.335938 37.683594 L 6.492188 43.113281 Z M 0.957031 4.527344 "/></clipPath><clipPath id="2d7c1db5d2"><path d="M 0.957031 4.527344 L 38.800781 -0.902344 L 44.335938 37.683594 L 6.492188 43.113281 Z M 0.957031 4.527344 "/></clipPath><clipPath id="820cfcd443"><path d="M 4 9 L 38 9 L 38 40 L 4 40 Z M 4 9 "/></clipPath><clipPath id="339c2d2348"><path d="M 0.957031 4.527344 L 38.800781 -0.902344 L 44.335938 37.683594 L 6.492188 43.113281 Z M 0.957031 4.527344 "/></clipPath><clipPath id="d7619bb2e0"><path d="M 0.957031 4.527344 L 38.800781 -0.902344 L 44.335938 37.683594 L 6.492188 43.113281 Z M 0.957031 4.527344 "/></clipPath><clipPath id="d1cfdfe7d5"><path d="M 0.957031 4.527344 L 38.800781 -0.902344 L 44.335938 37.683594 L 6.492188 43.113281 Z M 0.957031 4.527344 "/></clipPath><clipPath id="8e26eb3170"><path d="M 6 13 L 14 13 L 14 25 L 6 25 Z M 6 13 "/></clipPath><clipPath id="b4371819a1"><path d="M 0.957031 4.527344 L 38.800781 -0.902344 L 44.335938 37.683594 L 6.492188 43.113281 Z M 0.957031 4.527344 "/></clipPath><clipPath id="15dc22cecd"><path d="M 0.957031 4.527344 L 38.800781 -0.902344 L 44.335938 37.683594 L 6.492188 43.113281 Z M 0.957031 4.527344 "/></clipPath><clipPath id="e52d952f4d"><path d="M 0.957031 4.527344 L 38.800781 -0.902344 L 44.335938 37.683594 L 6.492188 43.113281 Z M 0.957031 4.527344 "/></clipPath><clipPath id="9201dbe0f8"><path d="M 14 10 L 27 10 L 27 15 L 14 15 Z M 14 10 "/></clipPath><clipPath id="3b7dd65c83"><path d="M 0.957031 4.527344 L 38.800781 -0.902344 L 44.335938 37.683594 L 6.492188 43.113281 Z M 0.957031 4.527344 "/></clipPath><clipPath id="bbb1416708"><path d="M 0.957031 4.527344 L 38.800781 -0.902344 L 44.335938 37.683594 L 6.492188 43.113281 Z M 0.957031 4.527344 "/></clipPath><clipPath id="cfc9532bbc"><path d="M 0.957031 4.527344 L 38.800781 -0.902344 L 44.335938 37.683594 L 6.492188 43.113281 Z M 0.957031 4.527344 "/></clipPath><clipPath id="1a0a62da8c"><path d="M 14 3 L 21 3 L 21 15 L 14 15 Z M 14 3 "/></clipPath><clipPath id="cc93210a1c"><path d="M 0.957031 4.527344 L 38.800781 -0.902344 L 44.335938 37.683594 L 6.492188 43.113281 Z M 0.957031 4.527344 "/></clipPath><clipPath id="de22a55443"><path d="M 0.957031 4.527344 L 38.800781 -0.902344 L 44.335938 37.683594 L 6.492188 43.113281 Z M 0.957031 4.527344 "/></clipPath><clipPath id="877664d002"><path d="M 0.957031 4.527344 L 38.800781 -0.902344 L 44.335938 37.683594 L 6.492188 43.113281 Z M 0.957031 4.527344 "/></clipPath><clipPath id="521924017a"><path d="M 20 0.0117188 L 34 0.0117188 L 34 12 L 20 12 Z M 20 0.0117188 "/></clipPath><clipPath id="b9fc03b98a"><path d="M 0.957031 4.527344 L 38.800781 -0.902344 L 44.335938 37.683594 L 6.492188 43.113281 Z M 0.957031 4.527344 "/></clipPath><clipPath id="e1a301561e"><path d="M 0.957031 4.527344 L 38.800781 -0.902344 L 44.335938 37.683594 L 6.492188 43.113281 Z M 0.957031 4.527344 "/></clipPath><clipPath id="286c76d9cb"><path d="M 0.957031 4.527344 L 38.800781 -0.902344 L 44.335938 37.683594 L 6.492188 43.113281 Z M 0.957031 4.527344 "/></clipPath></defs><g id="6039afbfa6"><g clip-rule="nonzero" clip-path="url(#a4ac8bb6f7)"><path style=" stroke:none;fill-rule:nonzero;fill:#fa9b0f;fill-opacity:1;" d="M 204.066406 6.457031 L 28.550781 6.457031 C 20.890625 6.457031 14.675781 13.625 14.675781 22.496094 C 14.675781 31.367188 20.890625 38.535156 28.550781 38.535156 L 204.066406 38.535156 C 211.726562 38.535156 217.9375 31.367188 217.9375 22.496094 C 217.9375 13.625 211.726562 6.457031 204.066406 6.457031 Z M 204.066406 6.457031 "/></g><g clip-rule="nonzero" clip-path="url(#1b84f12a6d)"><path style=" stroke:none;fill-rule:nonzero;fill:#743304;fill-opacity:1;" d="M 204.066406 38.824219 L 28.578125 38.824219 C 20.777344 38.824219 14.445312 31.511719 14.445312 22.496094 C 14.445312 13.480469 20.777344 6.167969 28.578125 6.167969 L 204.09375 6.167969 C 211.871094 6.167969 218.199219 13.480469 218.199219 22.496094 C 218.199219 31.511719 211.871094 38.824219 204.066406 38.824219 Z M 28.578125 6.746094 C 21.066406 6.746094 14.9375 13.796875 14.9375 22.496094 C 14.9375 31.195312 21.066406 38.246094 28.578125 38.246094 L 204.09375 38.246094 C 211.609375 38.246094 217.707031 31.195312 217.707031 22.496094 C 217.707031 13.796875 211.582031 6.746094 204.066406 6.746094 Z M 28.578125 6.746094 "/></g><g clip-rule="nonzero" clip-path="url(#c171fb13cf)"><g clip-rule="nonzero" clip-path="url(#ece5733be4)"><path style=" stroke:none;fill-rule:nonzero;fill:#fec70b;fill-opacity:1;" d="M 157.667969 7.179688 L 197.351562 7.179688 L 197.351562 19.429688 L 157.667969 19.429688 Z M 157.667969 7.179688 "/></g></g><g clip-rule="nonzero" clip-path="url(#61fc94e902)"><path style="fill:none;stroke-width:4;stroke-linecap:butt;stroke-linejoin:miter;stroke:#fec70b;stroke-opacity:1;stroke-miterlimit:4;" d="M 0.00122868 1.996931 L 56.799778 1.999901 " transform="matrix(0.0785934,-0.295388,0.287545,0.0807368,194.56632,22.511012)"/></g><g clip-rule="nonzero" clip-path="url(#d6962bdb9e)"><g mask="url(#541f206164)" transform="matrix(1,0,0,1,25,10)"><g clip-path="url(#4c1a36126e)"><g clip-rule="nonzero" clip-path="url(#12cbc0cabb)"><path style=" stroke:none;fill-rule:nonzero;fill:#914d1c;fill-opacity:1;" d="M 11.675781 0.824219 L 170.984375 0.824219 C 171.695312 0.824219 172.402344 0.894531 173.101562 1.03125 C 173.800781 1.171875 174.480469 1.378906 175.140625 1.652344 C 175.796875 1.925781 176.425781 2.257812 177.015625 2.65625 C 177.609375 3.050781 178.160156 3.5 178.664062 4.003906 C 179.167969 4.511719 179.617188 5.058594 180.015625 5.652344 C 180.410156 6.246094 180.746094 6.871094 181.019531 7.53125 C 181.289062 8.1875 181.496094 8.867188 181.636719 9.566406 C 181.773438 10.265625 181.84375 10.972656 181.84375 11.6875 L 181.84375 12.265625 C 181.84375 12.976562 181.773438 13.683594 181.636719 14.382812 C 181.496094 15.082031 181.289062 15.761719 181.019531 16.421875 C 180.746094 17.082031 180.410156 17.707031 180.015625 18.300781 C 179.617188 18.894531 179.167969 19.441406 178.664062 19.945312 C 178.160156 20.449219 177.609375 20.902344 177.015625 21.296875 C 176.425781 21.691406 175.796875 22.027344 175.140625 22.300781 C 174.480469 22.574219 173.800781 22.78125 173.101562 22.917969 C 172.402344 23.058594 171.695312 23.128906 170.984375 23.128906 L 11.675781 23.128906 C 10.964844 23.128906 10.257812 23.058594 9.558594 22.917969 C 8.859375 22.78125 8.179688 22.574219 7.519531 22.300781 C 6.859375 22.027344 6.234375 21.691406 5.640625 21.296875 C 5.046875 20.902344 4.5 20.449219 3.996094 19.945312 C 3.492188 19.441406 3.042969 18.894531 2.644531 18.300781 C 2.25 17.707031 1.914062 17.082031 1.640625 16.421875 C 1.367188 15.761719 1.160156 15.082031 1.023438 14.382812 C 0.882812 13.683594 0.8125 12.976562 0.8125 12.265625 L 0.8125 11.6875 C 0.8125 10.972656 0.882812 10.265625 1.023438 9.566406 C 1.160156 8.867188 1.367188 8.1875 1.640625 7.53125 C 1.914062 6.871094 2.25 6.246094 2.644531 5.652344 C 3.042969 5.058594 3.492188 4.511719 3.996094 4.003906 C 4.5 3.5 5.046875 3.050781 5.640625 2.65625 C 6.234375 2.257812 6.859375 1.925781 7.519531 1.652344 C 8.179688 1.378906 8.859375 1.171875 9.558594 1.03125 C 10.257812 0.894531 10.964844 0.824219 11.675781 0.824219 Z M 11.675781 0.824219 "/></g></g><mask id="541f206164"><g filter="url(#5361ca7fea)"><rect x="0" width="224.87999" y="0" height="44.999999" style="fill:#000000;fill-opacity:0.7;stroke:none;"/></g></mask></g><path style=" stroke:none;fill-rule:nonzero;fill:#743304;fill-opacity:1;" d="M 195.984375 33.320312 L 36.675781 33.320312 C 35.949219 33.316406 35.230469 33.246094 34.519531 33.105469 C 33.808594 32.960938 33.117188 32.75 32.449219 32.472656 C 31.777344 32.195312 31.140625 31.855469 30.539062 31.453125 C 29.933594 31.046875 29.378906 30.589844 28.863281 30.078125 C 28.351562 29.5625 27.894531 29.007812 27.488281 28.402344 C 27.085938 27.800781 26.746094 27.164062 26.46875 26.492188 C 26.191406 25.824219 25.980469 25.132812 25.835938 24.421875 C 25.695312 23.710938 25.625 22.992188 25.621094 22.265625 L 25.621094 21.6875 C 25.625 20.960938 25.695312 20.242188 25.835938 19.53125 C 25.980469 18.820312 26.191406 18.128906 26.46875 17.457031 C 26.746094 16.789062 27.085938 16.152344 27.488281 15.546875 C 27.894531 14.945312 28.351562 14.386719 28.863281 13.875 C 29.378906 13.359375 29.933594 12.902344 30.539062 12.5 C 31.140625 12.097656 31.777344 11.757812 32.449219 11.476562 C 33.117188 11.199219 33.808594 10.988281 34.519531 10.847656 C 35.230469 10.707031 35.949219 10.632812 36.675781 10.632812 L 195.984375 10.632812 C 196.710938 10.632812 197.429688 10.707031 198.140625 10.847656 C 198.851562 10.988281 199.542969 11.199219 200.210938 11.476562 C 200.882812 11.757812 201.519531 12.097656 202.121094 12.5 C 202.722656 12.902344 203.28125 13.359375 203.796875 13.875 C 204.308594 14.386719 204.765625 14.945312 205.167969 15.546875 C 205.574219 16.152344 205.914062 16.789062 206.191406 17.457031 C 206.46875 18.128906 206.679688 18.820312 206.820312 19.53125 C 206.964844 20.242188 207.035156 20.960938 207.035156 21.6875 L 207.035156 22.265625 C 207.035156 22.992188 206.964844 23.710938 206.820312 24.421875 C 206.679688 25.132812 206.46875 25.824219 206.191406 26.492188 C 205.914062 27.164062 205.574219 27.800781 205.167969 28.402344 C 204.765625 29.007812 204.308594 29.5625 203.796875 30.078125 C 203.28125 30.589844 202.722656 31.046875 202.121094 31.453125 C 201.519531 31.855469 200.882812 32.195312 200.210938 32.472656 C 199.542969 32.75 198.851562 32.960938 198.140625 33.105469 C 197.429688 33.246094 196.710938 33.316406 195.984375 33.320312 Z M 36.675781 11.015625 C 35.976562 11.015625 35.28125 11.085938 34.59375 11.222656 C 33.910156 11.359375 33.242188 11.5625 32.59375 11.832031 C 31.949219 12.097656 31.332031 12.429688 30.75 12.816406 C 30.167969 13.207031 29.628906 13.648438 29.132812 14.144531 C 28.640625 14.640625 28.195312 15.179688 27.808594 15.761719 C 27.417969 16.34375 27.089844 16.957031 26.820312 17.605469 C 26.550781 18.25 26.347656 18.917969 26.210938 19.605469 C 26.074219 20.292969 26.007812 20.984375 26.003906 21.6875 L 26.003906 22.265625 C 26.007812 22.964844 26.074219 23.660156 26.210938 24.347656 C 26.347656 25.03125 26.550781 25.699219 26.820312 26.347656 C 27.089844 26.992188 27.417969 27.609375 27.808594 28.191406 C 28.195312 28.773438 28.640625 29.3125 29.132812 29.808594 C 29.628906 30.300781 30.167969 30.746094 30.75 31.132812 C 31.332031 31.523438 31.949219 31.851562 32.59375 32.121094 C 33.242188 32.390625 33.910156 32.59375 34.59375 32.730469 C 35.28125 32.867188 35.976562 32.933594 36.675781 32.9375 L 195.984375 32.9375 C 196.683594 32.933594 197.378906 32.867188 198.066406 32.730469 C 198.75 32.589844 199.417969 32.390625 200.066406 32.121094 C 200.710938 31.851562 201.328125 31.523438 201.910156 31.132812 C 202.492188 30.746094 203.03125 30.300781 203.523438 29.808594 C 204.019531 29.3125 204.460938 28.773438 204.851562 28.191406 C 205.242188 27.609375 205.570312 26.992188 205.839844 26.347656 C 206.105469 25.699219 206.308594 25.03125 206.445312 24.347656 C 206.582031 23.660156 206.652344 22.964844 206.652344 22.265625 L 206.652344 21.6875 C 206.652344 20.984375 206.582031 20.292969 206.445312 19.605469 C 206.308594 18.917969 206.105469 18.25 205.839844 17.605469 C 205.570312 16.957031 205.242188 16.34375 204.851562 15.761719 C 204.460938 15.179688 204.019531 14.640625 203.523438 14.144531 C 203.03125 13.648438 202.492188 13.207031 201.910156 12.816406 C 201.328125 12.429688 200.710938 12.097656 200.066406 11.832031 C 199.417969 11.5625 198.75 11.359375 198.066406 11.222656 C 197.378906 11.085938 196.683594 11.015625 195.984375 11.015625 Z M 36.675781 11.015625 "/><g mask="url(#9aa619d0f2)" transform="matrix(1,0,0,1,25,10)"><g clip-path="url(#dc650e1a43)"><g clip-rule="nonzero" clip-path="url(#459bccaae6)"><path style=" stroke:none;fill-rule:nonzero;fill:#914d1c;fill-opacity:1;" d="M 11.675781 0.824219 L 170.984375 0.824219 C 171.695312 0.824219 172.402344 0.894531 173.101562 1.03125 C 173.800781 1.171875 174.480469 1.378906 175.140625 1.652344 C 175.796875 1.925781 176.425781 2.257812 177.015625 2.65625 C 177.609375 3.050781 178.160156 3.5 178.664062 4.003906 C 179.167969 4.511719 179.617188 5.058594 180.015625 5.652344 C 180.410156 6.246094 180.746094 6.871094 181.019531 7.53125 C 181.289062 8.1875 181.496094 8.867188 181.636719 9.566406 C 181.773438 10.265625 181.84375 10.972656 181.84375 11.6875 L 181.84375 12.265625 C 181.84375 12.976562 181.773438 13.683594 181.636719 14.382812 C 181.496094 15.082031 181.289062 15.761719 181.019531 16.421875 C 180.746094 17.082031 180.410156 17.707031 180.015625 18.300781 C 179.617188 18.894531 179.167969 19.441406 178.664062 19.945312 C 178.160156 20.449219 177.609375 20.902344 177.015625 21.296875 C 176.425781 21.691406 175.796875 22.027344 175.140625 22.300781 C 174.480469 22.574219 173.800781 22.78125 173.101562 22.917969 C 172.402344 23.058594 171.695312 23.128906 170.984375 23.128906 L 11.675781 23.128906 C 10.964844 23.128906 10.257812 23.058594 9.558594 22.917969 C 8.859375 22.78125 8.179688 22.574219 7.519531 22.300781 C 6.859375 22.027344 6.234375 21.691406 5.640625 21.296875 C 5.046875 20.902344 4.5 20.449219 3.996094 19.945312 C 3.492188 19.441406 3.042969 18.894531 2.644531 18.300781 C 2.25 17.707031 1.914062 17.082031 1.640625 16.421875 C 1.367188 15.761719 1.160156 15.082031 1.023438 14.382812 C 0.882812 13.683594 0.8125 12.976562 0.8125 12.265625 L 0.8125 11.6875 C 0.8125 10.972656 0.882812 10.265625 1.023438 9.566406 C 1.160156 8.867188 1.367188 8.1875 1.640625 7.53125 C 1.914062 6.871094 2.25 6.246094 2.644531 5.652344 C 3.042969 5.058594 3.492188 4.511719 3.996094 4.003906 C 4.5 3.5 5.046875 3.050781 5.640625 2.65625 C 6.234375 2.257812 6.859375 1.925781 7.519531 1.652344 C 8.179688 1.378906 8.859375 1.171875 9.558594 1.03125 C 10.257812 0.894531 10.964844 0.824219 11.675781 0.824219 Z M 11.675781 0.824219 "/></g></g><mask id="9aa619d0f2"><g filter="url(#5361ca7fea)"><rect x="0" width="224.87999" y="0" height="44.999999" style="fill:#000000;fill-opacity:0.7;stroke:none;"/></g></mask></g><path style=" stroke:none;fill-rule:nonzero;fill:#743304;fill-opacity:1;" d="M 195.984375 33.320312 L 36.675781 33.320312 C 35.949219 33.316406 35.230469 33.246094 34.519531 33.105469 C 33.808594 32.960938 33.117188 32.75 32.449219 32.472656 C 31.777344 32.195312 31.140625 31.855469 30.539062 31.453125 C 29.933594 31.046875 29.378906 30.589844 28.863281 30.078125 C 28.351562 29.5625 27.894531 29.007812 27.488281 28.402344 C 27.085938 27.800781 26.746094 27.164062 26.46875 26.492188 C 26.191406 25.824219 25.980469 25.132812 25.835938 24.421875 C 25.695312 23.710938 25.625 22.992188 25.621094 22.265625 L 25.621094 21.6875 C 25.625 20.960938 25.695312 20.242188 25.835938 19.53125 C 25.980469 18.820312 26.191406 18.128906 26.46875 17.457031 C 26.746094 16.789062 27.085938 16.152344 27.488281 15.546875 C 27.894531 14.945312 28.351562 14.386719 28.863281 13.875 C 29.378906 13.359375 29.933594 12.902344 30.539062 12.5 C 31.140625 12.097656 31.777344 11.757812 32.449219 11.476562 C 33.117188 11.199219 33.808594 10.988281 34.519531 10.847656 C 35.230469 10.707031 35.949219 10.632812 36.675781 10.632812 L 195.984375 10.632812 C 196.710938 10.632812 197.429688 10.707031 198.140625 10.847656 C 198.851562 10.988281 199.542969 11.199219 200.210938 11.476562 C 200.882812 11.757812 201.519531 12.097656 202.121094 12.5 C 202.722656 12.902344 203.28125 13.359375 203.796875 13.875 C 204.308594 14.386719 204.765625 14.945312 205.167969 15.546875 C 205.574219 16.152344 205.914062 16.789062 206.191406 17.457031 C 206.46875 18.128906 206.679688 18.820312 206.820312 19.53125 C 206.964844 20.242188 207.035156 20.960938 207.035156 21.6875 L 207.035156 22.265625 C 207.035156 22.992188 206.964844 23.710938 206.820312 24.421875 C 206.679688 25.132812 206.46875 25.824219 206.191406 26.492188 C 205.914062 27.164062 205.574219 27.800781 205.167969 28.402344 C 204.765625 29.007812 204.308594 29.5625 203.796875 30.078125 C 203.28125 30.589844 202.722656 31.046875 202.121094 31.453125 C 201.519531 31.855469 200.882812 32.195312 200.210938 32.472656 C 199.542969 32.75 198.851562 32.960938 198.140625 33.105469 C 197.429688 33.246094 196.710938 33.316406 195.984375 33.320312 Z M 36.675781 11.015625 C 35.976562 11.015625 35.28125 11.085938 34.59375 11.222656 C 33.910156 11.359375 33.242188 11.5625 32.59375 11.832031 C 31.949219 12.097656 31.332031 12.429688 30.75 12.816406 C 30.167969 13.207031 29.628906 13.648438 29.132812 14.144531 C 28.640625 14.640625 28.195312 15.179688 27.808594 15.761719 C 27.417969 16.34375 27.089844 16.957031 26.820312 17.605469 C 26.550781 18.25 26.347656 18.917969 26.210938 19.605469 C 26.074219 20.292969 26.007812 20.984375 26.003906 21.6875 L 26.003906 22.265625 C 26.007812 22.964844 26.074219 23.660156 26.210938 24.347656 C 26.347656 25.03125 26.550781 25.699219 26.820312 26.347656 C 27.089844 26.992188 27.417969 27.609375 27.808594 28.191406 C 28.195312 28.773438 28.640625 29.3125 29.132812 29.808594 C 29.628906 30.300781 30.167969 30.746094 30.75 31.132812 C 31.332031 31.523438 31.949219 31.851562 32.59375 32.121094 C 33.242188 32.390625 33.910156 32.59375 34.59375 32.730469 C 35.28125 32.867188 35.976562 32.933594 36.675781 32.9375 L 195.984375 32.9375 C 196.683594 32.933594 197.378906 32.867188 198.066406 32.730469 C 198.75 32.589844 199.417969 32.390625 200.066406 32.121094 C 200.710938 31.851562 201.328125 31.523438 201.910156 31.132812 C 202.492188 30.746094 203.03125 30.300781 203.523438 29.808594 C 204.019531 29.3125 204.460938 28.773438 204.851562 28.191406 C 205.242188 27.609375 205.570312 26.992188 205.839844 26.347656 C 206.105469 25.699219 206.308594 25.03125 206.445312 24.347656 C 206.582031 23.660156 206.652344 22.964844 206.652344 22.265625 L 206.652344 21.6875 C 206.652344 20.984375 206.582031 20.292969 206.445312 19.605469 C 206.308594 18.917969 206.105469 18.25 205.839844 17.605469 C 205.570312 16.957031 205.242188 16.34375 204.851562 15.761719 C 204.460938 15.179688 204.019531 14.640625 203.523438 14.144531 C 203.03125 13.648438 202.492188 13.207031 201.910156 12.816406 C 201.328125 12.429688 200.710938 12.097656 200.066406 11.832031 C 199.417969 11.5625 198.75 11.359375 198.066406 11.222656 C 197.378906 11.085938 196.683594 11.015625 195.984375 11.015625 Z M 36.675781 11.015625 "/><g mask="url(#bab8357d27)" transform="matrix(1,0,0,1,25,10)"><g clip-path="url(#e7c753ff42)"><g clip-rule="nonzero" clip-path="url(#d684e8ab45)"><path style=" stroke:none;fill-rule:nonzero;fill:#914d1c;fill-opacity:1;" d="M 11.675781 0.824219 L 170.984375 0.824219 C 171.695312 0.824219 172.402344 0.894531 173.101562 1.03125 C 173.800781 1.171875 174.480469 1.378906 175.140625 1.652344 C 175.796875 1.925781 176.425781 2.257812 177.015625 2.65625 C 177.609375 3.050781 178.160156 3.5 178.664062 4.003906 C 179.167969 4.511719 179.617188 5.058594 180.015625 5.652344 C 180.410156 6.246094 180.746094 6.871094 181.019531 7.53125 C 181.289062 8.1875 181.496094 8.867188 181.636719 9.566406 C 181.773438 10.265625 181.84375 10.972656 181.84375 11.6875 L 181.84375 12.265625 C 181.84375 12.976562 181.773438 13.683594 181.636719 14.382812 C 181.496094 15.082031 181.289062 15.761719 181.019531 16.421875 C 180.746094 17.082031 180.410156 17.707031 180.015625 18.300781 C 179.617188 18.894531 179.167969 19.441406 178.664062 19.945312 C 178.160156 20.449219 177.609375 20.902344 177.015625 21.296875 C 176.425781 21.691406 175.796875 22.027344 175.140625 22.300781 C 174.480469 22.574219 173.800781 22.78125 173.101562 22.917969 C 172.402344 23.058594 171.695312 23.128906 170.984375 23.128906 L 11.675781 23.128906 C 10.964844 23.128906 10.257812 23.058594 9.558594 22.917969 C 8.859375 22.78125 8.179688 22.574219 7.519531 22.300781 C 6.859375 22.027344 6.234375 21.691406 5.640625 21.296875 C 5.046875 20.902344 4.5 20.449219 3.996094 19.945312 C 3.492188 19.441406 3.042969 18.894531 2.644531 18.300781 C 2.25 17.707031 1.914062 17.082031 1.640625 16.421875 C 1.367188 15.761719 1.160156 15.082031 1.023438 14.382812 C 0.882812 13.683594 0.8125 12.976562 0.8125 12.265625 L 0.8125 11.6875 C 0.8125 10.972656 0.882812 10.265625 1.023438 9.566406 C 1.160156 8.867188 1.367188 8.1875 1.640625 7.53125 C 1.914062 6.871094 2.25 6.246094 2.644531 5.652344 C 3.042969 5.058594 3.492188 4.511719 3.996094 4.003906 C 4.5 3.5 5.046875 3.050781 5.640625 2.65625 C 6.234375 2.257812 6.859375 1.925781 7.519531 1.652344 C 8.179688 1.378906 8.859375 1.171875 9.558594 1.03125 C 10.257812 0.894531 10.964844 0.824219 11.675781 0.824219 Z M 11.675781 0.824219 "/></g></g><mask id="bab8357d27"><g filter="url(#5361ca7fea)"><rect x="0" width="224.87999" y="0" height="44.999999" style="fill:#000000;fill-opacity:0.7;stroke:none;"/></g></mask></g><path style=" stroke:none;fill-rule:nonzero;fill:#743304;fill-opacity:1;" d="M 195.984375 33.320312 L 36.675781 33.320312 C 35.949219 33.316406 35.230469 33.246094 34.519531 33.105469 C 33.808594 32.960938 33.117188 32.75 32.449219 32.472656 C 31.777344 32.195312 31.140625 31.855469 30.539062 31.453125 C 29.933594 31.046875 29.378906 30.589844 28.863281 30.078125 C 28.351562 29.5625 27.894531 29.007812 27.488281 28.402344 C 27.085938 27.800781 26.746094 27.164062 26.46875 26.492188 C 26.191406 25.824219 25.980469 25.132812 25.835938 24.421875 C 25.695312 23.710938 25.625 22.992188 25.621094 22.265625 L 25.621094 21.6875 C 25.625 20.960938 25.695312 20.242188 25.835938 19.53125 C 25.980469 18.820312 26.191406 18.128906 26.46875 17.457031 C 26.746094 16.789062 27.085938 16.152344 27.488281 15.546875 C 27.894531 14.945312 28.351562 14.386719 28.863281 13.875 C 29.378906 13.359375 29.933594 12.902344 30.539062 12.5 C 31.140625 12.097656 31.777344 11.757812 32.449219 11.476562 C 33.117188 11.199219 33.808594 10.988281 34.519531 10.847656 C 35.230469 10.707031 35.949219 10.632812 36.675781 10.632812 L 195.984375 10.632812 C 196.710938 10.632812 197.429688 10.707031 198.140625 10.847656 C 198.851562 10.988281 199.542969 11.199219 200.210938 11.476562 C 200.882812 11.757812 201.519531 12.097656 202.121094 12.5 C 202.722656 12.902344 203.28125 13.359375 203.796875 13.875 C 204.308594 14.386719 204.765625 14.945312 205.167969 15.546875 C 205.574219 16.152344 205.914062 16.789062 206.191406 17.457031 C 206.46875 18.128906 206.679688 18.820312 206.820312 19.53125 C 206.964844 20.242188 207.035156 20.960938 207.035156 21.6875 L 207.035156 22.265625 C 207.035156 22.992188 206.964844 23.710938 206.820312 24.421875 C 206.679688 25.132812 206.46875 25.824219 206.191406 26.492188 C 205.914062 27.164062 205.574219 27.800781 205.167969 28.402344 C 204.765625 29.007812 204.308594 29.5625 203.796875 30.078125 C 203.28125 30.589844 202.722656 31.046875 202.121094 31.453125 C 201.519531 31.855469 200.882812 32.195312 200.210938 32.472656 C 199.542969 32.75 198.851562 32.960938 198.140625 33.105469 C 197.429688 33.246094 196.710938 33.316406 195.984375 33.320312 Z M 36.675781 11.015625 C 35.976562 11.015625 35.28125 11.085938 34.59375 11.222656 C 33.910156 11.359375 33.242188 11.5625 32.59375 11.832031 C 31.949219 12.097656 31.332031 12.429688 30.75 12.816406 C 30.167969 13.207031 29.628906 13.648438 29.132812 14.144531 C 28.640625 14.640625 28.195312 15.179688 27.808594 15.761719 C 27.417969 16.34375 27.089844 16.957031 26.820312 17.605469 C 26.550781 18.25 26.347656 18.917969 26.210938 19.605469 C 26.074219 20.292969 26.007812 20.984375 26.003906 21.6875 L 26.003906 22.265625 C 26.007812 22.964844 26.074219 23.660156 26.210938 24.347656 C 26.347656 25.03125 26.550781 25.699219 26.820312 26.347656 C 27.089844 26.992188 27.417969 27.609375 27.808594 28.191406 C 28.195312 28.773438 28.640625 29.3125 29.132812 29.808594 C 29.628906 30.300781 30.167969 30.746094 30.75 31.132812 C 31.332031 31.523438 31.949219 31.851562 32.59375 32.121094 C 33.242188 32.390625 33.910156 32.59375 34.59375 32.730469 C 35.28125 32.867188 35.976562 32.933594 36.675781 32.9375 L 195.984375 32.9375 C 196.683594 32.933594 197.378906 32.867188 198.066406 32.730469 C 198.75 32.589844 199.417969 32.390625 200.066406 32.121094 C 200.710938 31.851562 201.328125 31.523438 201.910156 31.132812 C 202.492188 30.746094 203.03125 30.300781 203.523438 29.808594 C 204.019531 29.3125 204.460938 28.773438 204.851562 28.191406 C 205.242188 27.609375 205.570312 26.992188 205.839844 26.347656 C 206.105469 25.699219 206.308594 25.03125 206.445312 24.347656 C 206.582031 23.660156 206.652344 22.964844 206.652344 22.265625 L 206.652344 21.6875 C 206.652344 20.984375 206.582031 20.292969 206.445312 19.605469 C 206.308594 18.917969 206.105469 18.25 205.839844 17.605469 C 205.570312 16.957031 205.242188 16.34375 204.851562 15.761719 C 204.460938 15.179688 204.019531 14.640625 203.523438 14.144531 C 203.03125 13.648438 202.492188 13.207031 201.910156 12.816406 C 201.328125 12.429688 200.710938 12.097656 200.066406 11.832031 C 199.417969 11.5625 198.75 11.359375 198.066406 11.222656 C 197.378906 11.085938 196.683594 11.015625 195.984375 11.015625 Z M 36.675781 11.015625 "/></g><g clip-rule="nonzero" clip-path="url(#0499e05729)"><path style=" stroke:none;fill-rule:nonzero;fill:#fec70b;fill-opacity:1;" d="M 95.644531 7.539062 L 95.625 7.550781 C 95.210938 7.820312 95.003906 8.269531 95.007812 8.902344 C 95.027344 9.140625 95.105469 9.347656 95.246094 9.53125 C 95.339844 9.660156 95.507812 9.765625 95.75 9.84375 C 96.121094 9.945312 96.621094 10.015625 97.253906 10.046875 C 97.4375 10.066406 98.425781 10.089844 100.21875 10.117188 L 101.828125 10.179688 C 102.199219 10.1875 102.554688 10.167969 102.890625 10.121094 C 103.257812 10.066406 103.507812 9.992188 103.644531 9.898438 C 104.0625 9.5625 104.210938 9.09375 104.097656 8.484375 C 104.050781 8.277344 103.960938 8.097656 103.828125 7.945312 C 103.640625 7.761719 103.414062 7.636719 103.144531 7.570312 C 102.652344 7.457031 102.074219 7.371094 101.414062 7.316406 C 100.667969 7.257812 99.675781 7.21875 98.4375 7.195312 C 96.976562 7.183594 96.046875 7.296875 95.644531 7.539062 "/></g><g clip-rule="nonzero" clip-path="url(#0a39aa5415)"><g clip-rule="nonzero" clip-path="url(#2b126ea5a5)"><g clip-rule="nonzero" clip-path="url(#dc4a319ea6)"><path style=" stroke:none;fill-rule:nonzero;fill:#fec70b;fill-opacity:1;" d="M 92.988281 9.15625 C 92.917969 9.445312 92.671875 9.695312 92.402344 9.867188 C 92.136719 10.039062 91.851562 10.128906 91.558594 10.183594 C 91.265625 10.238281 90.972656 10.257812 90.6875 10.183594 C 90.398438 10.109375 90.121094 9.949219 89.921875 9.714844 C 89.71875 9.476562 89.597656 9.167969 89.601562 8.863281 C 89.605469 8.558594 89.738281 8.261719 89.898438 7.976562 C 90.054688 7.691406 90.234375 7.414062 90.496094 7.242188 C 90.753906 7.066406 91.09375 6.988281 91.417969 7.019531 C 91.742188 7.050781 92.054688 7.191406 92.292969 7.40625 C 92.527344 7.621094 92.6875 7.90625 92.816406 8.21875 C 92.953125 8.527344 93.054688 8.863281 92.988281 9.15625 Z M 92.988281 9.15625 "/></g></g></g><g clip-rule="nonzero" clip-path="url(#2eb8604f1e)"><g clip-rule="nonzero" clip-path="url(#7f4e2586c1)"><g clip-rule="nonzero" clip-path="url(#7beeeb8b76)"><g clip-rule="nonzero" clip-path="url(#2d7c1db5d2)"><path style=" stroke:none;fill-rule:nonzero;fill:#6ea517;fill-opacity:1;" d="M 26.355469 16.730469 L 19.734375 12.421875 L 21.679688 10.464844 C 21.679688 10.464844 27.507812 5.96875 34.171875 9.425781 C 40.722656 12.820312 41.976562 25.53125 38.207031 31.96875 C 34.4375 38.402344 31.292969 39.203125 29.550781 39.394531 C 27.804688 39.585938 27.402344 38.777344 25.746094 39.1875 C 24.085938 39.601562 23.664062 40.640625 20.550781 40.859375 C 17.726562 41.054688 15.261719 40.289062 13.964844 39.203125 C 12.734375 38.171875 26.355469 16.730469 26.355469 16.730469 Z M 26.355469 16.730469 "/></g></g></g></g><g clip-rule="nonzero" clip-path="url(#820cfcd443)"><g clip-rule="nonzero" clip-path="url(#339c2d2348)"><g clip-rule="nonzero" clip-path="url(#d7619bb2e0)"><g clip-rule="nonzero" clip-path="url(#d1cfdfe7d5)"><path style=" stroke:none;fill-rule:nonzero;fill:#87c244;fill-opacity:1;" d="M 32.351562 9.8125 C 32.351562 9.8125 29.984375 11.273438 27.492188 11.835938 C 24.996094 12.398438 20.445312 12.691406 20.445312 12.691406 C 20.445312 12.691406 19.570312 10.113281 19.421875 10.132812 C 19.269531 10.15625 12.3125 8.773438 7.988281 13.152344 C 3.429688 17.765625 4.007812 25.367188 5.339844 28.84375 C 8.398438 36.835938 14.972656 39.863281 14.972656 39.863281 C 14.972656 39.863281 20.429688 39.695312 26.730469 35.730469 C 33.03125 31.765625 38.101562 25.675781 36.953125 18.644531 C 35.726562 11.164062 32.351562 9.8125 32.351562 9.8125 Z M 32.351562 9.8125 "/></g></g></g></g><g clip-rule="nonzero" clip-path="url(#8e26eb3170)"><g clip-rule="nonzero" clip-path="url(#b4371819a1)"><g clip-rule="nonzero" clip-path="url(#15dc22cecd)"><g clip-rule="nonzero" clip-path="url(#e52d952f4d)"><path style=" stroke:none;fill-rule:nonzero;fill:#e5dd9f;fill-opacity:1;" d="M 12.65625 14.113281 C 11.652344 13.230469 9.3125 13.796875 7.855469 16.722656 C 6.335938 19.765625 6.976562 24.847656 8.578125 24.761719 C 9.890625 24.6875 9.902344 22.421875 10.472656 20.738281 C 11.546875 17.574219 14.964844 16.140625 12.65625 14.113281 Z M 12.65625 14.113281 "/></g></g></g></g><g clip-rule="nonzero" clip-path="url(#9201dbe0f8)"><g clip-rule="nonzero" clip-path="url(#3b7dd65c83)"><g clip-rule="nonzero" clip-path="url(#bbb1416708)"><g clip-rule="nonzero" clip-path="url(#cfc9532bbc)"><path style=" stroke:none;fill-rule:nonzero;fill:#59702c;fill-opacity:1;" d="M 14.582031 12.675781 C 14.316406 13.527344 15.84375 15.3125 20.527344 14.789062 C 25.453125 14.238281 26.664062 11.246094 26.011719 10.679688 C 25.359375 10.117188 23.675781 11.441406 20.191406 11.902344 C 16.707031 12.367188 15.03125 11.230469 14.582031 12.675781 Z M 14.582031 12.675781 "/></g></g></g></g><g clip-rule="nonzero" clip-path="url(#1a0a62da8c)"><g clip-rule="nonzero" clip-path="url(#cc93210a1c)"><g clip-rule="nonzero" clip-path="url(#de22a55443)"><g clip-rule="nonzero" clip-path="url(#877664d002)"><path style=" stroke:none;fill-rule:nonzero;fill:#513532;fill-opacity:1;" d="M 16.230469 6.949219 C 15.84375 6.925781 14.273438 6.882812 14.035156 6.296875 C 13.925781 6.023438 14.160156 5.046875 15.039062 4.222656 C 15.914062 3.402344 16.859375 3.074219 17.160156 3.570312 C 17.460938 4.070312 17.433594 4.417969 17.449219 4.535156 C 17.46875 4.644531 18.367188 5.445312 19.074219 6.539062 C 20.054688 8.058594 20.695312 9.589844 20.855469 11.226562 C 20.96875 12.414062 21.1875 14.078125 20.496094 14.058594 C 19.78125 14.039062 19.6875 12.359375 19.175781 11.234375 C 17.953125 8.558594 16.464844 6.964844 16.230469 6.949219 Z M 16.230469 6.949219 "/></g></g></g></g><g clip-rule="nonzero" clip-path="url(#521924017a)"><g clip-rule="nonzero" clip-path="url(#b9fc03b98a)"><g clip-rule="nonzero" clip-path="url(#e1a301561e)"><g clip-rule="nonzero" clip-path="url(#286c76d9cb)"><path style=" stroke:none;fill-rule:nonzero;fill:#2f7c31;fill-opacity:1;" d="M 26.28125 7.386719 C 26.339844 7.261719 33.378906 1.234375 33.371094 0.925781 C 33.363281 0.617188 29.222656 0.476562 26.816406 1.789062 C 24.40625 3.097656 21.988281 5 21.109375 7.816406 C 20.40625 10.082031 20.609375 11.519531 20.921875 11.824219 C 21.066406 11.964844 26.28125 7.386719 26.28125 7.386719 Z M 26.28125 7.386719 "/><path style=" stroke:none;fill-rule:nonzero;fill:#4c8c19;fill-opacity:1;" d="M 25.375 7.207031 C 28.480469 4.507812 33.375 0.925781 33.375 0.925781 C 33.375 0.925781 33.59375 1.324219 32.832031 3.242188 C 31.820312 5.78125 29.109375 9.257812 26.0625 10.660156 C 22.761719 12.183594 20.921875 11.824219 20.921875 11.824219 C 20.921875 11.824219 22.933594 9.332031 25.375 7.207031 Z M 25.375 7.207031 "/></g></g></g></g></g></svg>