<svg xmlns="http://www.w3.org/2000/svg" xmlns:xlink="http://www.w3.org/1999/xlink" width="40" zoomAndPan="magnify" viewBox="0 0 30 30.000001" height="40" preserveAspectRatio="xMidYMid meet" version="1.2"><defs><clipPath id="ac7a90b0e0"><path d="M 14 5.804688 L 16 5.804688 L 16 7 L 14 7 Z M 14 5.804688 "/></clipPath><clipPath id="654562f520"><path d="M 7.019531 5.804688 L 23.714844 5.804688 L 23.714844 23.226562 L 7.019531 23.226562 Z M 7.019531 5.804688 "/></clipPath><clipPath id="6b36ef39d3"><path d="M 15 5 L 21 5 L 21 11 L 15 11 Z M 15 5 "/></clipPath><clipPath id="4df08bb7c8"><path d="M 15.996094 3.820312 L 23.625 8.019531 L 15.226562 23.28125 L 7.59375 19.078125 Z M 15.996094 3.820312 "/></clipPath><clipPath id="e5ef1f1c30"><path d="M 15.996094 3.820312 L 23.625 8.019531 L 15.226562 23.28125 L 7.59375 19.078125 Z M 15.996094 3.820312 "/></clipPath><clipPath id="efb5268cd8"><path d="M 13 8 L 21 8 L 21 14 L 13 14 Z M 13 8 "/></clipPath><clipPath id="be1507ebbc"><path d="M 15.996094 3.820312 L 23.625 8.019531 L 15.226562 23.28125 L 7.59375 19.078125 Z M 15.996094 3.820312 "/></clipPath><clipPath id="89d9f99913"><path d="M 15.996094 3.820312 L 23.625 8.019531 L 15.226562 23.28125 L 7.59375 19.078125 Z M 15.996094 3.820312 "/></clipPath><clipPath id="8b43018517"><path d="M 8 10 L 20 10 L 20 23 L 8 23 Z M 8 10 "/></clipPath><clipPath id="7314dfae74"><path d="M 15.996094 3.820312 L 23.625 8.019531 L 15.226562 23.28125 L 7.59375 19.078125 Z M 15.996094 3.820312 "/></clipPath><clipPath id="943a4d4e48"><path d="M 15.996094 3.820312 L 23.625 8.019531 L 15.226562 23.28125 L 7.59375 19.078125 Z M 15.996094 3.820312 "/></clipPath></defs><g id="b7d3ddadf7"><path style=" stroke:none;fill-rule:evenodd;fill:#911616;fill-opacity:1;" d="M 28.882812 14.671875 C 28.050781 32.550781 2.171875 32.550781 1.339844 14.671875 C 0.484375 -3.714844 29.734375 -3.714844 28.882812 14.671875 Z M 28.882812 14.671875 "/><path style=" stroke:none;fill-rule:evenodd;fill:#ff3131;fill-opacity:1;" d="M 27.078125 14.058594 C 26.339844 29.992188 3.273438 29.992188 2.535156 14.058594 C 1.769531 -2.332031 27.84375 -2.332031 27.078125 14.058594 Z M 27.078125 14.058594 "/><path style=" stroke:none;fill-rule:evenodd;fill:#ff5757;fill-opacity:1;" d="M 4.121094 19.964844 C 3.214844 18.328125 2.640625 16.359375 2.535156 14.058594 C 1.808594 -1.527344 25.34375 -2.292969 27 11.761719 C 24.945312 23.367188 11.53125 26.101562 4.121094 19.964844 Z M 4.121094 19.964844 "/><path style=" stroke:none;fill-rule:evenodd;fill:#fcf8f9;fill-opacity:1;" d="M 7.480469 8.390625 C 8.882812 5.984375 7.546875 3.957031 5.316406 7.175781 C 3.066406 10.425781 5.425781 11.917969 7.480469 8.390625 Z M 9.527344 4.167969 C 10.019531 4.3125 10.28125 4.652344 10.140625 5.144531 C 10 5.632812 9.488281 5.914062 8.996094 5.773438 C 8.507812 5.632812 8.328125 5.167969 8.46875 4.679688 C 8.609375 4.191406 9.039062 4.027344 9.527344 4.167969 Z M 9.527344 4.167969 "/><path style=" stroke:none;fill-rule:evenodd;fill:#16273d;fill-opacity:1;" d="M 14.808594 18.769531 C 14.808594 18.769531 11.980469 21.027344 10.484375 20.375 C 8.984375 19.722656 10.589844 15.664062 10.589844 15.664062 C 10.589844 15.664062 7.964844 14.292969 7.769531 12.597656 C 7.570312 10.90625 12.285156 10.992188 12.285156 10.992188 C 12.285156 10.992188 12.632812 7.453125 14.808594 7.277344 C 16.980469 7.453125 17.328125 10.992188 17.328125 10.992188 C 17.328125 10.992188 22.042969 10.90625 21.84375 12.597656 C 21.648438 14.292969 19.023438 15.664062 19.023438 15.664062 C 19.023438 15.664062 20.628906 19.722656 19.128906 20.375 C 17.632812 21.027344 14.808594 18.769531 14.808594 18.769531 Z M 14.808594 18.769531 "/><path style=" stroke:none;fill-rule:evenodd;fill:#911616;fill-opacity:1;" d="M 14.808594 18.769531 C 14.808594 18.769531 11.980469 21.027344 10.484375 20.375 C 10.101562 20.210938 9.921875 19.828125 9.867188 19.347656 C 9.988281 18.015625 10.589844 16.492188 10.589844 16.492188 L 10.589844 15.664062 C 10.589844 15.664062 8.335938 14.488281 7.847656 12.96875 C 8.472656 11.75 12.285156 11.820312 12.285156 11.820312 C 12.285156 11.820312 12.632812 8.28125 14.808594 8.105469 C 16.980469 8.28125 17.328125 11.820312 17.328125 11.820312 C 17.328125 11.820312 21.140625 11.75 21.765625 12.96875 C 21.277344 14.488281 19.023438 15.664062 19.023438 15.664062 L 19.023438 16.492188 C 19.023438 16.492188 19.625 18.015625 19.746094 19.347656 C 19.691406 19.828125 19.511719 20.210938 19.128906 20.375 C 17.632812 21.027344 14.808594 18.769531 14.808594 18.769531 Z M 14.808594 18.769531 "/><g clip-rule="nonzero" clip-path="url(#ac7a90b0e0)"><path style=" stroke:none;fill-rule:nonzero;fill:#ff5757;fill-opacity:1;" d="M 14.894531 6.011719 L 15.59375 5.941406 C 15.359375 5.957031 15.125 5.980469 14.894531 6.011719 Z M 14.894531 6.011719 "/></g><g clip-rule="nonzero" clip-path="url(#654562f520)"><path style=" stroke:none;fill-rule:nonzero;fill:#ff5757;fill-opacity:1;" d="M 23.296875 14.988281 C 23.238281 13.351562 22.917969 11.8125 22.324219 10.285156 C 21.734375 8.761719 20.636719 7.480469 19.214844 6.664062 C 18.796875 6.421875 17.992188 6.160156 17.488281 6.082031 C 15.785156 5.8125 15.828125 5.957031 14.890625 6.015625 C 13.90625 6.15625 12.9375 6.421875 12.023438 6.816406 C 11.023438 7.238281 10.078125 7.820312 9.308594 8.601562 C 8.019531 9.917969 7.3125 11.742188 7.164062 13.578125 C 7.019531 15.417969 7.222656 17.257812 7.898438 18.972656 C 8.527344 20.570312 9.359375 21.347656 10.820312 22.28125 C 11.308594 22.59375 12.472656 23.054688 13.050781 23.105469 C 13.847656 23.179688 14.65625 23.222656 15.453125 23.148438 C 17.164062 22.992188 18.621094 22.367188 20.101562 21.492188 C 20.738281 21.117188 21.800781 20.011719 22.195312 19.378906 C 23.164062 17.835938 23.363281 16.722656 23.296875 14.988281 Z M 23.296875 14.988281 "/></g><g clip-rule="nonzero" clip-path="url(#6b36ef39d3)"><g clip-rule="nonzero" clip-path="url(#4df08bb7c8)"><g clip-rule="nonzero" clip-path="url(#e5ef1f1c30)"><path style=" stroke:none;fill-rule:nonzero;fill:#911616;fill-opacity:1;" d="M 19.535156 8.246094 L 20.117188 7.191406 C 20.371094 6.726562 20.164062 6.113281 19.65625 5.835938 C 19.144531 5.554688 18.515625 5.707031 18.261719 6.171875 L 17.679688 7.226562 C 16.820312 7.203125 15.925781 7.644531 15.277344 8.417969 L 19.8125 10.914062 C 20.121094 9.953125 20.015625 8.964844 19.535156 8.246094 "/></g></g></g><g clip-rule="nonzero" clip-path="url(#efb5268cd8)"><g clip-rule="nonzero" clip-path="url(#be1507ebbc)"><g clip-rule="nonzero" clip-path="url(#89d9f99913)"><path style=" stroke:none;fill-rule:nonzero;fill:#911616;fill-opacity:1;" d="M 13.539062 10.21875 C 13.535156 10.21875 13.535156 10.21875 13.53125 10.21875 L 19.222656 13.351562 C 19.222656 13.351562 19.222656 13.351562 19.222656 13.347656 C 19.546875 13.476562 19.925781 13.347656 20.097656 13.035156 L 20.5 12.308594 C 20.6875 11.96875 20.5625 11.535156 20.222656 11.347656 C 17.683594 9.953125 17.207031 9.691406 14.691406 8.304688 C 14.351562 8.117188 13.921875 8.242188 13.734375 8.582031 L 13.332031 9.308594 C 13.160156 9.625 13.257812 10.015625 13.539062 10.21875 "/></g></g></g><g clip-rule="nonzero" clip-path="url(#8b43018517)"><g clip-rule="nonzero" clip-path="url(#7314dfae74)"><g clip-rule="nonzero" clip-path="url(#943a4d4e48)"><path style=" stroke:none;fill-rule:nonzero;fill:#911616;fill-opacity:1;" d="M 9.226562 17.65625 C 10.152344 15.640625 11.257812 13.660156 12.34375 11.851562 C 12.625 11.378906 13.144531 11.277344 13.414062 11.335938 C 12.265625 11.257812 12.375 12.796875 9.226562 17.65625 Z M 19.332031 13.617188 L 13.25 10.273438 C 12.707031 10.40625 12.214844 10.757812 11.925781 11.285156 L 8.632812 17.269531 C 8.078125 18.273438 8.449219 19.550781 9.453125 20.101562 L 13.054688 22.085938 C 14.0625 22.640625 15.335938 22.269531 15.890625 21.265625 L 19.183594 15.28125 C 19.472656 14.753906 19.507812 14.152344 19.332031 13.617188 "/></g></g></g></g></svg>