<svg xmlns="http://www.w3.org/2000/svg" xmlns:xlink="http://www.w3.org/1999/xlink" width="40" zoomAndPan="magnify" viewBox="0 0 30 30.000001" height="40" preserveAspectRatio="xMidYMid meet" version="1.2"><defs><clipPath id="865d9bd77c"><path d="M 14 5.804688 L 16 5.804688 L 16 7 L 14 7 Z M 14 5.804688 "/></clipPath><clipPath id="a4bd6a486e"><path d="M 7.019531 5.804688 L 23.714844 5.804688 L 23.714844 23.226562 L 7.019531 23.226562 Z M 7.019531 5.804688 "/></clipPath><clipPath id="3a72d14142"><path d="M 7.28125 6.355469 L 22.523438 6.355469 L 22.523438 22 L 7.28125 22 Z M 7.28125 6.355469 "/></clipPath></defs><g id="b822f74337"><path style=" stroke:none;fill-rule:evenodd;fill:#911616;fill-opacity:1;" d="M 28.882812 14.671875 C 28.050781 32.550781 2.171875 32.550781 1.339844 14.671875 C 0.484375 -3.714844 29.734375 -3.714844 28.882812 14.671875 Z M 28.882812 14.671875 "/><path style=" stroke:none;fill-rule:evenodd;fill:#ff3131;fill-opacity:1;" d="M 27.078125 14.058594 C 26.339844 29.992188 3.273438 29.992188 2.535156 14.058594 C 1.769531 -2.332031 27.84375 -2.332031 27.078125 14.058594 Z M 27.078125 14.058594 "/><path style=" stroke:none;fill-rule:evenodd;fill:#ff5757;fill-opacity:1;" d="M 4.121094 19.964844 C 3.214844 18.328125 2.640625 16.359375 2.535156 14.058594 C 1.808594 -1.527344 25.34375 -2.292969 27 11.761719 C 24.945312 23.367188 11.53125 26.101562 4.121094 19.964844 Z M 4.121094 19.964844 "/><path style=" stroke:none;fill-rule:evenodd;fill:#fcf8f9;fill-opacity:1;" d="M 7.480469 8.390625 C 8.882812 5.984375 7.546875 3.957031 5.316406 7.175781 C 3.066406 10.425781 5.425781 11.917969 7.480469 8.390625 Z M 9.527344 4.167969 C 10.019531 4.3125 10.28125 4.652344 10.140625 5.144531 C 10 5.632812 9.488281 5.914062 8.996094 5.773438 C 8.507812 5.632812 8.328125 5.167969 8.46875 4.679688 C 8.609375 4.191406 9.039062 4.027344 9.527344 4.167969 Z M 9.527344 4.167969 "/><path style=" stroke:none;fill-rule:evenodd;fill:#16273d;fill-opacity:1;" d="M 14.808594 18.769531 C 14.808594 18.769531 11.980469 21.027344 10.484375 20.375 C 8.984375 19.722656 10.589844 15.664062 10.589844 15.664062 C 10.589844 15.664062 7.964844 14.292969 7.769531 12.597656 C 7.570312 10.90625 12.285156 10.992188 12.285156 10.992188 C 12.285156 10.992188 12.632812 7.453125 14.808594 7.277344 C 16.980469 7.453125 17.328125 10.992188 17.328125 10.992188 C 17.328125 10.992188 22.042969 10.90625 21.84375 12.597656 C 21.648438 14.292969 19.023438 15.664062 19.023438 15.664062 C 19.023438 15.664062 20.628906 19.722656 19.128906 20.375 C 17.632812 21.027344 14.808594 18.769531 14.808594 18.769531 Z M 14.808594 18.769531 "/><path style=" stroke:none;fill-rule:evenodd;fill:#911616;fill-opacity:1;" d="M 14.808594 18.769531 C 14.808594 18.769531 11.980469 21.027344 10.484375 20.375 C 10.101562 20.210938 9.921875 19.828125 9.867188 19.347656 C 9.988281 18.015625 10.589844 16.492188 10.589844 16.492188 L 10.589844 15.664062 C 10.589844 15.664062 8.335938 14.488281 7.847656 12.96875 C 8.472656 11.75 12.285156 11.820312 12.285156 11.820312 C 12.285156 11.820312 12.632812 8.28125 14.808594 8.105469 C 16.980469 8.28125 17.328125 11.820312 17.328125 11.820312 C 17.328125 11.820312 21.140625 11.75 21.765625 12.96875 C 21.277344 14.488281 19.023438 15.664062 19.023438 15.664062 L 19.023438 16.492188 C 19.023438 16.492188 19.625 18.015625 19.746094 19.347656 C 19.691406 19.828125 19.511719 20.210938 19.128906 20.375 C 17.632812 21.027344 14.808594 18.769531 14.808594 18.769531 Z M 14.808594 18.769531 "/><g clip-rule="nonzero" clip-path="url(#865d9bd77c)"><path style=" stroke:none;fill-rule:nonzero;fill:#ff5757;fill-opacity:1;" d="M 14.894531 6.011719 L 15.59375 5.941406 C 15.359375 5.957031 15.125 5.980469 14.894531 6.011719 Z M 14.894531 6.011719 "/></g><g clip-rule="nonzero" clip-path="url(#a4bd6a486e)"><path style=" stroke:none;fill-rule:nonzero;fill:#ff5757;fill-opacity:1;" d="M 23.296875 14.988281 C 23.238281 13.351562 22.917969 11.8125 22.324219 10.285156 C 21.734375 8.761719 20.636719 7.480469 19.214844 6.664062 C 18.796875 6.421875 17.992188 6.160156 17.488281 6.082031 C 15.785156 5.8125 15.828125 5.957031 14.890625 6.015625 C 13.90625 6.15625 12.9375 6.421875 12.023438 6.816406 C 11.023438 7.238281 10.078125 7.820312 9.308594 8.601562 C 8.019531 9.917969 7.3125 11.742188 7.164062 13.578125 C 7.019531 15.417969 7.222656 17.257812 7.898438 18.972656 C 8.527344 20.570312 9.359375 21.347656 10.820312 22.28125 C 11.308594 22.59375 12.472656 23.054688 13.050781 23.105469 C 13.847656 23.179688 14.65625 23.222656 15.453125 23.148438 C 17.164062 22.992188 18.621094 22.367188 20.101562 21.492188 C 20.738281 21.117188 21.800781 20.011719 22.195312 19.378906 C 23.164062 17.835938 23.363281 16.722656 23.296875 14.988281 Z M 23.296875 14.988281 "/></g><g clip-rule="nonzero" clip-path="url(#3a72d14142)"><path style=" stroke:none;fill-rule:nonzero;fill:#911616;fill-opacity:1;" d="M 16.882812 20.238281 C 16.882812 19.96875 16.664062 19.753906 16.398438 19.753906 C 16.128906 19.753906 15.914062 19.972656 15.914062 20.238281 C 15.914062 20.507812 16.128906 20.722656 16.398438 20.722656 C 16.664062 20.722656 16.882812 20.507812 16.882812 20.238281 Z M 13.675781 20.238281 C 13.675781 19.96875 13.457031 19.753906 13.191406 19.753906 C 12.921875 19.753906 12.703125 19.96875 12.703125 20.238281 C 12.703125 20.507812 12.921875 20.722656 13.191406 20.722656 C 13.457031 20.722656 13.675781 20.507812 13.675781 20.238281 Z M 18.824219 19.308594 C 18.824219 19.066406 18.628906 18.875 18.390625 18.875 C 18.152344 18.875 17.957031 19.066406 17.957031 19.308594 C 17.957031 19.546875 18.148438 19.742188 18.390625 19.742188 C 18.628906 19.742188 18.824219 19.546875 18.824219 19.308594 Z M 11.628906 19.308594 C 11.628906 19.066406 11.433594 18.875 11.195312 18.875 C 10.957031 18.875 10.761719 19.066406 10.761719 19.308594 C 10.761719 19.546875 10.957031 19.742188 11.195312 19.742188 C 11.433594 19.742188 11.628906 19.546875 11.628906 19.308594 Z M 20.253906 17.789062 C 20.253906 17.550781 20.0625 17.355469 19.820312 17.355469 C 19.582031 17.355469 19.386719 17.550781 19.386719 17.789062 C 19.386719 18.03125 19.582031 18.226562 19.820312 18.226562 C 20.0625 18.226562 20.253906 18.03125 20.253906 17.789062 Z M 10.199219 17.792969 C 10.199219 17.550781 10.007812 17.359375 9.765625 17.359375 C 9.527344 17.359375 9.332031 17.550781 9.332031 17.792969 C 9.332031 18.03125 9.527344 18.226562 9.765625 18.226562 C 10.003906 18.226562 10.199219 18.03125 10.199219 17.792969 Z M 21.046875 15.816406 C 21.046875 15.578125 20.855469 15.382812 20.613281 15.382812 C 20.375 15.382812 20.179688 15.578125 20.179688 15.816406 C 20.179688 16.058594 20.375 16.25 20.613281 16.25 C 20.855469 16.25 21.046875 16.054688 21.046875 15.816406 Z M 9.40625 15.816406 C 9.40625 15.578125 9.210938 15.382812 8.972656 15.382812 C 8.730469 15.382812 8.539062 15.578125 8.539062 15.816406 C 8.539062 16.058594 8.730469 16.25 8.972656 16.25 C 9.210938 16.25 9.40625 16.058594 9.40625 15.816406 Z M 21.148438 13.710938 C 21.148438 13.503906 20.980469 13.335938 20.773438 13.335938 C 20.566406 13.335938 20.402344 13.503906 20.402344 13.710938 C 20.402344 13.917969 20.566406 14.082031 20.773438 14.082031 C 20.980469 14.082031 21.148438 13.917969 21.148438 13.710938 Z M 9.1875 13.707031 C 9.1875 13.503906 9.019531 13.335938 8.8125 13.335938 C 8.605469 13.335938 8.4375 13.503906 8.4375 13.707031 C 8.4375 13.914062 8.605469 14.082031 8.8125 14.082031 C 9.019531 14.082031 9.1875 13.914062 9.1875 13.707031 Z M 20.753906 11.835938 C 20.753906 11.660156 20.613281 11.515625 20.4375 11.515625 C 20.261719 11.515625 20.121094 11.660156 20.121094 11.835938 C 20.121094 12.007812 20.261719 12.152344 20.4375 12.152344 C 20.613281 12.152344 20.753906 12.007812 20.753906 11.835938 Z M 9.464844 11.832031 C 9.464844 11.65625 9.324219 11.515625 9.148438 11.515625 C 8.972656 11.515625 8.832031 11.65625 8.832031 11.832031 C 8.832031 12.007812 8.972656 12.148438 9.148438 12.148438 C 9.324219 12.148438 9.464844 12.007812 9.464844 11.832031 Z M 19.179688 15.769531 C 19.667969 14.171875 19.464844 12.476562 18.996094 10.875 C 18.777344 10.117188 18.363281 9.507812 17.972656 8.847656 C 17.625 8.257812 17.28125 7.554688 17.902344 7.03125 C 18.464844 6.558594 19.117188 6.359375 19.863281 6.433594 C 20.652344 6.511719 20.949219 7.753906 21.023438 8.367188 C 21.066406 8.71875 20.96875 8.917969 20.804688 9.253906 C 20.777344 9.304688 20.789062 9.382812 20.839844 9.488281 C 20.9375 9.703125 21.03125 9.917969 21.128906 10.128906 C 21.972656 11.976562 22.386719 14.136719 21.980469 16.121094 C 21.367188 19.128906 19.015625 21.234375 15.988281 21.664062 C 11.300781 22.324219 7.28125 19.128906 7.460938 14.242188 C 7.519531 12.554688 8.019531 10.941406 8.78125 9.445312 C 8.851562 9.308594 8.664062 8.996094 8.601562 8.867188 C 8.554688 8.773438 8.539062 8.625 8.554688 8.433594 C 8.617188 7.707031 8.933594 6.472656 9.839844 6.425781 C 10.53125 6.390625 11.140625 6.585938 11.65625 7.011719 C 11.992188 7.289062 12.121094 7.601562 11.988281 8.015625 C 11.683594 8.957031 10.945312 9.722656 10.640625 10.695312 C 10.132812 12.320312 9.914062 14.113281 10.402344 15.78125 C 11.132812 18.285156 13.613281 19.511719 16.066406 18.867188 C 17.652344 18.449219 18.710938 17.316406 19.179688 15.769531 Z M 19.179688 15.769531 "/></g></g></svg>