<svg xmlns="http://www.w3.org/2000/svg" xmlns:xlink="http://www.w3.org/1999/xlink" width="60" zoomAndPan="magnify" viewBox="0 0 45 44.999999" height="60" preserveAspectRatio="xMidYMid meet" version="1.2"><defs><clipPath id="1224c450dc"><path d="M 2.105469 2.101562 L 42.042969 2.101562 L 42.042969 41.847656 L 2.105469 41.847656 Z M 2.105469 2.101562 "/></clipPath><clipPath id="87bd805a27"><path d="M 7.800781 7.800781 L 37.050781 7.800781 L 37.050781 37.050781 L 7.800781 37.050781 Z M 7.800781 7.800781 "/></clipPath></defs><g id="b4ca75babc"><g clip-rule="nonzero" clip-path="url(#1224c450dc)"><path style=" stroke:none;fill-rule:nonzero;fill:#f12929;fill-opacity:1;" d="M 41.921875 20.425781 C 43.132812 35.109375 35.148438 41.894531 21.980469 41.847656 C 11.585938 41.8125 2.105469 36.320312 2.105469 21.125 C 2.105469 10.148438 11.003906 2.101562 21.980469 2.101562 C 34.746094 2.101562 41.019531 9.488281 41.921875 20.425781 "/></g><path style=" stroke:none;fill-rule:nonzero;fill:#f12929;fill-opacity:1;" d="M 40.6875 19.5 C 41.820312 32.425781 34.335938 38.398438 21.984375 38.359375 C 12.238281 38.328125 3.347656 33.492188 3.347656 20.113281 C 3.347656 10.453125 11.691406 3.363281 21.984375 3.363281 C 33.957031 3.363281 39.839844 9.867188 40.6875 19.5 "/><path style=" stroke:none;fill-rule:nonzero;fill:#ff2323;fill-opacity:1;" d="M 39.699219 14.527344 C 37.46875 7.699219 31.753906 3.363281 21.984375 3.363281 C 11.691406 3.363281 3.347656 10.453125 3.347656 20.113281 C 3.347656 21.210938 3.410156 22.25 3.523438 23.234375 C 9.171875 18.617188 21.308594 11.441406 39.699219 14.527344 "/><path style=" stroke:none;fill-rule:nonzero;fill:#ff3131;fill-opacity:1;" d="M 35.671875 19.867188 C 36.5 29.3125 31.03125 33.675781 22.007812 33.648438 C 14.886719 33.625 8.394531 30.089844 8.394531 20.316406 C 8.394531 13.253906 14.488281 8.078125 22.007812 8.078125 C 30.753906 8.078125 35.054688 12.832031 35.671875 19.867188 "/><path style=" stroke:none;fill-rule:nonzero;fill:#f12929;fill-opacity:1;" d="M 9.851562 23.605469 C 9.851562 16.542969 15.945312 11.367188 23.464844 11.367188 C 29.164062 11.367188 32.972656 13.382812 35.105469 16.730469 C 33.59375 11.457031 29.382812 8.078125 22.007812 8.078125 C 14.488281 8.078125 8.394531 13.253906 8.394531 20.316406 C 8.394531 23.667969 9.15625 26.285156 10.449219 28.28125 C 10.0625 26.910156 9.851562 25.359375 9.851562 23.605469 "/><path style=" stroke:none;fill-rule:nonzero;fill:#f12929;fill-opacity:1;" d="M 28.65625 19.167969 C 28.632812 21.050781 32.671875 19.117188 31.988281 17.59375 C 31.300781 16.070312 28.683594 17.28125 28.65625 19.167969 "/><path style=" stroke:none;fill-rule:nonzero;fill:#ffffff;fill-opacity:1;" d="M 32.027344 7.570312 C 32.234375 6.671875 27.597656 4.496094 27.023438 5.796875 C 26.480469 7.019531 31.734375 8.816406 32.027344 7.570312 "/><path style=" stroke:none;fill-rule:nonzero;fill:#ffffff;fill-opacity:1;" d="M 8.753906 30.9375 C 8.183594 31.839844 11.691406 33.949219 11.925781 33.167969 C 12.160156 32.382812 9.324219 30.035156 8.753906 30.9375 "/><path style=" stroke:none;fill-rule:nonzero;fill:#f12929;fill-opacity:1;" d="M 14.054688 24.867188 C 11.800781 25.246094 14.949219 29.921875 16.625 28.722656 C 18.304688 27.523438 16.3125 24.484375 14.054688 24.867188 "/><path style=" stroke:none;fill-rule:nonzero;fill:#f12929;fill-opacity:1;" d="M 16.734375 15.90625 C 15.550781 16.300781 11.386719 21.621094 12.625 22.347656 C 13.863281 23.074219 20.8125 20.808594 21.1875 19.324219 C 21.566406 17.839844 17.917969 15.507812 16.734375 15.90625 "/><path style=" stroke:none;fill-rule:nonzero;fill:#f12929;fill-opacity:1;" d="M 23.546875 28.601562 C 23.726562 27.59375 21.535156 22.503906 20.523438 23.109375 C 19.515625 23.714844 18.414062 29.609375 19.332031 30.460938 C 20.253906 31.316406 23.367188 29.609375 23.546875 28.601562 "/><path style=" stroke:none;fill-rule:nonzero;fill:#ffffff;fill-opacity:1;" d="M 20.789062 5.316406 C 20.808594 6.386719 24.898438 6.222656 24.664062 5.441406 C 24.433594 4.65625 20.773438 4.25 20.789062 5.316406 "/><g clip-rule="nonzero" clip-path="url(#87bd805a27)"><path style=" stroke:none;fill-rule:nonzero;fill:#ffffff;fill-opacity:1;" d="M 35.710938 16.308594 C 35.242188 16.640625 34.769531 16.972656 34.296875 17.316406 C 34.972656 18.882812 35.351562 20.609375 35.351562 22.425781 C 35.351562 29.550781 29.550781 35.351562 22.425781 35.351562 C 15.296875 35.351562 9.5 29.550781 9.5 22.425781 C 9.5 15.296875 15.296875 9.5 22.425781 9.5 C 25.082031 9.5 27.550781 10.304688 29.605469 11.683594 C 30.058594 11.304688 30.515625 10.929688 30.96875 10.554688 C 30.085938 9.914062 29.132812 9.378906 28.117188 8.949219 C 26.3125 8.1875 24.398438 7.800781 22.425781 7.800781 C 20.449219 7.800781 18.535156 8.1875 16.730469 8.949219 C 14.992188 9.6875 13.425781 10.742188 12.082031 12.082031 C 10.742188 13.425781 9.6875 14.992188 8.949219 16.730469 C 8.1875 18.535156 7.800781 20.449219 7.800781 22.425781 C 7.800781 24.398438 8.1875 26.3125 8.949219 28.117188 C 9.6875 29.859375 10.742188 31.421875 12.082031 32.765625 C 13.425781 34.109375 14.992188 35.164062 16.730469 35.902344 C 18.535156 36.664062 20.449219 37.050781 22.425781 37.050781 C 24.398438 37.050781 26.3125 36.664062 28.117188 35.902344 C 29.859375 35.164062 31.421875 34.109375 32.765625 32.765625 C 34.109375 31.421875 35.164062 29.859375 35.902344 28.117188 C 36.664062 26.3125 37.050781 24.398438 37.050781 22.425781 C 37.050781 20.449219 36.664062 18.535156 35.902344 16.730469 C 35.839844 16.589844 35.777344 16.449219 35.710938 16.308594 "/></g><path style=" stroke:none;fill-rule:nonzero;fill:#ffffff;fill-opacity:1;" d="M 35.410156 11.78125 C 34.625 10.804688 33.195312 10.65625 32.226562 11.449219 C 28.808594 14.246094 25.511719 17.132812 22.335938 20.117188 C 20.96875 19.121094 19.597656 18.210938 18.230469 17.390625 C 17.472656 16.933594 16.496094 17.105469 15.933594 17.785156 C 15.273438 18.589844 15.433594 19.78125 16.285156 20.378906 C 17.402344 21.164062 18.488281 21.976562 19.53125 22.808594 C 18.109375 24.203125 16.71875 25.613281 15.347656 27.046875 C 14.738281 27.6875 14.703125 28.679688 15.261719 29.363281 C 15.917969 30.15625 17.109375 30.214844 17.839844 29.488281 C 19.320312 28.019531 20.820312 26.585938 22.339844 25.191406 C 23.691406 26.410156 24.972656 27.675781 26.175781 28.984375 C 27.09375 29.980469 28.683594 29.921875 29.53125 28.863281 C 30.261719 27.953125 30.15625 26.632812 29.296875 25.84375 C 27.996094 24.65625 26.699219 23.53125 25.398438 22.472656 C 28.488281 19.808594 31.664062 17.320312 34.941406 15.035156 C 36.007812 14.289062 36.222656 12.796875 35.410156 11.78125 "/></g></svg>