<svg xmlns="http://www.w3.org/2000/svg" xmlns:xlink="http://www.w3.org/1999/xlink" width="100" zoomAndPan="magnify" viewBox="0 0 75 74.999997" height="100" preserveAspectRatio="xMidYMid meet" version="1.0"><defs><clipPath id="5f3e1ed98b"><path d="M 7.5 0 L 70 0 L 70 75 L 7.5 75 Z M 7.5 0 " clip-rule="nonzero"/></clipPath><clipPath id="3eaf1fd859"><path d="M 14 9 L 63 9 L 63 67 L 14 67 Z M 14 9 " clip-rule="nonzero"/></clipPath><clipPath id="637ab8a56f"><path d="M 13.847656 9.226562 L 62.578125 7.871094 L 64.183594 65.597656 L 15.453125 66.953125 Z M 13.847656 9.226562 " clip-rule="nonzero"/></clipPath><clipPath id="c7ed0c6dde"><path d="M 13.847656 9.226562 L 62.578125 7.871094 L 64.183594 65.597656 L 15.453125 66.953125 Z M 13.847656 9.226562 " clip-rule="nonzero"/></clipPath><clipPath id="948d72703e"><path d="M 27 12 L 35 12 L 35 20 L 27 20 Z M 27 12 " clip-rule="nonzero"/></clipPath><clipPath id="393feb7e36"><path d="M 26.199219 16.964844 L 31.625 10.75 L 36.144531 14.695312 L 30.722656 20.910156 Z M 26.199219 16.964844 " clip-rule="nonzero"/></clipPath><clipPath id="96c8d2b035"><path d="M 26.199219 16.964844 L 31.625 10.75 L 36.144531 14.695312 L 30.722656 20.910156 Z M 26.199219 16.964844 " clip-rule="nonzero"/></clipPath><clipPath id="e735ca3f97"><path d="M 26.199219 16.964844 L 31.625 10.75 L 36.144531 14.695312 L 30.722656 20.910156 Z M 26.199219 16.964844 " clip-rule="nonzero"/></clipPath><clipPath id="1e87ad6eeb"><path d="M 23.839844 19.949219 L 28.339844 19.949219 L 28.339844 24.449219 L 23.839844 24.449219 Z M 23.839844 19.949219 " clip-rule="nonzero"/></clipPath></defs><g clip-path="url(#5f3e1ed98b)"><path fill="#fc9b0f" d="M 25.511719 3.457031 L 8.628906 36.664062 C 8.5 36.914062 8.386719 37.171875 8.289062 37.4375 C 8.191406 37.703125 8.109375 37.972656 8.042969 38.246094 C 7.976562 38.519531 7.925781 38.796875 7.890625 39.078125 C 7.859375 39.359375 7.839844 39.640625 7.839844 39.921875 C 7.839844 40.203125 7.855469 40.484375 7.886719 40.765625 C 7.917969 41.046875 7.964844 41.324219 8.03125 41.601562 C 8.09375 41.875 8.175781 42.144531 8.269531 42.410156 C 8.367188 42.675781 8.476562 42.9375 8.601562 43.1875 C 8.730469 43.441406 8.871094 43.683594 9.023438 43.921875 C 9.179688 44.15625 9.347656 44.382812 9.527344 44.601562 C 9.707031 44.816406 9.902344 45.023438 10.105469 45.21875 C 10.3125 45.410156 10.527344 45.59375 10.753906 45.761719 C 10.980469 45.929688 11.214844 46.085938 11.460938 46.226562 C 11.703125 46.367188 11.957031 46.496094 12.214844 46.605469 C 12.472656 46.71875 12.738281 46.816406 13.007812 46.898438 C 13.28125 46.976562 13.554688 47.042969 13.832031 47.09375 L 25.019531 49.0625 C 25.164062 49.089844 25.304688 49.132812 25.4375 49.191406 C 25.574219 49.25 25.699219 49.324219 25.816406 49.414062 C 25.933594 49.5 26.039062 49.601562 26.128906 49.71875 C 26.222656 49.832031 26.300781 49.953125 26.363281 50.085938 C 26.425781 50.21875 26.472656 50.359375 26.503906 50.503906 C 26.535156 50.644531 26.546875 50.792969 26.542969 50.9375 C 26.539062 51.085938 26.515625 51.230469 26.476562 51.371094 C 26.4375 51.511719 26.382812 51.648438 26.3125 51.777344 L 15.394531 71.464844 C 14.4375 73.191406 16.496094 75.015625 18.09375 73.851562 L 63.296875 40.933594 C 63.921875 40.480469 64.378906 39.894531 64.671875 39.179688 C 64.964844 38.46875 65.046875 37.730469 64.921875 36.96875 C 64.796875 36.207031 64.480469 35.535156 63.972656 34.957031 C 63.46875 34.375 62.847656 33.96875 62.109375 33.738281 L 56.089844 31.859375 L 68.128906 20.851562 C 68.300781 20.695312 68.460938 20.53125 68.609375 20.351562 C 68.757812 20.175781 68.894531 19.988281 69.019531 19.792969 C 69.144531 19.601562 69.253906 19.398438 69.355469 19.1875 C 69.453125 18.976562 69.535156 18.761719 69.605469 18.542969 C 69.675781 18.320312 69.734375 18.097656 69.773438 17.871094 C 69.8125 17.640625 69.839844 17.414062 69.851562 17.179688 C 69.863281 16.949219 69.859375 16.71875 69.839844 16.488281 C 69.820312 16.257812 69.785156 16.027344 69.734375 15.804688 C 69.6875 15.578125 69.621094 15.355469 69.542969 15.136719 C 69.464844 14.917969 69.375 14.707031 69.269531 14.5 C 69.160156 14.296875 69.042969 14.097656 68.910156 13.90625 C 68.78125 13.714844 68.636719 13.535156 68.480469 13.363281 C 68.324219 13.191406 68.160156 13.03125 67.980469 12.882812 C 67.804688 12.730469 67.621094 12.59375 67.425781 12.46875 C 67.230469 12.34375 67.03125 12.230469 66.820312 12.132812 C 66.609375 12.03125 66.394531 11.949219 66.175781 11.875 L 31.878906 0.808594 C 31.277344 0.613281 30.660156 0.53125 30.03125 0.554688 C 29.398438 0.582031 28.792969 0.714844 28.207031 0.960938 C 27.625 1.203125 27.101562 1.539062 26.636719 1.96875 C 26.175781 2.398438 25.800781 2.894531 25.511719 3.457031 Z M 25.511719 3.457031 " fill-opacity="1" fill-rule="nonzero"/></g><g clip-path="url(#3eaf1fd859)"><g clip-path="url(#637ab8a56f)"><g clip-path="url(#c7ed0c6dde)"><path fill="#ffe221" d="M 27.820312 11.507812 L 15.5 37.5 C 15.3125 37.894531 15.171875 38.308594 15.082031 38.734375 C 14.992188 39.164062 14.953125 39.597656 14.960938 40.035156 C 14.972656 40.472656 15.035156 40.902344 15.144531 41.324219 C 15.257812 41.746094 15.414062 42.152344 15.621094 42.539062 C 15.828125 42.925781 16.074219 43.28125 16.367188 43.609375 C 16.65625 43.9375 16.980469 44.226562 17.335938 44.476562 C 17.695312 44.730469 18.078125 44.9375 18.484375 45.101562 C 18.890625 45.261719 19.308594 45.375 19.742188 45.4375 L 28.417969 46.722656 C 28.648438 46.753906 28.855469 46.839844 29.042969 46.972656 C 29.226562 47.109375 29.375 47.277344 29.480469 47.484375 C 29.582031 47.6875 29.636719 47.90625 29.636719 48.136719 C 29.632812 48.367188 29.582031 48.582031 29.476562 48.789062 L 21.46875 64.21875 C 20.765625 65.574219 22.398438 66.9375 23.605469 66.003906 L 57.789062 39.625 C 58.261719 39.261719 58.601562 38.800781 58.8125 38.242188 C 59.023438 37.6875 59.074219 37.113281 58.960938 36.53125 C 58.847656 35.945312 58.585938 35.433594 58.183594 34.996094 C 57.78125 34.558594 57.292969 34.257812 56.71875 34.097656 L 52.03125 32.777344 L 61.089844 24.019531 C 61.21875 23.898438 61.339844 23.765625 61.449219 23.625 C 61.5625 23.484375 61.664062 23.339844 61.753906 23.183594 C 61.847656 23.03125 61.929688 22.875 62 22.710938 C 62.070312 22.546875 62.132812 22.378906 62.179688 22.207031 C 62.230469 22.035156 62.269531 21.859375 62.296875 21.683594 C 62.320312 21.507812 62.335938 21.328125 62.339844 21.148438 C 62.34375 20.972656 62.335938 20.792969 62.316406 20.617188 C 62.296875 20.4375 62.265625 20.261719 62.222656 20.089844 C 62.179688 19.914062 62.125 19.746094 62.058594 19.578125 C 61.996094 19.410156 61.917969 19.25 61.832031 19.09375 C 61.746094 18.9375 61.652344 18.785156 61.542969 18.644531 C 61.4375 18.5 61.324219 18.363281 61.199219 18.234375 C 61.078125 18.105469 60.945312 17.984375 60.804688 17.871094 C 60.667969 17.761719 60.519531 17.65625 60.367188 17.566406 C 60.214844 17.472656 60.054688 17.390625 59.890625 17.316406 C 59.730469 17.246094 59.5625 17.183594 59.390625 17.132812 L 32.679688 9.328125 C 32.210938 9.191406 31.734375 9.136719 31.246094 9.171875 C 30.757812 9.203125 30.292969 9.320312 29.847656 9.523438 C 29.402344 9.722656 29.007812 9.992188 28.660156 10.332031 C 28.308594 10.675781 28.03125 11.066406 27.820312 11.507812 Z M 27.820312 11.507812 " fill-opacity="1" fill-rule="nonzero"/></g></g></g><g clip-path="url(#948d72703e)"><g clip-path="url(#393feb7e36)"><g clip-path="url(#96c8d2b035)"><g clip-path="url(#e735ca3f97)"><path fill="#ffffff" d="M 33.882812 12.722656 C 34.183594 12.980469 34.402344 13.3125 34.542969 13.710938 C 34.679688 14.109375 34.730469 14.546875 34.6875 15.023438 C 34.644531 15.5 34.515625 15.980469 34.296875 16.460938 C 34.078125 16.941406 33.789062 17.386719 33.429688 17.800781 C 33.070312 18.210938 32.667969 18.558594 32.222656 18.839844 C 31.773438 19.121094 31.316406 19.3125 30.851562 19.421875 C 30.386719 19.527344 29.945312 19.539062 29.53125 19.453125 C 29.117188 19.371094 28.761719 19.199219 28.460938 18.9375 C 28.160156 18.675781 27.941406 18.347656 27.804688 17.945312 C 27.664062 17.546875 27.617188 17.109375 27.660156 16.632812 C 27.699219 16.15625 27.832031 15.679688 28.046875 15.199219 C 28.265625 14.71875 28.554688 14.269531 28.914062 13.859375 C 29.273438 13.445312 29.675781 13.101562 30.125 12.820312 C 30.570312 12.539062 31.027344 12.34375 31.492188 12.238281 C 31.960938 12.132812 32.398438 12.121094 32.8125 12.203125 C 33.226562 12.289062 33.585938 12.460938 33.882812 12.722656 Z M 33.882812 12.722656 " fill-opacity="1" fill-rule="nonzero"/></g></g></g></g><g clip-path="url(#1e87ad6eeb)"><path fill="#ffffff" d="M 28.339844 22.199219 C 28.339844 22.5 28.28125 22.785156 28.167969 23.0625 C 28.050781 23.335938 27.890625 23.578125 27.679688 23.789062 C 27.46875 24 27.226562 24.164062 26.949219 24.277344 C 26.671875 24.394531 26.386719 24.449219 26.089844 24.449219 C 25.789062 24.449219 25.503906 24.394531 25.226562 24.277344 C 24.953125 24.164062 24.707031 24 24.496094 23.789062 C 24.285156 23.578125 24.125 23.335938 24.007812 23.0625 C 23.894531 22.785156 23.839844 22.5 23.839844 22.199219 C 23.839844 21.902344 23.894531 21.613281 24.007812 21.339844 C 24.125 21.0625 24.285156 20.820312 24.496094 20.609375 C 24.707031 20.398438 24.953125 20.234375 25.226562 20.121094 C 25.503906 20.007812 25.789062 19.949219 26.089844 19.949219 C 26.386719 19.949219 26.671875 20.007812 26.949219 20.121094 C 27.226562 20.234375 27.46875 20.398438 27.679688 20.609375 C 27.890625 20.820312 28.050781 21.0625 28.167969 21.339844 C 28.28125 21.613281 28.339844 21.902344 28.339844 22.199219 Z M 28.339844 22.199219 " fill-opacity="1" fill-rule="nonzero"/></g></svg>