<svg xmlns="http://www.w3.org/2000/svg" xmlns:xlink="http://www.w3.org/1999/xlink" width="100" zoomAndPan="magnify" viewBox="0 0 75 74.999997" height="100" preserveAspectRatio="xMidYMid meet" version="1.0"><defs><clipPath id="2a430f0a6c"><path d="M 11 2 L 74 2 L 74 73 L 11 73 Z M 11 2 " clip-rule="nonzero"/></clipPath><clipPath id="8e5b106d23"><path d="M 25.234375 -8.4375 L 79.109375 14.351562 L 49.597656 84.117188 L -4.28125 61.324219 Z M 25.234375 -8.4375 " clip-rule="nonzero"/></clipPath><clipPath id="e502f0e836"><path d="M 25.234375 -8.4375 L 79.109375 14.351562 L 49.597656 84.117188 L -4.28125 61.324219 Z M 25.234375 -8.4375 " clip-rule="nonzero"/></clipPath><clipPath id="9046616ce2"><path d="M 16 10 L 67 10 L 67 68 L 16 68 Z M 16 10 " clip-rule="nonzero"/></clipPath><clipPath id="5b37eb5187"><path d="M 27.566406 1.453125 L 71.082031 19.863281 L 47.121094 76.5 L 3.605469 58.089844 Z M 27.566406 1.453125 " clip-rule="nonzero"/></clipPath><clipPath id="b466b26eea"><path d="M 27.566406 1.453125 L 71.082031 19.863281 L 47.121094 76.5 L 3.605469 58.089844 Z M 27.566406 1.453125 " clip-rule="nonzero"/></clipPath><clipPath id="30959f97b7"><path d="M 25.199219 13.648438 L 30.449219 13.648438 L 30.449219 18.898438 L 25.199219 18.898438 Z M 25.199219 13.648438 " clip-rule="nonzero"/></clipPath><clipPath id="b2687ea964"><path d="M 19 21 L 29 21 L 29 39 L 19 39 Z M 19 21 " clip-rule="nonzero"/></clipPath><clipPath id="34642b3cc5"><path d="M 12.703125 36.214844 L 17.992188 19.011719 L 35.199219 24.304688 L 29.90625 41.507812 Z M 12.703125 36.214844 " clip-rule="nonzero"/></clipPath><clipPath id="d4cad13169"><path d="M 12.703125 36.214844 L 17.992188 19.011719 L 35.199219 24.304688 L 29.90625 41.507812 Z M 12.703125 36.214844 " clip-rule="nonzero"/></clipPath></defs><g clip-path="url(#2a430f0a6c)"><g clip-path="url(#8e5b106d23)"><g clip-path="url(#e502f0e836)"><path fill="#fc9b0f" d="M 12.734375 30.011719 C 9.765625 41.132812 11.171875 52.8125 16.714844 62.925781 L 21.078125 70.90625 C 21.484375 71.628906 22.117188 72.1875 22.851562 72.5 C 23.589844 72.8125 24.429688 72.878906 25.234375 72.664062 L 34 70.238281 C 45.117188 67.171875 54.480469 60.046875 60.394531 50.171875 L 72.652344 29.660156 C 73.46875 28.292969 73.328125 26.574219 72.253906 25.382812 L 53.433594 4.203125 C 52.726562 3.378906 51.65625 2.925781 50.574219 2.992188 L 22.265625 4.234375 C 20.664062 4.292969 19.332031 5.390625 18.917969 6.925781 Z M 12.734375 30.011719 " fill-opacity="1" fill-rule="nonzero"/></g></g></g><g clip-path="url(#9046616ce2)"><g clip-path="url(#5b37eb5187)"><g clip-path="url(#b466b26eea)"><path fill="#1a7cff" d="M 17.445312 32.585938 C 15.042969 41.589844 16.179688 51.046875 20.667969 59.238281 L 24.203125 65.699219 C 24.53125 66.285156 25.042969 66.738281 25.640625 66.988281 C 26.238281 67.242188 26.917969 67.296875 27.566406 67.121094 L 34.667969 65.15625 C 43.667969 62.675781 51.246094 56.90625 56.039062 48.914062 L 65.964844 32.300781 C 66.625 31.195312 66.507812 29.804688 65.636719 28.839844 L 50.398438 11.6875 C 49.828125 11.019531 48.960938 10.652344 48.085938 10.710938 L 25.164062 11.714844 C 23.867188 11.765625 22.789062 12.652344 22.453125 13.894531 Z M 17.445312 32.585938 " fill-opacity="1" fill-rule="nonzero"/></g></g></g><g clip-path="url(#30959f97b7)"><path fill="#ffffff" d="M 30.449219 16.273438 C 30.449219 16.625 30.382812 16.957031 30.25 17.28125 C 30.117188 17.601562 29.925781 17.886719 29.679688 18.132812 C 29.433594 18.378906 29.152344 18.566406 28.828125 18.699219 C 28.507812 18.832031 28.171875 18.898438 27.824219 18.898438 C 27.476562 18.898438 27.140625 18.832031 26.820312 18.699219 C 26.5 18.566406 26.214844 18.378906 25.96875 18.132812 C 25.722656 17.886719 25.53125 17.601562 25.398438 17.28125 C 25.265625 16.957031 25.199219 16.625 25.199219 16.273438 C 25.199219 15.925781 25.265625 15.59375 25.398438 15.269531 C 25.53125 14.949219 25.722656 14.664062 25.96875 14.417969 C 26.214844 14.171875 26.5 13.984375 26.820312 13.851562 C 27.140625 13.714844 27.476562 13.648438 27.824219 13.648438 C 28.171875 13.648438 28.507812 13.714844 28.828125 13.851562 C 29.152344 13.984375 29.433594 14.171875 29.679688 14.417969 C 29.925781 14.664062 30.117188 14.949219 30.25 15.269531 C 30.382812 15.59375 30.449219 15.925781 30.449219 16.273438 Z M 30.449219 16.273438 " fill-opacity="1" fill-rule="nonzero"/></g><g clip-path="url(#b2687ea964)"><g clip-path="url(#34642b3cc5)"><g clip-path="url(#d4cad13169)"><path fill="#ffffff" d="M 19.785156 36.074219 L 23.742188 23.210938 C 23.828125 22.929688 23.964844 22.675781 24.152344 22.449219 C 24.339844 22.222656 24.5625 22.039062 24.824219 21.902344 C 25.082031 21.765625 25.359375 21.683594 25.652344 21.65625 C 25.945312 21.625 26.234375 21.65625 26.515625 21.742188 C 26.796875 21.828125 27.050781 21.964844 27.277344 22.152344 C 27.503906 22.339844 27.6875 22.566406 27.824219 22.824219 C 27.960938 23.085938 28.042969 23.363281 28.070312 23.65625 C 28.101562 23.949219 28.070312 24.234375 27.984375 24.515625 L 24.027344 37.378906 C 23.941406 37.660156 23.804688 37.914062 23.617188 38.140625 C 23.429688 38.367188 23.207031 38.550781 22.945312 38.6875 C 22.6875 38.824219 22.410156 38.90625 22.117188 38.933594 C 21.824219 38.960938 21.535156 38.933594 21.253906 38.847656 C 20.972656 38.761719 20.71875 38.625 20.492188 38.4375 C 20.265625 38.246094 20.082031 38.023438 19.945312 37.765625 C 19.808594 37.503906 19.726562 37.226562 19.699219 36.933594 C 19.667969 36.640625 19.699219 36.355469 19.785156 36.074219 Z M 19.785156 36.074219 " fill-opacity="1" fill-rule="nonzero"/></g></g></g></svg>