<svg xmlns="http://www.w3.org/2000/svg" xmlns:xlink="http://www.w3.org/1999/xlink" width="100" zoomAndPan="magnify" viewBox="0 0 75 74.999997" height="100" preserveAspectRatio="xMidYMid meet" version="1.0"><defs><filter x="0%" y="0%" width="100%" height="100%" id="e4b8b51db2"><feColorMatrix values="0 0 0 0 1 0 0 0 0 1 0 0 0 0 1 0 0 0 1 0" color-interpolation-filters="sRGB"/></filter><clipPath id="9ce034ebc9"><path d="M 3 2 L 27 2 L 27 26 L 3 26 Z M 3 2 " clip-rule="nonzero"/></clipPath><clipPath id="5052577e5b"><path d="M -10.878906 17.535156 L 18.289062 -11.632812 L 79.277344 49.355469 L 50.109375 78.523438 Z M -10.878906 17.535156 " clip-rule="nonzero"/></clipPath><clipPath id="04c79b0038"><path d="M -10.878906 17.535156 L 18.289062 -11.632812 L 79.277344 49.355469 L 50.109375 78.523438 Z M -10.878906 17.535156 " clip-rule="nonzero"/></clipPath><clipPath id="e1169cf6cd"><path d="M 15 15 L 75 15 L 75 74 L 15 74 Z M 15 15 " clip-rule="nonzero"/></clipPath><clipPath id="9917042611"><path d="M -10.878906 17.535156 L 18.289062 -11.632812 L 79.277344 49.355469 L 50.109375 78.523438 Z M -10.878906 17.535156 " clip-rule="nonzero"/></clipPath><clipPath id="162ef0ad69"><path d="M -10.878906 17.535156 L 18.289062 -11.632812 L 79.277344 49.355469 L 50.109375 78.523438 Z M -10.878906 17.535156 " clip-rule="nonzero"/></clipPath><clipPath id="156479b4b5"><path d="M 14 13 L 35 13 L 35 34 L 14 34 Z M 14 13 " clip-rule="nonzero"/></clipPath><clipPath id="0a6389121a"><path d="M -10.878906 17.535156 L 18.289062 -11.632812 L 79.277344 49.355469 L 50.109375 78.523438 Z M -10.878906 17.535156 " clip-rule="nonzero"/></clipPath><clipPath id="8e211cad30"><path d="M -10.878906 17.535156 L 18.289062 -11.632812 L 79.277344 49.355469 L 50.109375 78.523438 Z M -10.878906 17.535156 " clip-rule="nonzero"/></clipPath><clipPath id="9d8083ad49"><path d="M 13 31 L 28 31 L 28 46 L 13 46 Z M 13 31 " clip-rule="nonzero"/></clipPath><clipPath id="7739452886"><path d="M -10.878906 17.535156 L 18.289062 -11.632812 L 79.277344 49.355469 L 50.109375 78.523438 Z M -10.878906 17.535156 " clip-rule="nonzero"/></clipPath><clipPath id="60c6d40d80"><path d="M -10.878906 17.535156 L 18.289062 -11.632812 L 79.277344 49.355469 L 50.109375 78.523438 Z M -10.878906 17.535156 " clip-rule="nonzero"/></clipPath><mask id="46471d5bc4"><g filter="url(#e4b8b51db2)"><rect x="-7.5" width="90" fill="#000000" y="-7.5" height="89.999996" fill-opacity="0.7"/></g></mask><clipPath id="1488aeac66"><path d="M 3 1 L 11 1 L 11 13 L 3 13 Z M 3 1 " clip-rule="nonzero"/></clipPath><clipPath id="beb87ea8fb"><path d="M -23.878906 -13.464844 L 5.289062 -42.632812 L 66.277344 18.355469 L 37.109375 47.523438 Z M -23.878906 -13.464844 " clip-rule="nonzero"/></clipPath><clipPath id="f32056b2c0"><path d="M -23.878906 -13.464844 L 5.289062 -42.632812 L 66.277344 18.355469 L 37.109375 47.523438 Z M -23.878906 -13.464844 " clip-rule="nonzero"/></clipPath><clipPath id="1e8fa36c93"><rect x="0" width="15" y="0" height="15"/></clipPath><clipPath id="f15f5f4e8d"><path d="M 22 21 L 71 21 L 71 70 L 22 70 Z M 22 21 " clip-rule="nonzero"/></clipPath><clipPath id="e3e99268c7"><path d="M -10.878906 17.535156 L 18.289062 -11.632812 L 79.277344 49.355469 L 50.109375 78.523438 Z M -10.878906 17.535156 " clip-rule="nonzero"/></clipPath><clipPath id="001c2e05bd"><path d="M -10.878906 17.535156 L 18.289062 -11.632812 L 79.277344 49.355469 L 50.109375 78.523438 Z M -10.878906 17.535156 " clip-rule="nonzero"/></clipPath><clipPath id="6acec6023c"><path d="M 37 51 L 44 51 L 44 58 L 37 58 Z M 37 51 " clip-rule="nonzero"/></clipPath><clipPath id="7040ee230d"><path d="M -10.878906 17.535156 L 18.289062 -11.632812 L 79.277344 49.355469 L 50.109375 78.523438 Z M -10.878906 17.535156 " clip-rule="nonzero"/></clipPath><clipPath id="08678828d6"><path d="M -10.878906 17.535156 L 18.289062 -11.632812 L 79.277344 49.355469 L 50.109375 78.523438 Z M -10.878906 17.535156 " clip-rule="nonzero"/></clipPath><clipPath id="26d6387ca0"><path d="M 41 55 L 49 55 L 49 63 L 41 63 Z M 41 55 " clip-rule="nonzero"/></clipPath><clipPath id="8caa4cd15a"><path d="M -10.878906 17.535156 L 18.289062 -11.632812 L 79.277344 49.355469 L 50.109375 78.523438 Z M -10.878906 17.535156 " clip-rule="nonzero"/></clipPath><clipPath id="3ec6262674"><path d="M -10.878906 17.535156 L 18.289062 -11.632812 L 79.277344 49.355469 L 50.109375 78.523438 Z M -10.878906 17.535156 " clip-rule="nonzero"/></clipPath><clipPath id="3fa7419a05"><path d="M 32 47 L 40 47 L 40 54 L 32 54 Z M 32 47 " clip-rule="nonzero"/></clipPath><clipPath id="7e29969dd4"><path d="M -10.878906 17.535156 L 18.289062 -11.632812 L 79.277344 49.355469 L 50.109375 78.523438 Z M -10.878906 17.535156 " clip-rule="nonzero"/></clipPath><clipPath id="a35c5712d8"><path d="M -10.878906 17.535156 L 18.289062 -11.632812 L 79.277344 49.355469 L 50.109375 78.523438 Z M -10.878906 17.535156 " clip-rule="nonzero"/></clipPath><clipPath id="eb4d7fcbdc"><path d="M 28 42 L 35 42 L 35 50 L 28 50 Z M 28 42 " clip-rule="nonzero"/></clipPath><clipPath id="07f77ec58e"><path d="M -10.878906 17.535156 L 18.289062 -11.632812 L 79.277344 49.355469 L 50.109375 78.523438 Z M -10.878906 17.535156 " clip-rule="nonzero"/></clipPath><clipPath id="300d625ae1"><path d="M -10.878906 17.535156 L 18.289062 -11.632812 L 79.277344 49.355469 L 50.109375 78.523438 Z M -10.878906 17.535156 " clip-rule="nonzero"/></clipPath><clipPath id="53840c2e00"><path d="M 5 4 L 34 4 L 34 33 L 5 33 Z M 5 4 " clip-rule="nonzero"/></clipPath><clipPath id="101f1101b1"><path d="M -10.878906 17.535156 L 18.289062 -11.632812 L 79.277344 49.355469 L 50.109375 78.523438 Z M -10.878906 17.535156 " clip-rule="nonzero"/></clipPath><clipPath id="2366b5d25f"><path d="M -10.878906 17.535156 L 18.289062 -11.632812 L 79.277344 49.355469 L 50.109375 78.523438 Z M -10.878906 17.535156 " clip-rule="nonzero"/></clipPath><clipPath id="bb49faeebf"><path d="M 21 8 L 30 8 L 30 17 L 21 17 Z M 21 8 " clip-rule="nonzero"/></clipPath><clipPath id="0f885d2353"><path d="M -10.878906 17.535156 L 18.289062 -11.632812 L 79.277344 49.355469 L 50.109375 78.523438 Z M -10.878906 17.535156 " clip-rule="nonzero"/></clipPath><clipPath id="eff89b58da"><path d="M -10.878906 17.535156 L 18.289062 -11.632812 L 79.277344 49.355469 L 50.109375 78.523438 Z M -10.878906 17.535156 " clip-rule="nonzero"/></clipPath><clipPath id="0c4b54fbb5"><path d="M 8 21 L 17 21 L 17 30 L 8 30 Z M 8 21 " clip-rule="nonzero"/></clipPath><clipPath id="b9a1ec5f08"><path d="M -10.878906 17.535156 L 18.289062 -11.632812 L 79.277344 49.355469 L 50.109375 78.523438 Z M -10.878906 17.535156 " clip-rule="nonzero"/></clipPath><clipPath id="ad4bb7b8e9"><path d="M -10.878906 17.535156 L 18.289062 -11.632812 L 79.277344 49.355469 L 50.109375 78.523438 Z M -10.878906 17.535156 " clip-rule="nonzero"/></clipPath><clipPath id="f88780eea6"><path d="M 17 12 L 26 12 L 26 21 L 17 21 Z M 17 12 " clip-rule="nonzero"/></clipPath><clipPath id="bf8c68c289"><path d="M -10.878906 17.535156 L 18.289062 -11.632812 L 79.277344 49.355469 L 50.109375 78.523438 Z M -10.878906 17.535156 " clip-rule="nonzero"/></clipPath><clipPath id="327f1547c0"><path d="M -10.878906 17.535156 L 18.289062 -11.632812 L 79.277344 49.355469 L 50.109375 78.523438 Z M -10.878906 17.535156 " clip-rule="nonzero"/></clipPath><clipPath id="03928e20dd"><path d="M 13 17 L 22 17 L 22 25 L 13 25 Z M 13 17 " clip-rule="nonzero"/></clipPath><clipPath id="e6b0d4c669"><path d="M -10.878906 17.535156 L 18.289062 -11.632812 L 79.277344 49.355469 L 50.109375 78.523438 Z M -10.878906 17.535156 " clip-rule="nonzero"/></clipPath><clipPath id="6d0220d78a"><path d="M -10.878906 17.535156 L 18.289062 -11.632812 L 79.277344 49.355469 L 50.109375 78.523438 Z M -10.878906 17.535156 " clip-rule="nonzero"/></clipPath><clipPath id="6cdceed689"><path d="M 8 7 L 29 7 L 29 28 L 8 28 Z M 8 7 " clip-rule="nonzero"/></clipPath><clipPath id="75a892def1"><path d="M -2.855469 20.398438 L 21.007812 -3.46875 L 71.390625 46.914062 L 47.527344 70.777344 Z M -2.855469 20.398438 " clip-rule="nonzero"/></clipPath><clipPath id="0d99f1eebd"><path d="M -2.855469 20.398438 L 21.007812 -3.46875 L 71.390625 46.914062 L 47.527344 70.777344 Z M -2.855469 20.398438 " clip-rule="nonzero"/></clipPath><clipPath id="1f5cf1c30e"><path d="M 19 18 L 67 18 L 67 67 L 19 67 Z M 19 18 " clip-rule="nonzero"/></clipPath><clipPath id="5955e688a7"><path d="M -2.855469 20.398438 L 21.007812 -3.46875 L 71.390625 46.914062 L 47.527344 70.777344 Z M -2.855469 20.398438 " clip-rule="nonzero"/></clipPath><clipPath id="3ab8f229e4"><path d="M -2.855469 20.398438 L 21.007812 -3.46875 L 71.390625 46.914062 L 47.527344 70.777344 Z M -2.855469 20.398438 " clip-rule="nonzero"/></clipPath><clipPath id="e29dba7738"><path d="M 17 16 L 35 16 L 35 34 L 17 34 Z M 17 16 " clip-rule="nonzero"/></clipPath><clipPath id="6cfdf8b1c7"><path d="M -2.855469 20.398438 L 21.007812 -3.46875 L 71.390625 46.914062 L 47.527344 70.777344 Z M -2.855469 20.398438 " clip-rule="nonzero"/></clipPath><clipPath id="a4bcd2a1f7"><path d="M -2.855469 20.398438 L 21.007812 -3.46875 L 71.390625 46.914062 L 47.527344 70.777344 Z M -2.855469 20.398438 " clip-rule="nonzero"/></clipPath><clipPath id="5c1846fabb"><path d="M 17 31 L 29 31 L 29 43 L 17 43 Z M 17 31 " clip-rule="nonzero"/></clipPath><clipPath id="c1ed9143c0"><path d="M -2.855469 20.398438 L 21.007812 -3.46875 L 71.390625 46.914062 L 47.527344 70.777344 Z M -2.855469 20.398438 " clip-rule="nonzero"/></clipPath><clipPath id="82a7bd915b"><path d="M -2.855469 20.398438 L 21.007812 -3.46875 L 71.390625 46.914062 L 47.527344 70.777344 Z M -2.855469 20.398438 " clip-rule="nonzero"/></clipPath><mask id="b250ee5a64"><g filter="url(#e4b8b51db2)"><rect x="-7.5" width="90" fill="#000000" y="-7.5" height="89.999996" fill-opacity="0.7"/></g></mask><clipPath id="de7262f975"><path d="M 3 1 L 9 1 L 9 11.960938 L 3 11.960938 Z M 3 1 " clip-rule="nonzero"/></clipPath><clipPath id="72e0a7de45"><path d="M -19.855469 -10.601562 L 4.007812 -34.46875 L 54.390625 15.914062 L 30.527344 39.777344 Z M -19.855469 -10.601562 " clip-rule="nonzero"/></clipPath><clipPath id="6cf8df6fbf"><path d="M -19.855469 -10.601562 L 4.007812 -34.46875 L 54.390625 15.914062 L 30.527344 39.777344 Z M -19.855469 -10.601562 " clip-rule="nonzero"/></clipPath><clipPath id="0bcf7ae6fc"><rect x="0" width="12" y="0" height="12"/></clipPath><clipPath id="bdf174ef94"><path d="M 24 23 L 64 23 L 64 64 L 24 64 Z M 24 23 " clip-rule="nonzero"/></clipPath><clipPath id="f1aff60138"><path d="M -2.855469 20.398438 L 21.007812 -3.46875 L 71.390625 46.914062 L 47.527344 70.777344 Z M -2.855469 20.398438 " clip-rule="nonzero"/></clipPath><clipPath id="ada631b93a"><path d="M -2.855469 20.398438 L 21.007812 -3.46875 L 71.390625 46.914062 L 47.527344 70.777344 Z M -2.855469 20.398438 " clip-rule="nonzero"/></clipPath><clipPath id="4f6581277e"><path d="M 36 48 L 42 48 L 42 54 L 36 54 Z M 36 48 " clip-rule="nonzero"/></clipPath><clipPath id="0b20222ccb"><path d="M -2.855469 20.398438 L 21.007812 -3.46875 L 71.390625 46.914062 L 47.527344 70.777344 Z M -2.855469 20.398438 " clip-rule="nonzero"/></clipPath><clipPath id="c2857c0f59"><path d="M -2.855469 20.398438 L 21.007812 -3.46875 L 71.390625 46.914062 L 47.527344 70.777344 Z M -2.855469 20.398438 " clip-rule="nonzero"/></clipPath><clipPath id="bdeb2c180a"><path d="M 40 51 L 46 51 L 46 58 L 40 58 Z M 40 51 " clip-rule="nonzero"/></clipPath><clipPath id="56056d2e74"><path d="M -2.855469 20.398438 L 21.007812 -3.46875 L 71.390625 46.914062 L 47.527344 70.777344 Z M -2.855469 20.398438 " clip-rule="nonzero"/></clipPath><clipPath id="78c3d68c4e"><path d="M -2.855469 20.398438 L 21.007812 -3.46875 L 71.390625 46.914062 L 47.527344 70.777344 Z M -2.855469 20.398438 " clip-rule="nonzero"/></clipPath><clipPath id="8819b768c9"><path d="M 33 44 L 39 44 L 39 51 L 33 51 Z M 33 44 " clip-rule="nonzero"/></clipPath><clipPath id="a6173b28c6"><path d="M -2.855469 20.398438 L 21.007812 -3.46875 L 71.390625 46.914062 L 47.527344 70.777344 Z M -2.855469 20.398438 " clip-rule="nonzero"/></clipPath><clipPath id="24fdcf3075"><path d="M -2.855469 20.398438 L 21.007812 -3.46875 L 71.390625 46.914062 L 47.527344 70.777344 Z M -2.855469 20.398438 " clip-rule="nonzero"/></clipPath><clipPath id="8589296fca"><path d="M 29 41 L 35 41 L 35 47 L 29 47 Z M 29 41 " clip-rule="nonzero"/></clipPath><clipPath id="becb6313ea"><path d="M -2.855469 20.398438 L 21.007812 -3.46875 L 71.390625 46.914062 L 47.527344 70.777344 Z M -2.855469 20.398438 " clip-rule="nonzero"/></clipPath><clipPath id="521ea0aec9"><path d="M -2.855469 20.398438 L 21.007812 -3.46875 L 71.390625 46.914062 L 47.527344 70.777344 Z M -2.855469 20.398438 " clip-rule="nonzero"/></clipPath><clipPath id="bac5077711"><path d="M 10 10 L 34 10 L 34 33 L 10 33 Z M 10 10 " clip-rule="nonzero"/></clipPath><clipPath id="27dfa1e5d2"><path d="M -2.855469 20.398438 L 21.007812 -3.46875 L 71.390625 46.914062 L 47.527344 70.777344 Z M -2.855469 20.398438 " clip-rule="nonzero"/></clipPath><clipPath id="31503da6a3"><path d="M -2.855469 20.398438 L 21.007812 -3.46875 L 71.390625 46.914062 L 47.527344 70.777344 Z M -2.855469 20.398438 " clip-rule="nonzero"/></clipPath><clipPath id="e122f482ed"><path d="M 23 12 L 31 12 L 31 20 L 23 20 Z M 23 12 " clip-rule="nonzero"/></clipPath><clipPath id="b14b224555"><path d="M -2.855469 20.398438 L 21.007812 -3.46875 L 71.390625 46.914062 L 47.527344 70.777344 Z M -2.855469 20.398438 " clip-rule="nonzero"/></clipPath><clipPath id="61b0153b4b"><path d="M -2.855469 20.398438 L 21.007812 -3.46875 L 71.390625 46.914062 L 47.527344 70.777344 Z M -2.855469 20.398438 " clip-rule="nonzero"/></clipPath><clipPath id="6d601f93b5"><path d="M 13 23 L 20 23 L 20 30 L 13 30 Z M 13 23 " clip-rule="nonzero"/></clipPath><clipPath id="beb2216fed"><path d="M -2.855469 20.398438 L 21.007812 -3.46875 L 71.390625 46.914062 L 47.527344 70.777344 Z M -2.855469 20.398438 " clip-rule="nonzero"/></clipPath><clipPath id="67e86dcbd5"><path d="M -2.855469 20.398438 L 21.007812 -3.46875 L 71.390625 46.914062 L 47.527344 70.777344 Z M -2.855469 20.398438 " clip-rule="nonzero"/></clipPath><clipPath id="70e465fb13"><path d="M 20 16 L 28 16 L 28 23 L 20 23 Z M 20 16 " clip-rule="nonzero"/></clipPath><clipPath id="09729d3b87"><path d="M -2.855469 20.398438 L 21.007812 -3.46875 L 71.390625 46.914062 L 47.527344 70.777344 Z M -2.855469 20.398438 " clip-rule="nonzero"/></clipPath><clipPath id="bed2607aae"><path d="M -2.855469 20.398438 L 21.007812 -3.46875 L 71.390625 46.914062 L 47.527344 70.777344 Z M -2.855469 20.398438 " clip-rule="nonzero"/></clipPath><clipPath id="437de2d02d"><path d="M 16 20 L 24 20 L 24 27 L 16 27 Z M 16 20 " clip-rule="nonzero"/></clipPath><clipPath id="eef91e72ca"><path d="M -2.855469 20.398438 L 21.007812 -3.46875 L 71.390625 46.914062 L 47.527344 70.777344 Z M -2.855469 20.398438 " clip-rule="nonzero"/></clipPath><clipPath id="93a3fda814"><path d="M -2.855469 20.398438 L 21.007812 -3.46875 L 71.390625 46.914062 L 47.527344 70.777344 Z M -2.855469 20.398438 " clip-rule="nonzero"/></clipPath></defs><g clip-path="url(#9ce034ebc9)"><g clip-path="url(#5052577e5b)"><g clip-path="url(#04c79b0038)"><path fill="#fc9b0f" d="M 7.984375 22.085938 C 7.929688 21.121094 8.253906 20.0625 8.394531 19.132812 C 8.546875 18.136719 8.535156 17.121094 8.59375 16.105469 C 8.660156 15.15625 8.675781 14.203125 8.410156 13.273438 C 8.324219 12.800781 8.066406 12.429688 7.808594 12.058594 C 7.042969 10.945312 5.640625 10.625 4.695312 9.742188 C 3.75 8.859375 3.195312 7.671875 3.203125 6.394531 C 3.207031 3.457031 6.207031 1.128906 9.019531 2.34375 C 9.753906 2.652344 10.398438 3.304688 10.933594 3.875 C 11.613281 4.589844 11.882812 5.5625 12.613281 6.265625 C 13.371094 6.980469 14.40625 7.332031 15.433594 7.402344 C 16.769531 7.515625 18.140625 7.339844 19.457031 7.089844 C 20.21875 6.945312 20.984375 6.785156 21.746094 6.660156 C 23.492188 6.257812 24.714844 7.125 25.78125 8.351562 C 26.15625 8.777344 26.519531 9.222656 26.738281 9.769531 C 26.648438 10.140625 26.285156 10.277344 26.074219 10.542969 C 25.644531 10.863281 25.296875 11.265625 24.894531 11.605469 C 24.484375 11.96875 24.09375 12.332031 23.707031 12.722656 C 23.339844 13.042969 23.019531 13.4375 22.636719 13.746094 C 22.25 14.105469 21.90625 14.476562 21.542969 14.839844 C 21.148438 15.207031 20.789062 15.59375 20.40625 15.976562 C 20.046875 16.335938 19.695312 16.707031 19.34375 17.066406 C 18.996094 17.464844 18.613281 17.8125 18.273438 18.179688 C 17.910156 18.546875 17.542969 18.910156 17.1875 19.273438 C 16.84375 19.65625 16.464844 20 16.121094 20.378906 C 15.78125 20.71875 15.441406 21.066406 15.117188 21.4375 C 14.757812 21.859375 14.375 22.238281 14.003906 22.632812 C 13.691406 22.976562 13.359375 23.3125 13.082031 23.671875 C 12.734375 24.089844 12.332031 24.472656 12.003906 24.898438 C 11.738281 25.113281 11.65625 25.511719 11.257812 25.582031 C 10.089844 24.886719 9.039062 24.066406 8.332031 22.878906 C 8.1875 22.636719 8.042969 22.617188 8.003906 22.300781 C 7.996094 22.230469 7.988281 22.160156 7.984375 22.085938 Z M 7.984375 22.085938 " fill-opacity="1" fill-rule="nonzero"/></g></g></g><g clip-path="url(#e1169cf6cd)"><g clip-path="url(#9917042611)"><g clip-path="url(#162ef0ad69)"><path fill="#fc9b0f" d="M 47.265625 18.277344 C 43.304688 15.414062 38.945312 14.625 34.199219 15.488281 C 33.160156 16.207031 32.328125 17.152344 31.445312 18.035156 C 26.761719 22.710938 22.085938 27.394531 17.40625 32.070312 C 17.035156 32.4375 16.679688 32.800781 16.363281 33.207031 C 16.101562 33.414062 16.058594 33.71875 16.058594 34.019531 C 16.027344 35.019531 16.015625 36.027344 15.96875 37.035156 C 15.828125 40.5625 16.867188 43.707031 18.855469 46.609375 L 30.515625 58.929688 C 33.707031 62.121094 37.035156 65.15625 40.226562 68.347656 C 41.394531 69.515625 42.589844 70.640625 43.828125 71.738281 C 44.785156 72.585938 45.9375 73.097656 47.199219 73.320312 C 50.011719 73.820312 52.570312 72.960938 55.007812 71.679688 C 57.878906 70.160156 60.375 68.105469 62.726562 65.890625 C 64.59375 64.113281 66.464844 62.328125 68.132812 60.335938 C 70.246094 57.84375 72.132812 55.226562 73.296875 52.132812 C 74.667969 48.515625 74.300781 45.175781 71.519531 42.359375 C 69.179688 39.988281 66.964844 37.519531 64.601562 35.179688 Z M 47.265625 18.277344 " fill-opacity="1" fill-rule="nonzero"/></g></g></g><g clip-path="url(#156479b4b5)"><g clip-path="url(#0a6389121a)"><g clip-path="url(#8e211cad30)"><path fill="#fc9b0f" d="M 14.449219 31.523438 C 15.105469 30.527344 16.023438 29.753906 16.84375 28.921875 C 21.53125 24.214844 26.21875 19.53125 30.914062 14.851562 C 31.523438 14.242188 32.164062 13.65625 32.792969 13.070312 C 32.054688 14.171875 32.070312 14.160156 33.082031 15.199219 C 33.414062 15.53125 33.71875 15.824219 34.199219 15.488281 C 33.679688 16.363281 32.933594 17.046875 32.222656 17.757812 C 27.367188 22.613281 22.519531 27.476562 17.65625 32.324219 C 17.289062 32.691406 16.980469 33.183594 16.363281 33.207031 C 15.859375 32.496094 15.449219 31.667969 14.449219 31.523438 Z M 14.449219 31.523438 " fill-opacity="1" fill-rule="nonzero"/></g></g></g><g clip-path="url(#9d8083ad49)"><g clip-path="url(#7739452886)"><g clip-path="url(#60c6d40d80)"><g mask="url(#46471d5bc4)"><g transform="matrix(1, 0, 0, 1, 13, 31)"><g clip-path="url(#1e8fa36c93)"><g clip-path="url(#1488aeac66)"><g clip-path="url(#beb87ea8fb)"><g clip-path="url(#f32056b2c0)"><path fill="#fc9b0f" d="M 5.722656 12.273438 C 3.414062 9.890625 4.097656 3.117188 4.007812 5.792969 C 4.054688 4.585938 4.554688 3.414062 5.566406 2.433594 C 6.578125 1.457031 7.800781 1.292969 8.699219 2.019531 C 10.65625 3.597656 11.074219 5.910156 10.21875 8.773438 C 9.882812 9.863281 9.109375 12.359375 7.960938 12.820312 C 6.832031 13.261719 6.132812 12.753906 5.722656 12.273438 Z M 5.722656 12.273438 " fill-opacity="1" fill-rule="nonzero"/></g></g></g></g></g></g></g></g></g><g clip-path="url(#f15f5f4e8d)"><g clip-path="url(#e3e99268c7)"><g clip-path="url(#001c2e05bd)"><path fill="#fc9b0f" d="M 22.261719 46.3125 L 32.394531 57.003906 C 35.164062 59.773438 38.054688 62.417969 40.832031 65.175781 C 41.847656 66.191406 42.886719 67.175781 43.964844 68.132812 C 44.78125 68.875 45.78125 69.316406 46.875 69.5 C 49.332031 69.941406 51.546875 69.199219 53.664062 68.078125 C 56.152344 66.765625 58.324219 64.980469 60.367188 63.050781 C 61.992188 61.511719 63.613281 59.960938 65.066406 58.230469 C 66.902344 56.058594 68.539062 53.785156 69.546875 51.101562 C 70.742188 47.960938 70.421875 45.054688 68.007812 42.613281 C 65.976562 40.558594 64.054688 38.402344 61.996094 36.371094 L 46.929688 21.679688 Z M 22.261719 46.3125 " fill-opacity="1" fill-rule="nonzero"/></g></g></g><g clip-path="url(#6acec6023c)"><g clip-path="url(#7040ee230d)"><g clip-path="url(#08678828d6)"><path fill="#fc9b0f" d="M 39.613281 53.910156 C 40.289062 53.234375 40.96875 52.546875 41.648438 51.875 C 42.207031 51.351562 42.785156 51.34375 43.273438 51.804688 C 43.789062 52.292969 43.824219 52.96875 43.3125 53.515625 C 41.984375 54.871094 40.65625 56.21875 39.296875 57.535156 C 38.683594 58.109375 38.019531 58.105469 37.507812 57.613281 C 37.019531 57.132812 36.96875 56.636719 37.433594 56.125 C 38.144531 55.371094 38.894531 54.664062 39.628906 53.929688 C 39.621094 53.921875 39.613281 53.910156 39.613281 53.910156 Z M 39.613281 53.910156 " fill-opacity="1" fill-rule="nonzero"/></g></g></g><g clip-path="url(#26d6387ca0)"><g clip-path="url(#8caa4cd15a)"><g clip-path="url(#3ec6262674)"><path fill="#fc9b0f" d="M 44.007812 58.324219 C 44.703125 57.625 45.394531 56.929688 46.09375 56.234375 C 46.632812 55.714844 47.222656 55.695312 47.71875 56.160156 C 48.222656 56.640625 48.28125 57.222656 47.769531 57.789062 C 47.160156 58.484375 46.46875 59.125 45.804688 59.769531 C 45.109375 60.464844 44.402344 61.15625 43.703125 61.851562 C 43.066406 62.484375 42.363281 62.589844 41.898438 62.121094 C 41.367188 61.570312 41.453125 60.878906 42.128906 60.203125 C 42.765625 59.582031 43.382812 58.945312 44.007812 58.324219 Z M 44.007812 58.324219 " fill-opacity="1" fill-rule="nonzero"/></g></g></g><g clip-path="url(#3fa7419a05)"><g clip-path="url(#7e29969dd4)"><g clip-path="url(#a35c5712d8)"><path fill="#fc9b0f" d="M 35.113281 49.519531 C 35.800781 48.835938 36.464844 48.152344 37.152344 47.488281 C 37.6875 46.972656 38.34375 46.964844 38.808594 47.390625 C 39.273438 47.859375 39.3125 48.617188 38.820312 49.121094 C 37.484375 50.503906 36.121094 51.863281 34.761719 53.203125 C 34.210938 53.730469 33.566406 53.699219 33.117188 53.230469 C 32.632812 52.71875 32.644531 52.070312 33.175781 51.53125 C 33.820312 50.867188 34.488281 50.199219 35.140625 49.546875 C 35.136719 49.542969 35.128906 49.535156 35.113281 49.519531 Z M 35.113281 49.519531 " fill-opacity="1" fill-rule="nonzero"/></g></g></g><g clip-path="url(#eb4d7fcbdc)"><g clip-path="url(#07f77ec58e)"><g clip-path="url(#300d625ae1)"><path fill="#fc9b0f" d="M 32.613281 46.929688 C 31.949219 47.59375 31.300781 48.257812 30.628906 48.902344 C 30.015625 49.480469 29.40625 49.511719 28.929688 49.03125 C 28.417969 48.53125 28.417969 47.960938 29.007812 47.351562 C 30.332031 46 31.679688 44.65625 33.019531 43.320312 C 33.523438 42.835938 34.242188 42.863281 34.679688 43.300781 C 35.121094 43.75 35.101562 44.433594 34.597656 44.945312 C 33.953125 45.625 33.273438 46.269531 32.613281 46.929688 Z M 32.613281 46.929688 " fill-opacity="1" fill-rule="nonzero"/></g></g></g><g clip-path="url(#53840c2e00)"><g clip-path="url(#101f1101b1)"><g clip-path="url(#2366b5d25f)"><path fill="#fc9b0f" d="M 32.652344 9.90625 C 33.65625 10.910156 33.679688 12.535156 32.703125 13.511719 L 14.339844 31.875 C 13.363281 32.851562 11.738281 32.828125 10.734375 31.824219 L 6.507812 27.597656 C 5.5 26.589844 5.476562 24.96875 6.453125 23.988281 L 24.816406 5.625 C 25.796875 4.648438 27.417969 4.671875 28.425781 5.679688 Z M 32.652344 9.90625 " fill-opacity="1" fill-rule="nonzero"/></g></g></g><g clip-path="url(#bb49faeebf)"><g clip-path="url(#0f885d2353)"><g clip-path="url(#eff89b58da)"><path fill="#fc9b0f" d="M 21.695312 9.84375 C 22.070312 9.46875 22.449219 9.089844 22.8125 8.679688 C 23.578125 7.976562 23.796875 7.964844 24.523438 8.722656 C 26.066406 10.371094 27.863281 11.773438 29.421875 13.414062 C 30.253906 14.28125 30.15625 15.3125 29.125 15.953125 C 28.648438 16.25 28.167969 16.292969 27.703125 15.871094 C 25.78125 14.121094 23.933594 12.316406 22.085938 10.460938 C 21.910156 10.285156 21.761719 10.089844 21.695312 9.84375 Z M 21.695312 9.84375 " fill-opacity="1" fill-rule="nonzero"/></g></g></g><g clip-path="url(#0c4b54fbb5)"><g clip-path="url(#b9a1ec5f08)"><g clip-path="url(#ad4bb7b8e9)"><path fill="#fc9b0f" d="M 9.636719 21.859375 C 9.789062 21.75 9.933594 21.605469 10.0625 21.476562 C 10.796875 21.53125 11.34375 21.882812 11.851562 22.390625 C 13.320312 23.914062 14.839844 25.390625 16.324219 26.890625 C 16.933594 27.5 16.964844 28.109375 16.429688 28.691406 C 15.882812 29.28125 15.023438 29.339844 14.46875 28.785156 C 12.75 27.09375 11.046875 25.390625 9.351562 23.671875 C 8.765625 23.082031 8.835938 22.746094 9.636719 21.859375 Z M 9.636719 21.859375 " fill-opacity="1" fill-rule="nonzero"/></g></g></g><g clip-path="url(#f88780eea6)"><g clip-path="url(#bf8c68c289)"><g clip-path="url(#327f1547c0)"><path fill="#fc9b0f" d="M 17.707031 14.027344 C 17.945312 13.523438 18.367188 13.171875 18.753906 12.785156 C 19.40625 12.792969 19.910156 13.074219 20.367188 13.546875 C 21.90625 15.117188 23.46875 16.648438 25.007812 18.207031 C 25.644531 18.84375 25.699219 19.316406 25.246094 19.875 C 24.636719 20.609375 24.164062 20.707031 23.402344 20.21875 C 23.125 20.03125 22.875 19.824219 22.65625 19.605469 C 21.238281 18.195312 19.832031 16.765625 18.414062 15.375 C 18.015625 14.992188 17.753906 14.578125 17.707031 14.027344 Z M 17.707031 14.027344 " fill-opacity="1" fill-rule="nonzero"/></g></g></g><g clip-path="url(#03928e20dd)"><g clip-path="url(#e6b0d4c669)"><g clip-path="url(#6d0220d78a)"><path fill="#fc9b0f" d="M 13.214844 18.527344 C 13.574219 17.894531 14.015625 17.335938 14.773438 17.171875 C 15.046875 17.382812 15.351562 17.554688 15.597656 17.792969 C 17.277344 19.453125 18.949219 21.125 20.609375 22.804688 C 21.226562 23.421875 21.234375 23.847656 20.675781 24.453125 C 20.097656 25.066406 19.429688 25.144531 18.867188 24.589844 C 17.082031 22.847656 15.332031 21.074219 13.578125 19.320312 C 13.351562 19.09375 13.257812 18.820312 13.214844 18.527344 Z M 13.214844 18.527344 " fill-opacity="1" fill-rule="nonzero"/></g></g></g><g clip-path="url(#6cdceed689)"><g clip-path="url(#75a892def1)"><g clip-path="url(#0d99f1eebd)"><path fill="#ffdbcf" d="M 12.648438 24.140625 C 12.601562 23.347656 12.867188 22.476562 12.984375 21.714844 C 13.105469 20.894531 13.097656 20.058594 13.148438 19.226562 C 13.203125 18.449219 13.214844 17.664062 12.996094 16.898438 C 12.925781 16.511719 12.714844 16.207031 12.503906 15.902344 C 11.871094 14.984375 10.71875 14.726562 9.945312 14 C 9.167969 13.273438 8.710938 12.296875 8.71875 11.246094 C 8.722656 8.832031 11.183594 6.921875 13.496094 7.917969 C 14.097656 8.171875 14.628906 8.707031 15.066406 9.179688 C 15.625 9.765625 15.847656 10.566406 16.449219 11.140625 C 17.074219 11.730469 17.921875 12.019531 18.765625 12.078125 C 19.863281 12.171875 20.992188 12.027344 22.070312 11.820312 C 22.695312 11.703125 23.324219 11.570312 23.953125 11.46875 C 25.386719 11.136719 26.390625 11.847656 27.269531 12.855469 C 27.574219 13.207031 27.875 13.570312 28.054688 14.019531 C 27.980469 14.328125 27.683594 14.4375 27.507812 14.65625 C 27.15625 14.917969 26.867188 15.25 26.539062 15.527344 C 26.203125 15.828125 25.882812 16.128906 25.5625 16.445312 C 25.261719 16.710938 24.996094 17.035156 24.683594 17.289062 C 24.367188 17.585938 24.085938 17.886719 23.785156 18.1875 C 23.460938 18.488281 23.164062 18.808594 22.851562 19.121094 C 22.554688 19.417969 22.265625 19.71875 21.976562 20.015625 C 21.695312 20.34375 21.378906 20.628906 21.097656 20.933594 C 20.800781 21.230469 20.5 21.53125 20.207031 21.832031 C 19.921875 22.144531 19.613281 22.425781 19.332031 22.738281 C 19.050781 23.019531 18.773438 23.300781 18.507812 23.605469 C 18.210938 23.953125 17.898438 24.265625 17.589844 24.589844 C 17.335938 24.875 17.0625 25.148438 16.832031 25.441406 C 16.546875 25.785156 16.21875 26.101562 15.949219 26.453125 C 15.730469 26.625 15.664062 26.953125 15.335938 27.015625 C 14.375 26.441406 13.511719 25.769531 12.929688 24.789062 C 12.8125 24.59375 12.695312 24.578125 12.664062 24.316406 C 12.65625 24.257812 12.648438 24.199219 12.648438 24.140625 Z M 12.648438 24.140625 " fill-opacity="1" fill-rule="nonzero"/></g></g></g><g clip-path="url(#1f5cf1c30e)"><g clip-path="url(#5955e688a7)"><g clip-path="url(#3ab8f229e4)"><path fill="#d3e7f4" d="M 44.917969 21.011719 C 41.664062 18.65625 38.082031 18.011719 34.183594 18.71875 C 33.328125 19.3125 32.644531 20.089844 31.921875 20.8125 C 28.074219 24.652344 24.234375 28.5 20.386719 32.34375 C 20.082031 32.644531 19.789062 32.945312 19.53125 33.277344 C 19.316406 33.449219 19.277344 33.695312 19.277344 33.945312 C 19.253906 34.765625 19.242188 35.597656 19.207031 36.421875 C 19.089844 39.320312 19.941406 41.90625 21.574219 44.289062 L 31.15625 54.410156 C 33.777344 57.03125 36.511719 59.527344 39.132812 62.148438 C 40.09375 63.109375 41.078125 64.03125 42.097656 64.933594 C 42.882812 65.632812 43.828125 66.050781 44.863281 66.234375 C 47.175781 66.644531 49.277344 65.9375 51.277344 64.886719 C 53.636719 63.636719 55.6875 61.949219 57.621094 60.128906 C 59.15625 58.667969 60.691406 57.203125 62.0625 55.566406 C 63.796875 53.519531 65.351562 51.367188 66.308594 48.828125 C 67.433594 45.855469 67.132812 43.109375 64.847656 40.796875 C 62.921875 38.851562 61.105469 36.820312 59.160156 34.898438 Z M 44.917969 21.011719 " fill-opacity="1" fill-rule="nonzero"/></g></g></g><g clip-path="url(#e29dba7738)"><g clip-path="url(#6cfdf8b1c7)"><g clip-path="url(#a4bcd2a1f7)"><path fill="#f7778f" d="M 17.957031 31.894531 C 18.496094 31.074219 19.25 30.441406 19.925781 29.757812 C 23.777344 25.890625 27.625 22.042969 31.484375 18.195312 C 31.984375 17.695312 32.511719 17.214844 33.027344 16.734375 C 32.421875 17.640625 32.433594 17.628906 33.265625 18.480469 C 33.539062 18.757812 33.789062 18.996094 34.183594 18.71875 C 33.753906 19.4375 33.140625 20 32.558594 20.585938 C 28.570312 24.574219 24.585938 28.570312 20.59375 32.550781 C 20.289062 32.855469 20.039062 33.257812 19.53125 33.277344 C 19.113281 32.691406 18.777344 32.015625 17.957031 31.894531 Z M 17.957031 31.894531 " fill-opacity="1" fill-rule="nonzero"/></g></g></g><g clip-path="url(#5c1846fabb)"><g clip-path="url(#c1ed9143c0)"><g clip-path="url(#82a7bd915b)"><g mask="url(#b250ee5a64)"><g transform="matrix(1, 0, 0, 1, 17, 31)"><g clip-path="url(#0bcf7ae6fc)"><g clip-path="url(#de7262f975)"><g clip-path="url(#72e0a7de45)"><g clip-path="url(#6cf8df6fbf)"><path fill="#ffffff" d="M 4.46875 10.546875 C 2.570312 8.589844 3.132812 3.027344 3.058594 5.222656 C 3.097656 4.230469 3.507812 3.269531 4.339844 2.464844 C 5.171875 1.660156 6.175781 1.523438 6.914062 2.125 C 8.523438 3.421875 8.867188 5.320312 8.160156 7.671875 C 7.886719 8.566406 7.25 10.621094 6.304688 10.996094 C 5.378906 11.359375 4.804688 10.941406 4.46875 10.546875 Z M 4.46875 10.546875 " fill-opacity="1" fill-rule="nonzero"/></g></g></g></g></g></g></g></g></g><g clip-path="url(#bdf174ef94)"><g clip-path="url(#f1aff60138)"><g clip-path="url(#ada631b93a)"><path fill="#ffffff" d="M 24.375 44.042969 L 32.699219 52.828125 C 34.976562 55.105469 37.351562 57.277344 39.632812 59.542969 C 40.464844 60.375 41.320312 61.1875 42.207031 61.972656 C 42.875 62.582031 43.699219 62.941406 44.597656 63.097656 C 46.617188 63.457031 48.4375 62.847656 50.175781 61.929688 C 52.21875 60.847656 54.003906 59.382812 55.679688 57.796875 C 57.019531 56.53125 58.351562 55.257812 59.542969 53.835938 C 61.050781 52.050781 62.394531 50.183594 63.222656 47.980469 C 64.207031 45.398438 63.945312 43.011719 61.960938 41.007812 C 60.292969 39.316406 58.710938 37.546875 57.023438 35.878906 L 44.644531 23.804688 Z M 24.375 44.042969 " fill-opacity="1" fill-rule="nonzero"/></g></g></g><g clip-path="url(#4f6581277e)"><g clip-path="url(#0b20222ccb)"><g clip-path="url(#c2857c0f59)"><path fill="#f7778f" d="M 38.628906 50.289062 C 39.183594 49.734375 39.746094 49.167969 40.300781 48.617188 C 40.761719 48.183594 41.238281 48.179688 41.640625 48.558594 C 42.0625 48.960938 42.09375 49.515625 41.671875 49.964844 C 40.578125 51.078125 39.488281 52.183594 38.371094 53.265625 C 37.867188 53.738281 37.324219 53.734375 36.902344 53.328125 C 36.5 52.9375 36.457031 52.527344 36.839844 52.105469 C 37.425781 51.484375 38.042969 50.90625 38.644531 50.300781 C 38.636719 50.296875 38.628906 50.289062 38.628906 50.289062 Z M 38.628906 50.289062 " fill-opacity="1" fill-rule="nonzero"/></g></g></g><g clip-path="url(#bdeb2c180a)"><g clip-path="url(#56056d2e74)"><g clip-path="url(#78c3d68c4e)"><path fill="#f7778f" d="M 42.242188 53.914062 C 42.816406 53.339844 43.378906 52.769531 43.957031 52.199219 C 44.398438 51.769531 44.886719 51.753906 45.289062 52.136719 C 45.707031 52.53125 45.753906 53.007812 45.332031 53.472656 C 44.832031 54.046875 44.265625 54.570312 43.71875 55.101562 C 43.148438 55.671875 42.566406 56.238281 41.992188 56.8125 C 41.46875 57.332031 40.890625 57.417969 40.511719 57.03125 C 40.074219 56.578125 40.140625 56.011719 40.695312 55.457031 C 41.222656 54.945312 41.730469 54.425781 42.242188 53.914062 Z M 42.242188 53.914062 " fill-opacity="1" fill-rule="nonzero"/></g></g></g><g clip-path="url(#8819b768c9)"><g clip-path="url(#a6173b28c6)"><g clip-path="url(#24fdcf3075)"><path fill="#f7778f" d="M 34.933594 46.679688 C 35.496094 46.117188 36.046875 45.554688 36.609375 45.011719 C 37.050781 44.589844 37.589844 44.582031 37.96875 44.933594 C 38.351562 45.316406 38.386719 45.941406 37.980469 46.351562 C 36.882812 47.488281 35.765625 48.605469 34.648438 49.707031 C 34.195312 50.136719 33.664062 50.113281 33.296875 49.730469 C 32.898438 49.308594 32.90625 48.777344 33.34375 48.332031 C 33.871094 47.785156 34.421875 47.238281 34.957031 46.703125 C 34.953125 46.699219 34.945312 46.691406 34.933594 46.679688 Z M 34.933594 46.679688 " fill-opacity="1" fill-rule="nonzero"/></g></g></g><g clip-path="url(#8589296fca)"><g clip-path="url(#becb6313ea)"><g clip-path="url(#521ea0aec9)"><path fill="#f7778f" d="M 32.878906 44.550781 C 32.335938 45.097656 31.800781 45.644531 31.25 46.171875 C 30.746094 46.648438 30.246094 46.671875 29.851562 46.277344 C 29.433594 45.867188 29.433594 45.398438 29.917969 44.898438 C 31.007812 43.789062 32.113281 42.683594 33.214844 41.585938 C 33.628906 41.1875 34.21875 41.210938 34.578125 41.570312 C 34.9375 41.9375 34.925781 42.5 34.511719 42.921875 C 33.980469 43.476562 33.421875 44.007812 32.878906 44.550781 Z M 32.878906 44.550781 " fill-opacity="1" fill-rule="nonzero"/></g></g></g><g clip-path="url(#bac5077711)"><g clip-path="url(#27dfa1e5d2)"><g clip-path="url(#31503da6a3)"><path fill="#ffdbcf" d="M 32.910156 14.132812 C 33.738281 14.960938 33.757812 16.292969 32.953125 17.097656 L 17.867188 32.183594 C 17.0625 32.984375 15.730469 32.96875 14.902344 32.140625 L 11.429688 28.667969 C 10.605469 27.839844 10.585938 26.507812 11.386719 25.703125 L 26.476562 10.617188 C 27.277344 9.8125 28.613281 9.832031 29.4375 10.660156 Z M 32.910156 14.132812 " fill-opacity="1" fill-rule="nonzero"/></g></g></g><g clip-path="url(#e122f482ed)"><g clip-path="url(#b14b224555)"><g clip-path="url(#61b0153b4b)"><path fill="#f7778f" d="M 23.910156 14.082031 C 24.21875 13.773438 24.53125 13.460938 24.828125 13.125 C 25.457031 12.550781 25.636719 12.539062 26.234375 13.160156 C 27.503906 14.515625 28.976562 15.667969 30.257812 17.015625 C 30.941406 17.726562 30.863281 18.574219 30.015625 19.101562 C 29.625 19.34375 29.230469 19.382812 28.847656 19.035156 C 27.269531 17.597656 25.75 16.113281 24.230469 14.585938 C 24.089844 14.445312 23.964844 14.285156 23.910156 14.082031 Z M 23.910156 14.082031 " fill-opacity="1" fill-rule="nonzero"/></g></g></g><g clip-path="url(#6d601f93b5)"><g clip-path="url(#beb2216fed)"><g clip-path="url(#67e86dcbd5)"><path fill="#f7778f" d="M 14.003906 23.953125 C 14.128906 23.867188 14.25 23.746094 14.355469 23.640625 C 14.957031 23.6875 15.40625 23.976562 15.820312 24.390625 C 17.03125 25.644531 18.277344 26.855469 19.5 28.089844 C 20 28.589844 20.023438 29.089844 19.582031 29.566406 C 19.132812 30.054688 18.429688 30.101562 17.972656 29.644531 C 16.558594 28.253906 15.160156 26.855469 13.769531 25.441406 C 13.289062 24.960938 13.347656 24.683594 14.003906 23.953125 Z M 14.003906 23.953125 " fill-opacity="1" fill-rule="nonzero"/></g></g></g><g clip-path="url(#70e465fb13)"><g clip-path="url(#09729d3b87)"><g clip-path="url(#bed2607aae)"><path fill="#f7778f" d="M 20.632812 17.519531 C 20.828125 17.105469 21.175781 16.816406 21.492188 16.5 C 22.027344 16.503906 22.445312 16.738281 22.816406 17.125 C 24.085938 18.414062 25.367188 19.671875 26.632812 20.953125 C 27.15625 21.476562 27.199219 21.863281 26.828125 22.324219 C 26.328125 22.925781 25.9375 23.007812 25.3125 22.605469 C 25.085938 22.453125 24.878906 22.285156 24.699219 22.101562 C 23.535156 20.945312 22.378906 19.769531 21.214844 18.625 C 20.886719 18.3125 20.671875 17.972656 20.632812 17.519531 Z M 20.632812 17.519531 " fill-opacity="1" fill-rule="nonzero"/></g></g></g><g clip-path="url(#437de2d02d)"><g clip-path="url(#eef91e72ca)"><g clip-path="url(#93a3fda814)"><path fill="#f7778f" d="M 16.941406 21.21875 C 17.238281 20.695312 17.601562 20.238281 18.222656 20.105469 C 18.445312 20.277344 18.699219 20.417969 18.898438 20.613281 C 20.28125 21.976562 21.652344 23.351562 23.019531 24.730469 C 23.527344 25.238281 23.53125 25.589844 23.074219 26.085938 C 22.597656 26.589844 22.050781 26.652344 21.585938 26.199219 C 20.121094 24.765625 18.683594 23.308594 17.242188 21.867188 C 17.054688 21.683594 16.980469 21.457031 16.941406 21.21875 Z M 16.941406 21.21875 " fill-opacity="1" fill-rule="nonzero"/></g></g></g></svg>