<svg xmlns="http://www.w3.org/2000/svg" xmlns:xlink="http://www.w3.org/1999/xlink" width="100" zoomAndPan="magnify" viewBox="0 0 75 74.999997" height="100" preserveAspectRatio="xMidYMid meet" version="1.0"><defs><clipPath id="60c8c21e54"><path d="M 1 7 L 74 7 L 74 67.511719 L 1 67.511719 Z M 1 7 " clip-rule="nonzero"/></clipPath><clipPath id="486c67b029"><path d="M 10 16 L 65 16 L 65 61.464844 L 10 61.464844 Z M 10 16 " clip-rule="nonzero"/></clipPath></defs><g clip-path="url(#60c8c21e54)"><path fill="#fc9b0f" d="M 61.148438 8.582031 C 43.351562 3.792969 37.558594 21.871094 37.558594 21.871094 C 37.558594 21.871094 31.765625 3.792969 13.96875 8.582031 C -2.992188 13.148438 -7.039062 48.5625 35.230469 66.804688 C 36.714844 67.445312 38.402344 67.445312 39.886719 66.804688 C 82.160156 48.5625 78.109375 13.148438 61.148438 8.582031 Z M 61.148438 8.582031 " fill-opacity="1" fill-rule="nonzero"/></g><path fill="#fc9b0f" d="M 20.570312 46.101562 C 21.347656 46.855469 21.371094 48.09375 20.617188 48.875 C 20.234375 49.273438 19.722656 49.472656 19.207031 49.472656 C 18.71875 49.472656 18.230469 49.289062 17.847656 48.921875 C 10.183594 41.527344 8.304688 34.070312 8.078125 29.113281 C 7.824219 23.667969 9.453125 19.972656 9.523438 19.816406 C 9.96875 18.828125 11.128906 18.386719 12.113281 18.832031 C 13.097656 19.273438 13.539062 20.429688 13.101562 21.414062 C 13.078125 21.464844 11.75 24.578125 12 29.128906 C 12.339844 35.234375 15.222656 40.941406 20.570312 46.101562 Z M 23.519531 49.097656 C 22.390625 49.097656 21.472656 50.015625 21.472656 51.148438 C 21.472656 52.277344 22.390625 53.195312 23.519531 53.195312 C 24.652344 53.195312 25.566406 52.277344 25.566406 51.148438 C 25.566406 50.015625 24.652344 49.097656 23.519531 49.097656 Z M 23.519531 49.097656 " fill-opacity="1" fill-rule="nonzero"/><g clip-path="url(#486c67b029)"><path fill="#fd0000" d="M 55.347656 17.097656 C 41.925781 13.484375 37.554688 27.121094 37.554688 27.121094 C 37.554688 27.121094 33.1875 13.484375 19.765625 17.097656 C 6.972656 20.539062 3.921875 47.25 35.800781 61.007812 C 36.917969 61.492188 38.191406 61.492188 39.3125 61.007812 C 71.191406 47.25 68.140625 20.539062 55.347656 17.097656 Z M 55.347656 17.097656 " fill-opacity="1" fill-rule="nonzero"/></g><path fill="#ffffff" d="M 24.742188 45.394531 C 25.332031 45.960938 25.347656 46.898438 24.78125 47.484375 C 24.488281 47.785156 24.105469 47.9375 23.714844 47.9375 C 23.347656 47.9375 22.976562 47.796875 22.691406 47.523438 C 16.910156 41.945312 15.492188 36.320312 15.320312 32.582031 C 15.132812 28.476562 16.359375 25.6875 16.414062 25.570312 C 16.746094 24.828125 17.621094 24.492188 18.367188 24.828125 C 19.109375 25.160156 19.441406 26.03125 19.109375 26.777344 C 19.09375 26.816406 18.089844 29.160156 18.28125 32.59375 C 18.535156 37.199219 20.710938 41.503906 24.742188 45.394531 Z M 26.96875 47.65625 C 26.113281 47.65625 25.421875 48.347656 25.421875 49.199219 C 25.421875 50.054688 26.117188 50.746094 26.96875 50.746094 C 27.820312 50.746094 28.511719 50.054688 28.511719 49.199219 C 28.511719 48.347656 27.820312 47.65625 26.96875 47.65625 Z M 26.96875 47.65625 " fill-opacity="1" fill-rule="nonzero"/></svg>